<?xml version="1.0" encoding="UTF-8"?><svg id="uuid-60f0cdb8-ac94-4761-a020-6b6a493dc695" xmlns="http://www.w3.org/2000/svg" viewBox="0 0 116.45 271.65"><g id="uuid-5d9cda1a-4fbb-4be8-af35-1258e65da128"><g><g><path id="uuid-3095fb6f-1d74-4ed0-b799-04375bc6cf93" d="M8.32,184.88c0,1.73,1.14,3.47,3.43,4.79l4.84,2.79c4.57,2.64,11.99,2.64,16.56,0l74.95-43.27c2.28-1.32,3.43-3.04,3.43-4.77v76.21c0,1.73-1.15,3.45-3.43,4.77l-74.95,43.27c-4.57,2.64-11.99,2.64-16.56,0l-4.84-2.79c-2.29-1.32-3.43-3.06-3.43-4.79v-76.21Z" style="fill:none; stroke:#231f20; stroke-width:5px;"/><path id="uuid-dcc056a4-e1d6-4ceb-a320-b97b43fe63b8" d="M8.32,184.88c0-1.73,1.15-3.45,3.43-4.77l74.95-43.27c4.57-2.64-.1-9.62,4.47-6.98l16.93,9.77c2.29,1.32,3.43,3.06,3.43,4.79s-1.15,3.45-3.43,4.77l-74.95,43.27c-4.57,2.64-11.99,2.64-16.56,0l-4.84-2.79c-2.29-1.32-3.43-3.06-3.43-4.79Z" style="fill:none; stroke:#231f20; stroke-width:5px;"/><path id="uuid-3d898f99-0178-4b2a-8934-c2cc9264a03f" d="M115.45,127.88c0-1.73-1.14-3.47-3.43-4.79l-16.08-9.28c-4.57-2.64-11.99-2.64-16.56,0L4.43,157.08c-2.28,1.32-3.43,3.04-3.43,4.77v26.19c0,1.73,1.14,3.47,3.43,4.79l16.08,9.28c4.57,2.64,11.99,2.64,16.56,0l74.95-43.27c2.28-1.32,3.43-3.04,3.43-4.77v-26.19Z" style="fill:none; stroke:#231f20; stroke-width:5px;"/><line x1="35.5" y1="216.1" x2="35.5" y2="266.29" style="fill:none; stroke:#231f20; stroke-width:5px;"/><line x1="45.26" y1="210.46" x2="45.26" y2="260.66" style="fill:none; stroke:#231f20; stroke-width:5px;"/><line x1="55.02" y1="204.83" x2="55.02" y2="255.03" style="fill:none; stroke:#231f20; stroke-width:5px;"/><line x1="64.77" y1="199.2" x2="64.77" y2="249.4" style="fill:none; stroke:#231f20; stroke-width:5px;"/><line x1="74.53" y1="193.57" x2="74.53" y2="243.76" style="fill:none; stroke:#231f20; stroke-width:5px;"/><line x1="84.28" y1="187.93" x2="84.28" y2="238.13" style="fill:none; stroke:#231f20; stroke-width:5px;"/><line x1="94.04" y1="182.3" x2="94.04" y2="232.5" style="fill:none; stroke:#231f20; stroke-width:5px;"/><line x1="103.79" y1="176.67" x2="103.79" y2="226.87" style="fill:none; stroke:#231f20; stroke-width:5px;"/><path d="M48.24,136.14c-.41,.19-.85,.35-1.23,.56-.4,.22-.77,.46-1.12,.7-.12,.08-.21,.16-.32,.25-.22,.16-.45,.33-.65,.5-.12,.1-.22,.21-.34,.32-.17,.15-.34,.31-.49,.47-.11,.12-.2,.24-.29,.35-.13,.15-.27,.31-.38,.46-.09,.12-.16,.25-.24,.38-.1,.16-.21,.31-.29,.47-.07,.13-.12,.26-.18,.39-.07,.16-.15,.32-.21,.48-.05,.14-.08,.27-.11,.41-.04,.16-.09,.31-.12,.47-.02,.14-.03,.28-.04,.42-.02,.16-.04,.32-.04,.47,0,.02,0,.04,0,.06,0,.14,.02,.27,.03,.41,0,.14,.01,.27,.03,.41,.02,.16,.07,.31,.1,.47,.03,.14,.06,.27,.1,.41,.05,.16,.12,.31,.18,.47,.05,.13,.1,.26,.16,.39,.08,.16,.18,.31,.27,.46,.07,.13,.14,.25,.22,.38,.11,.16,.23,.31,.35,.46,.09,.12,.18,.24,.28,.36,.14,.16,.3,.31,.46,.46,.11,.11,.21,.22,.32,.32,.18,.17,.39,.32,.6,.48,.11,.09,.21,.18,.33,.26,.33,.24,.69,.48,1.07,.7,6.13,3.66,16.2,3.76,22.5,.23,.4-.22,.77-.46,1.12-.69,.12-.08,.22-.17,.34-.26,.22-.16,.44-.32,.63-.49,.12-.1,.22-.21,.34-.32,.17-.15,.34-.31,.49-.47,.11-.11,.19-.23,.29-.35,.13-.16,.27-.31,.38-.47,.09-.12,.16-.25,.24-.37,.1-.16,.21-.31,.29-.47,.07-.13,.12-.26,.18-.39,.07-.16,.15-.32,.21-.48,.05-.13,.07-.27,.11-.4,.04-.16,.09-.32,.12-.48,.02-.14,.03-.28,.04-.41,.02-.16,.04-.32,.04-.48,0-.02,0-.04,0-.06,0-.14-.02-.27-.03-.41,0-.14-.01-.27-.03-.41-.02-.16-.07-.31-.1-.46-.03-.14-.06-.27-.1-.41-.05-.16-.12-.31-.18-.47-.05-.13-.1-.26-.16-.39-.08-.16-.18-.31-.27-.46-.07-.13-.14-.25-.22-.38-.11-.16-.24-.31-.36-.46-.09-.12-.17-.24-.28-.35-.14-.16-.3-.31-.46-.47-.11-.11-.2-.21-.32-.32-.19-.17-.4-.33-.61-.5-.11-.08-.2-.17-.31-.25-.33-.24-.69-.48-1.07-.71-.47-.28-1.01-.5-1.52-.74" style="fill:none; stroke:#231f20; stroke-width:5px;"/><path d="M67.98,136.19s0-.02-.01-.04c-.03-.09-.06-.2-.1-.3-.09-.27-.17-.55-.26-.88-.02-.07-.04-.13-.05-.2-.05-.2-.12-.45-.19-.77-.06-.26-.12-.52-.18-.81-.02-.08-.03-.17-.05-.26-.08-.41-.16-.85-.24-1.33,0,0,0,0,0,0-.08-.51-.16-1.06-.24-1.65-.06-.44-.1-.89-.15-1.33-.01-.13-.03-.26-.04-.39-.05-.49-.09-.98-.12-1.47,0-.1-.02-.21-.02-.31-.03-.45-.06-.89-.08-1.32,0-.14-.02-.29-.02-.43-.02-.48-.04-.95-.06-1.41,0-.07,0-.14,0-.21-.06-2.15-.05-4.1-.04-5.65,.05-18.02,8.05-31.87,8.14-63.75,.01-3.84-.02-7.21-.08-10.16-.02-1.2-.05-2.41-.09-3.65,0-.08,0-.15,0-.23,0-.27-.02-.55-.03-.83-.2-5.68-.49-9.18-.65-10.8-.06-.62-.14-1.38-.23-2.2-.05-.49-.1-.97-.15-1.47-.14-1.31-.37-2.86-.6-4.17-.05-.29-.1-.58-.15-.87-.13-.74-.24-1.34-.31-1.67-.37-1.84-.82-3.67-1.38-5.35,0,0,0,0,0-.01-.14-.48-.35-1.04-.57-1.58-.02-.06-.04-.12-.06-.17-.04-.11-.08-.2-.13-.3-.05-.12-.1-.26-.15-.37-.33-.82-.72-1.58-1.1-2.25-.06-.1-.12-.2-.18-.3-.07-.13-.15-.25-.22-.37,0,0,0-.01-.01-.02-.45-.73-.87-1.3-1.15-1.62-.02-.02-.04-.04-.06-.07-.02-.03-.04-.05-.06-.08-.25-.31-.6-.68-.99-1.05-.12-.12-.25-.23-.37-.35-.07-.06-.13-.12-.2-.18-.24-.21-.51-.41-.8-.61-.11-.08-.21-.15-.32-.22-.25-.16-.52-.32-.81-.48-.06-.03-.11-.07-.16-.1-.07-.03-.14-.06-.21-.09-.12-.06-.24-.12-.37-.18-.13-.06-.38-.16-.68-.26,0,0,0,0,0,0-.27-.1-.6-.19-.99-.29-.13-.03-.25-.07-.38-.09-.25-.05-.54-.09-.83-.13-.12-.01-.24-.04-.37-.05-.38-.04-.79-.05-1.22-.04-.04,0-.08,0-.12,0,0,0,0,0,0,0-.51,.02-1.04,.07-1.59,.17-.52,.1-.99,.23-1.41,.38-.16,.05-.32,.13-.48,.19-.55,.22-1.02,.45-1.3,.59-.34,.2-.7,.43-1.06,.69-.06,.04-.12,.1-.18,.14-.34,.25-.68,.54-1.03,.87,0,0,0,0-.01,.01,0,0-.02,.03-.03,.03-.54,.51-1.08,1.13-1.61,1.87-.11,.15-.21,.3-.31,.45-.11,.16-.22,.33-.32,.51-.05,.08-.1,.15-.15,.23-.02,.04-.05,.09-.07,.13-.51,.87-1.01,1.89-1.49,3.07-.04,.11-.09,.21-.13,.32-.09,.23-.17,.47-.26,.71-.08,.23-.17,.46-.25,.71-.07,.21-.14,.43-.21,.65-.09,.29-.18,.57-.27,.89-.08,.28-.16,.58-.24,.87-.07,.27-.15,.53-.22,.83-.15,.61-.3,1.25-.45,1.93-.13,.61-.25,1.24-.37,1.89-.04,.2-.07,.41-.11,.61-.08,.45-.15,.9-.23,1.37-.04,.25-.08,.49-.12,.74-.06,.43-.13,.88-.19,1.33-.09,.69-.18,1.39-.26,2.09-.02,.19-.05,.38-.07,.57-.06,.55-.12,1.11-.17,1.67-.01,.13-.03,.27-.04,.4-.06,.6-.11,1.21-.16,1.81,0,.1-.02,.21-.03,.31-.05,.64-.1,1.28-.15,1.92,0,.1-.01,.21-.02,.31-.04,.63-.08,1.26-.12,1.9-.01,.21-.02,.42-.04,.63-.03,.5-.06,1.01-.08,1.51-.03,.51-.05,1.03-.07,1.55,0,.15-.01,.3-.02,.46-.19,4.53-.3,9.59-.32,15.25-.09,31.88,7.83,45.78,7.78,63.8,0,1.97,0,4.56-.15,7.37,0,0,0,0,0,0,0,.01,0,.02,0,.03-.09,1.67-.24,3.43-.48,5.22-.25,1.85-.54,3.25-.82,4.36-.18,.72-.36,1.31-.54,1.79" style="fill:none; stroke:#231f20; stroke-width:5px;"/><ellipse cx="64.95" cy="22.2" rx="5.11" ry="9.69" transform="translate(-1.94 6.82) rotate(-5.92)" style="fill:none; stroke:#231f20; stroke-width:5px;"/><path id="uuid-80f9570a-7d16-4fe2-b861-7890e81a78e1" d="M4.43,166.64l16.08,9.28c4.57,2.64,11.99,2.64,16.56,0l74.95-43.27" style="fill:none; stroke:#231f20; stroke-width:5px;"/></g><g><path id="uuid-77550eef-1701-4d73-ac0d-95f4e898ce2e" d="M8.32,184.88c0,1.73,1.14,3.47,3.43,4.79l4.84,2.79c4.57,2.64,11.99,2.64,16.56,0l74.95-43.27c2.28-1.32,3.43-3.04,3.43-4.77v76.21c0,1.73-1.15,3.45-3.43,4.77l-74.95,43.27c-4.57,2.64-11.99,2.64-16.56,0l-4.84-2.79c-2.29-1.32-3.43-3.06-3.43-4.79v-76.21Z" style="fill:#fff; stroke:#0f1011; stroke-linecap:round; stroke-linejoin:round; stroke-width:2px;"/><path id="uuid-43c7a331-ce0e-4218-83aa-7070be30fa7a" d="M8.32,184.88c0-1.73,1.15-3.45,3.43-4.77l74.95-43.27c4.57-2.64-.1-9.62,4.47-6.98l16.93,9.77c2.29,1.32,3.43,3.06,3.43,4.79s-1.15,3.45-3.43,4.77l-74.95,43.27c-4.57,2.64-11.99,2.64-16.56,0l-4.84-2.79c-2.29-1.32-3.43-3.06-3.43-4.79Z" style="fill:none; stroke:#0f1011; stroke-linecap:round; stroke-linejoin:round; stroke-width:2px;"/><path id="uuid-09130074-1263-4be9-a12e-cbbfd6c13844" d="M115.45,127.88c0-1.73-1.14-3.47-3.43-4.79l-16.08-9.28c-4.57-2.64-11.99-2.64-16.56,0L4.43,157.08c-2.28,1.32-3.43,3.04-3.43,4.77v26.19c0,1.73,1.14,3.47,3.43,4.79l16.08,9.28c4.57,2.64,11.99,2.64,16.56,0l74.95-43.27c2.28-1.32,3.43-3.04,3.43-4.77v-26.19Z" style="fill:#fff; stroke:#0f1011; stroke-linecap:round; stroke-linejoin:round; stroke-width:2px;"/><line x1="35.5" y1="216.1" x2="35.5" y2="266.29" style="fill:none; stroke:#0f1011; stroke-linecap:round; stroke-linejoin:round;"/><line x1="45.26" y1="210.46" x2="45.26" y2="260.66" style="fill:none; stroke:#0f1011; stroke-linecap:round; stroke-linejoin:round;"/><line x1="55.02" y1="204.83" x2="55.02" y2="255.03" style="fill:none; stroke:#0f1011; stroke-linecap:round; stroke-linejoin:round;"/><line x1="64.77" y1="199.2" x2="64.77" y2="249.4" style="fill:none; stroke:#0f1011; stroke-linecap:round; stroke-linejoin:round;"/><line x1="74.53" y1="193.57" x2="74.53" y2="243.76" style="fill:none; stroke:#0f1011; stroke-linecap:round; stroke-linejoin:round;"/><line x1="84.28" y1="187.93" x2="84.28" y2="238.13" style="fill:none; stroke:#0f1011; stroke-linecap:round; stroke-linejoin:round;"/><line x1="94.04" y1="182.3" x2="94.04" y2="232.5" style="fill:none; stroke:#0f1011; stroke-linecap:round; stroke-linejoin:round;"/><line x1="103.79" y1="176.67" x2="103.79" y2="226.87" style="fill:none; stroke:#0f1011; stroke-linecap:round; stroke-linejoin:round;"/><path d="M48.24,136.14c-.41,.19-.85,.35-1.23,.56-.4,.22-.77,.46-1.12,.7-.12,.08-.21,.16-.32,.25-.22,.16-.45,.33-.65,.5-.12,.1-.22,.21-.34,.32-.17,.15-.34,.31-.49,.47-.11,.12-.2,.24-.29,.35-.13,.15-.27,.31-.38,.46-.09,.12-.16,.25-.24,.38-.1,.16-.21,.31-.29,.47-.07,.13-.12,.26-.18,.39-.07,.16-.15,.32-.21,.48-.05,.14-.08,.27-.11,.41-.04,.16-.09,.31-.12,.47-.02,.14-.03,.28-.04,.42-.02,.16-.04,.32-.04,.47,0,.02,0,.04,0,.06,0,.14,.02,.27,.03,.41,0,.14,.01,.27,.03,.41,.02,.16,.07,.31,.1,.47,.03,.14,.06,.27,.1,.41,.05,.16,.12,.31,.18,.47,.05,.13,.1,.26,.16,.39,.08,.16,.18,.31,.27,.46,.07,.13,.14,.25,.22,.38,.11,.16,.23,.31,.35,.46,.09,.12,.18,.24,.28,.36,.14,.16,.3,.31,.46,.46,.11,.11,.21,.22,.32,.32,.18,.17,.39,.32,.6,.48,.11,.09,.21,.18,.33,.26,.33,.24,.69,.48,1.07,.7,6.13,3.66,16.2,3.76,22.5,.23,.4-.22,.77-.46,1.12-.69,.12-.08,.22-.17,.34-.26,.22-.16,.44-.32,.63-.49,.12-.1,.22-.21,.34-.32,.17-.15,.34-.31,.49-.47,.11-.11,.19-.23,.29-.35,.13-.16,.27-.31,.38-.47,.09-.12,.16-.25,.24-.37,.1-.16,.21-.31,.29-.47,.07-.13,.12-.26,.18-.39,.07-.16,.15-.32,.21-.48,.05-.13,.07-.27,.11-.4,.04-.16,.09-.32,.12-.48,.02-.14,.03-.28,.04-.41,.02-.16,.04-.32,.04-.48,0-.02,0-.04,0-.06,0-.14-.02-.27-.03-.41,0-.14-.01-.27-.03-.41-.02-.16-.07-.31-.1-.46-.03-.14-.06-.27-.1-.41-.05-.16-.12-.31-.18-.47-.05-.13-.1-.26-.16-.39-.08-.16-.18-.31-.27-.46-.07-.13-.14-.25-.22-.38-.11-.16-.24-.31-.36-.46-.09-.12-.17-.24-.28-.35-.14-.16-.3-.31-.46-.47-.11-.11-.2-.21-.32-.32-.19-.17-.4-.33-.61-.5-.11-.08-.2-.17-.31-.25-.33-.24-.69-.48-1.07-.71-.47-.28-1.01-.5-1.52-.74" style="fill:#fff; stroke:#0f1011; stroke-linecap:round; stroke-linejoin:round;"/><path d="M67.98,136.19s0-.02-.01-.04c-.03-.09-.06-.2-.1-.3-.09-.27-.17-.55-.26-.88-.02-.07-.04-.13-.05-.2-.05-.2-.12-.45-.19-.77-.06-.26-.12-.52-.18-.81-.02-.08-.03-.17-.05-.26-.08-.41-.16-.85-.24-1.33,0,0,0,0,0,0-.08-.51-.16-1.06-.24-1.65-.06-.44-.1-.89-.15-1.33-.01-.13-.03-.26-.04-.39-.05-.49-.09-.98-.12-1.47,0-.1-.02-.21-.02-.31-.03-.45-.06-.89-.08-1.32,0-.14-.02-.29-.02-.43-.02-.48-.04-.95-.06-1.41,0-.07,0-.14,0-.21-.06-2.15-.05-4.1-.04-5.65,.05-18.02,8.05-31.87,8.14-63.75,.01-3.84-.02-7.21-.08-10.16-.02-1.2-.05-2.41-.09-3.65,0-.08,0-.15,0-.23,0-.27-.02-.55-.03-.83-.2-5.68-.49-9.18-.65-10.8-.06-.62-.14-1.38-.23-2.2-.05-.49-.1-.97-.15-1.47-.14-1.31-.37-2.86-.6-4.17-.05-.29-.1-.58-.15-.87-.13-.74-.24-1.34-.31-1.67-.37-1.84-.82-3.67-1.38-5.35,0,0,0,0,0-.01-.14-.48-.35-1.04-.57-1.58-.02-.06-.04-.12-.06-.17-.04-.11-.08-.2-.13-.3-.05-.12-.1-.26-.15-.37-.33-.82-.72-1.58-1.1-2.25-.06-.1-.12-.2-.18-.3-.07-.13-.15-.25-.22-.37,0,0,0-.01-.01-.02-.45-.73-.87-1.3-1.15-1.62-.02-.02-.04-.04-.06-.07-.02-.03-.04-.05-.06-.08-.25-.31-.6-.68-.99-1.05-.12-.12-.25-.23-.37-.35-.07-.06-.13-.12-.2-.18-.24-.21-.51-.41-.8-.61-.11-.08-.21-.15-.32-.22-.25-.16-.52-.32-.81-.48-.06-.03-.11-.07-.16-.1-.07-.03-.14-.06-.21-.09-.12-.06-.24-.12-.37-.18-.13-.06-.38-.16-.68-.26,0,0,0,0,0,0-.27-.1-.6-.19-.99-.29-.13-.03-.25-.07-.38-.09-.25-.05-.54-.09-.83-.13-.12-.01-.24-.04-.37-.05-.38-.04-.79-.05-1.22-.04-.04,0-.08,0-.12,0,0,0,0,0,0,0-.51,.02-1.04,.07-1.59,.17-.52,.1-.99,.23-1.41,.38-.16,.05-.32,.13-.48,.19-.55,.22-1.02,.45-1.3,.59-.34,.2-.7,.43-1.06,.69-.06,.04-.12,.1-.18,.14-.34,.25-.68,.54-1.03,.87,0,0,0,0-.01,.01,0,0-.02,.03-.03,.03-.54,.51-1.08,1.13-1.61,1.87-.11,.15-.21,.3-.31,.45-.11,.16-.22,.33-.32,.51-.05,.08-.1,.15-.15,.23-.02,.04-.05,.09-.07,.13-.51,.87-1.01,1.89-1.49,3.07-.04,.11-.09,.21-.13,.32-.09,.23-.17,.47-.26,.71-.08,.23-.17,.46-.25,.71-.07,.21-.14,.43-.21,.65-.09,.29-.18,.57-.27,.89-.08,.28-.16,.58-.24,.87-.07,.27-.15,.53-.22,.83-.15,.61-.3,1.25-.45,1.93-.13,.61-.25,1.24-.37,1.89-.04,.2-.07,.41-.11,.61-.08,.45-.15,.9-.23,1.37-.04,.25-.08,.49-.12,.74-.06,.43-.13,.88-.19,1.33-.09,.69-.18,1.39-.26,2.09-.02,.19-.05,.38-.07,.57-.06,.55-.12,1.11-.17,1.67-.01,.13-.03,.27-.04,.4-.06,.6-.11,1.21-.16,1.81,0,.1-.02,.21-.03,.31-.05,.64-.1,1.28-.15,1.92,0,.1-.01,.21-.02,.31-.04,.63-.08,1.26-.12,1.9-.01,.21-.02,.42-.04,.63-.03,.5-.06,1.01-.08,1.51-.03,.51-.05,1.03-.07,1.55,0,.15-.01,.3-.02,.46-.19,4.53-.3,9.59-.32,15.25-.09,31.88,7.83,45.78,7.78,63.8,0,1.97,0,4.56-.15,7.37,0,0,0,0,0,0,0,.01,0,.02,0,.03-.09,1.67-.24,3.43-.48,5.22-.25,1.85-.54,3.25-.82,4.36-.18,.72-.36,1.31-.54,1.79" style="fill:#fff; stroke:#0f1011; stroke-linecap:round; stroke-linejoin:round; stroke-width:2px;"/><ellipse cx="64.95" cy="22.2" rx="5.11" ry="9.69" transform="translate(-1.94 6.82) rotate(-5.92)" style="fill:#fff; stroke:#0f1011; stroke-linecap:round; stroke-linejoin:round;"/><path id="uuid-6518ff78-6a50-4d8f-a200-f2ac7e8cc1f5" d="M4.43,166.64l16.08,9.28c4.57,2.64,11.99,2.64,16.56,0l74.95-43.27" style="fill:none; stroke:#0f1011; stroke-linecap:round; stroke-linejoin:round;"/></g></g></g></svg>