<?xml version="1.0" encoding="UTF-8"?><svg id="uuid-db2473f7-394e-4679-bd04-28a560c2b028" xmlns="http://www.w3.org/2000/svg" viewBox="0 0 168.39 127.12"><g id="uuid-14190b0c-0e13-47b3-a020-0b96ed719a02"><g><g><path d="M78.96,89.99v25.82S29.92,68.89,21.02,63.73c-7.52-4.33-13.34-6.65-14.28-.13-.56,3.79-6.24,2.06-6.24-4.51,0-14.71,16.42-4.92,43.13,10.51,8.71,5.03,17.85,10.31,24.65,14.23h.02c6.35,3.66,10.66,6.15,10.66,6.15Z" style="fill:none; stroke:#231f20; stroke-linecap:round; stroke-linejoin:round; stroke-width:5px;"/><path d="M78.96,89.99v25.82S29.92,68.89,21.02,63.73c-7.52-4.33-13.34-6.65-14.28-.13-.56,3.79-6.24,2.06-6.24-4.51,0-14.71,16.42-4.92,43.13,10.51,8.71,5.03,17.85,10.31,24.65,14.23h.02c6.35,3.66,10.66,6.15,10.66,6.15Z" style="fill:none; stroke:#231f20; stroke-linecap:round; stroke-linejoin:round; stroke-width:5px;"/><path d="M159.99,34.07c-2.14,5.2-5.35,9.9-9.27,14.15-15.06-14.08-35.33-32.69-40.75-35.83-7.54-4.33-13.37-6.65-14.3-.15-.54,3.81-6.24,2.08-6.24-4.48,0-14.71,16.44-4.92,43.13,10.49,9.99,5.76,20.49,11.83,27.43,15.84Z" style="fill:none; stroke:#231f20; stroke-linecap:round; stroke-linejoin:round; stroke-width:5px;"/><path d="M167.89,38.64v23.89c0,12.72-3.68,22.29-7.15,27.45-4.22,6.33-10.05,8.38-13.65,2.43-3.57-5.98-4.9-11.05-8.56-8.47-3.68,2.56-5.83,14.15-9.06,22.88-3.21,8.73-7.71,14.97-26.08,18.74-18.37,3.77-24.44-3.23-24.44-9.75v-25.82c16.16-2.84,77.38-30.5,88.93-51.34Z" style="fill:none; stroke:#231f20; stroke-linecap:round; stroke-linejoin:round; stroke-width:5px;"/><path d="M167.89,38.64c-11.55,20.84-72.77,48.5-88.93,51.34,0,0-4.31-2.49-10.66-6.15,1.45-.22,57.1-8.34,82.41-35.61,3.92-4.25,7.13-8.95,9.27-14.15,4.81,2.77,7.91,4.57,7.91,4.57Z" style="fill:none; stroke:#231f20; stroke-linecap:round; stroke-linejoin:round; stroke-width:5px;"/><path d="M68.31,83.83h-.02" style="fill:none; stroke:#231f20; stroke-linecap:round; stroke-linejoin:round; stroke-width:5px;"/></g><g><path d="M78.96,89.99v25.82S29.92,68.89,21.02,63.73c-7.52-4.33-13.34-6.65-14.28-.13-.56,3.79-6.24,2.06-6.24-4.51,0-14.71,16.42-4.92,43.13,10.51,8.71,5.03,17.85,10.31,24.65,14.23h.02c6.35,3.66,10.66,6.15,10.66,6.15Z" style="fill:#fff; stroke:#231f20; stroke-linecap:round; stroke-linejoin:round;"/><path d="M78.96,89.99v25.82S29.92,68.89,21.02,63.73c-7.52-4.33-13.34-6.65-14.28-.13-.56,3.79-6.24,2.06-6.24-4.51,0-14.71,16.42-4.92,43.13,10.51,8.71,5.03,17.85,10.31,24.65,14.23h.02c6.35,3.66,10.66,6.15,10.66,6.15Z" style="fill:#fff; stroke:#231f20; stroke-linecap:round; stroke-linejoin:round;"/><path d="M159.99,34.07c-2.14,5.2-5.35,9.9-9.27,14.15-15.06-14.08-35.33-32.69-40.75-35.83-7.54-4.33-13.37-6.65-14.3-.15-.54,3.81-6.24,2.08-6.24-4.48,0-14.71,16.44-4.92,43.13,10.49,9.99,5.76,20.49,11.83,27.43,15.84Z" style="fill:#fff; stroke:#231f20; stroke-linecap:round; stroke-linejoin:round;"/><path d="M167.89,38.64v23.89c0,12.72-3.68,22.29-7.15,27.45-4.22,6.33-10.05,8.38-13.65,2.43-3.57-5.98-4.9-11.05-8.56-8.47-3.68,2.56-5.83,14.15-9.06,22.88-3.21,8.73-7.71,14.97-26.08,18.74-18.37,3.77-24.44-3.23-24.44-9.75v-25.82c16.16-2.84,77.38-30.5,88.93-51.34Z" style="fill:#fff; stroke:#231f20; stroke-linecap:round; stroke-linejoin:round;"/><path d="M167.89,38.64c-11.55,20.84-72.77,48.5-88.93,51.34,0,0-4.31-2.49-10.66-6.15,1.45-.22,57.1-8.34,82.41-35.61,3.92-4.25,7.13-8.95,9.27-14.15,4.81,2.77,7.91,4.57,7.91,4.57Z" style="fill:#fff; stroke:#231f20; stroke-linecap:round; stroke-linejoin:round;"/><path d="M68.31,83.83h-.02" style="fill:none; stroke:#231f20; stroke-linecap:round; stroke-linejoin:round;"/></g></g><path d="M99.74,120.24c18.37-3.77,24.06-9.66,26.08-18.74,2.26-10.15,1.25-25.02,4.93-27.57,3.66-2.58,9.11,7.19,12.68,13.17,3.6,5.96,10,4.25,13.65-2.43,2.37-4.34,4.2-11.42,4.2-31.35" style="fill:none; stroke:#231f20; stroke-linecap:round; stroke-linejoin:round;"/></g></svg>