<?xml version="1.0" encoding="UTF-8"?><svg id="uuid-36ccf9c5-f913-4c8f-8a17-e5c21ad7cf40" xmlns="http://www.w3.org/2000/svg" viewBox="0 0 225.71 128.1"><g id="uuid-5fe9333c-fd80-49ed-8bfc-8a1c5f1bb368"><g><g><path d="M139.98,30.43l-53.9,31.12c-2.73,1.58-4.41,4.49-4.41,7.63L31.82,40.41c-1.32-.77-1.98-1.77-1.98-2.78v-5.09c0-1,.67-2.01,1.98-2.77L80.53,1.64c2.65-1.53,6.95-1.53,9.6,0l49.84,28.78Z" style="fill:none; stroke:#231f20; stroke-width:5px;"/><path d="M188.79,58.61l-14.54,8.4-14.55,8.4-14.54,8.39-7.75,4.35,.21,3.01c0,1.34-.78,2.67-2.31,3.74-.21,.17-.44,.31-.69,.47-.44,.25-.93,.48-1.45,.69-.73,.29-1.51,.52-2.31,.68-4.29,.91-9.28,.08-11.99-2.21l-37.21-25.37c0-3.14,1.68-6.05,4.41-7.63l53.9-31.12,48.81,28.18Z" style="fill:none; stroke:#231f20; stroke-width:5px;"/><path d="M225.21,82.1v5.09c0,1.53-1,3.04-3.01,4.2-1.02,.59-2.19,1.03-3.46,1.32l-11.09-6.41-33.39-19.29,14.54-8.4h.01l33.39,19.29c2.01,1.16,3.01,2.69,3.01,4.2Z" style="fill:none; stroke:#231f20; stroke-width:5px;"/><path d="M222.02,97.07v5.09c0,1.51-1,3.04-3.01,4.2-1.79,1.03-4.08,1.6-6.43,1.71-.14-1.4-1.14-2.78-2.97-3.85l-5.13-2.96-44.77-25.84,14.55-8.4,33.39,19.29,11.09,6.41,.27,.16c2.01,1.16,3.01,2.67,3.01,4.2Z" style="fill:none; stroke:#231f20; stroke-width:5px;"/><path d="M212.6,108.42v5.09c0,1.53-1,3.04-3,4.2-4.02,2.32-10.53,2.32-14.55,0l-2.11-1.23v-2.62c0-1.53-1-3.04-3.01-4.2l-44.76-25.85,14.54-8.39,44.77,25.84,5.13,2.96c1.84,1.07,2.83,2.45,2.97,3.85,.03,.12,.03,.23,.03,.35Z" style="fill:none; stroke:#231f20; stroke-width:5px;"/><path d="M192.94,113.86v5.1c0,1.51-1.02,3.03-3.01,4.18-4.02,2.32-10.52,2.32-14.54,0l-44.52-26.38c.8-.16,1.58-.39,2.31-.68,.52-.21,1-.44,1.45-.69,.25-.16,.48-.3,.69-.47,1.53-1.07,2.31-2.4,2.31-3.74,0-1.25-.07-2.14-.21-3.01l7.75-4.35,44.76,25.85c2.01,1.16,3.01,2.67,3.01,4.2Z" style="fill:none; stroke:#231f20; stroke-width:5px;"/><path d="M137.63,91.17l-.21-3.01c.14,.87,.21,1.76,.21,3.01Z" style="fill:none; stroke:#231f20; stroke-width:5px;"/><path id="uuid-9c36e85f-8023-479f-abfe-091fa11a36f5" d="M112.74,64.71l23.08,19.38c.26,.21,1.15,1.26,1.57,3.9" style="fill:none; stroke:#231f20; stroke-width:5px;"/><line id="uuid-f6c2e506-4a98-4af9-af8b-2c72d3c9fbcc" x1="135.32" y1="94.92" x2="175.38" y2="118.05" style="fill:none; stroke:#231f20; stroke-width:5px;"/><line id="uuid-ff99a691-d8eb-4e3b-9edb-fa13ccebba95" x1="175.38" y1="118.05" x2="135.32" y2="94.92" style="fill:none; stroke:#231f20; stroke-width:5px;"/><path d="M91.15,69.19s27.83,20.11,28.11,20.11" style="fill:none; stroke:#231f20; stroke-width:5px;"/></g><g><path d="M139.98,30.43l-53.9,31.12c-2.73,1.58-4.41,4.49-4.41,7.63L31.82,40.41c-1.32-.77-1.98-1.77-1.98-2.78v-5.09c0-1,.67-2.01,1.98-2.77L80.53,1.64c2.65-1.53,6.95-1.53,9.6,0l49.84,28.78Z" style="fill:#fff; stroke:#231f20; stroke-linecap:round; stroke-linejoin:round;"/><path d="M188.79,58.61l-14.54,8.4-14.55,8.4-14.54,8.39-7.75,4.35,.21,3.01c0,1.34-.78,2.67-2.31,3.74-.21,.17-.44,.31-.69,.47-.44,.25-.93,.48-1.45,.69-.73,.29-1.51,.52-2.31,.68-4.29,.91-9.28,.08-11.99-2.21l-37.21-25.37c0-3.14,1.68-6.05,4.41-7.63l53.9-31.12,48.81,28.18Z" style="fill:#fff; stroke:#231f20; stroke-linecap:round; stroke-linejoin:round;"/><path d="M225.21,82.1v5.09c0,1.53-1,3.04-3.01,4.2-1.02,.59-2.19,1.03-3.46,1.32l-11.09-6.41-33.39-19.29,14.54-8.4h.01l33.39,19.29c2.01,1.16,3.01,2.69,3.01,4.2Z" style="fill:#fff; stroke:#231f20; stroke-linecap:round; stroke-linejoin:round;"/><path d="M222.02,97.07v5.09c0,1.51-1,3.04-3.01,4.2-1.79,1.03-4.08,1.6-6.43,1.71-.14-1.4-1.14-2.78-2.97-3.85l-5.13-2.96-44.77-25.84,14.55-8.4,33.39,19.29,11.09,6.41,.27,.16c2.01,1.16,3.01,2.67,3.01,4.2Z" style="fill:#fff; stroke:#231f20; stroke-linecap:round; stroke-linejoin:round;"/><path d="M212.6,108.42v5.09c0,1.53-1,3.04-3,4.2-4.02,2.32-10.53,2.32-14.55,0l-2.11-1.23v-2.62c0-1.53-1-3.04-3.01-4.2l-44.76-25.85,14.54-8.39,44.77,25.84,5.13,2.96c1.84,1.07,2.83,2.45,2.97,3.85,.03,.12,.03,.23,.03,.35Z" style="fill:#fff; stroke:#231f20; stroke-linecap:round; stroke-linejoin:round;"/><path d="M192.94,113.86v5.1c0,1.51-1.02,3.03-3.01,4.18-4.02,2.32-10.52,2.32-14.54,0l-44.52-26.38c.8-.16,1.58-.39,2.31-.68,.52-.21,1-.44,1.45-.69,.25-.16,.48-.3,.69-.47,1.53-1.07,2.31-2.4,2.31-3.74,0-1.25-.07-2.14-.21-3.01l7.75-4.35,44.76,25.85c2.01,1.16,3.01,2.67,3.01,4.2Z" style="fill:#fff; stroke:#231f20; stroke-linecap:round; stroke-linejoin:round;"/><path d="M137.63,91.17l-.21-3.01c.14,.87,.21,1.76,.21,3.01Z" style="fill:#fff; stroke:#231f20; stroke-linecap:round; stroke-linejoin:round;"/><path id="uuid-91281fa6-8dcc-4ddc-bcd7-81c96680e11a" d="M112.74,64.71l23.08,19.38c.26,.21,1.15,1.26,1.57,3.9" style="fill:#fff; stroke:#231f20; stroke-linecap:round; stroke-linejoin:round;"/><line id="uuid-41c37548-c29f-4fdf-945e-7506d006fc51" x1="135.32" y1="94.92" x2="175.38" y2="118.05" style="fill:none; stroke:#231f20; stroke-linecap:round; stroke-linejoin:round;"/><line id="uuid-1b817ff1-df7b-4bf8-8021-cef3d9f0786c" x1="175.38" y1="118.05" x2="135.32" y2="94.92" style="fill:#fff; stroke:#231f20; stroke-linecap:round; stroke-linejoin:round;"/><path d="M91.15,69.19s27.83,20.11,28.11,20.11" style="fill:#fff; stroke:#231f20; stroke-linecap:round; stroke-linejoin:round;"/></g></g><g><g><g id="uuid-8f34b5b9-322d-437d-b08d-61fadb82ab8c"><g id="uuid-d0f76f15-561f-4860-bf79-c2239f200168"><path d="M110.63,32.81l-54.76,31.62c-2.19,1.27-3.54,3.6-3.54,6.12v1.36L2.48,43.12c-1.33-.77-1.98-1.77-1.98-2.78v-5.43c0-.99,.67-2,1.98-2.75L51.19,4.02c2.65-1.53,6.94-1.53,9.6,0l49.83,28.78Z" style="fill:none; stroke:#231f20; stroke-width:5px;"/></g></g><g id="uuid-1661d159-d745-4d99-a482-236818b51755"><g id="uuid-bfb0d79c-90eb-4771-8b6d-93a056908ac9"><path d="M195.87,84.48v5.43c0,1.51-1,3.04-3.01,4.2-.94,.53-2.34,.67-3.47,.95l.29,.17c2.01,1.16,3.01,2.69,3.01,4.21v5.43c0,1.53-1.02,3.04-3.01,4.19-1.79,1.03-4.07,1.61-6.41,1.72v5.43c0,1.53-1,3.05-3.01,4.21-4.01,2.31-10.53,2.31-14.54,0l-2.13-1.16v2.39c0,1.53-.99,3.04-3,4.2-4.02,2.32-10.52,2.32-14.55,0l-40.05-23.12-47.34-25.65-6.33-5.18v-1.36c0-2.52,1.34-4.85,3.54-6.12l54.76-31.62,48.83,28.18,33.4,19.29c2.01,1.16,3.01,2.67,3.01,4.2Z" style="fill:none; stroke:#231f20; stroke-width:5px;"/></g><g id="uuid-bcbb26dd-62f7-4935-a3a5-6325191e91a0"><path id="uuid-f94ae5d1-225f-444b-8166-84bd13a14c26" d="M188.57,90.17c-3.51,.61-7.47,.11-10.24-1.49l-33.4-19.29" style="fill:none; stroke:#231f20; stroke-width:5px;"/></g></g><g id="uuid-2450a6d9-a5d8-4578-a51f-8113d25ed4d1"><g id="uuid-a58fa86f-e8ae-4357-89f1-ea55ef06d60a"><path d="M106,102.73c-.21,.16-.46,.3-.7,.44-.44,.26-.93,.5-1.46,.7-4.67,1.85-11.07,1.17-14.29-1.53l-30.89-25.27,8.99,5.15,38.35,20.5Z" style="fill:none; stroke:#231f20; stroke-width:5px;"/></g></g><g id="uuid-3eaeda3b-17e4-434c-a68e-62a8a3634e0c"><g id="uuid-81bd9230-113a-49af-9b3c-2ad27c36e8de"><polyline points="144.92 69.4 178.32 88.68 189.39 95.06" style="fill:none; stroke:#231f20; stroke-width:5px;"/></g><g id="uuid-27f222e2-8fdc-482c-a076-6e205fcc25f2"><path id="uuid-dc81fdf3-3ba3-419a-8291-f395cf156405" d="M130.38,77.79l44.76,25.84c2.87,1.65,6.99,2.13,10.57,1.43" style="fill:none; stroke:#231f20; stroke-width:5px;"/></g></g><g id="uuid-82afdb43-94bd-49a7-be41-4224a846e7db"><g id="uuid-24a6490c-ecf2-41fa-81a7-47fefc7760ad"><path d="M183.27,110.79c0-1.53-1-3.04-3-4.19l-5.13-2.96-44.76-25.85" style="fill:none; stroke:#231f20; stroke-width:5px;"/></g><g id="uuid-be7307a9-838f-4e53-8c40-8c1872d5e433"><path id="uuid-f490ffe9-196c-4468-a084-b8168488aea6" d="M169.12,116.3c-1.24-.29-2.4-.72-3.4-1.3l-5.13-2.96-44.76-25.84" style="fill:none; stroke:#231f20; stroke-width:5px;"/></g></g><g id="uuid-be892c89-6e2d-4421-bca7-d16a258d47e4"><g id="uuid-dfe6c4e8-dc08-4f55-b06f-163b30fa9a62"><path d="M163.59,119.27v-3.04c0-1.53-1-3.04-3-4.19l-44.76-25.85" style="fill:none; stroke:#231f20; stroke-width:5px;"/></g><g id="uuid-cbbb404a-fba0-4591-b403-718f22e8d7b1"><line x1="163.59" y1="119.27" x2="163.59" y2="116.23" style="fill:none; stroke:#231f20; stroke-width:5px;"/><path id="uuid-1e8daf34-4fdb-45b6-8fdd-9bb1ca5106be" d="M152.1,122.13c-2.21-.15-4.35-.72-6.05-1.7l-40.05-23.13" style="fill:none; stroke:#231f20; stroke-width:5px;"/></g></g></g><g><g id="uuid-e7707a09-6fb7-4590-bac6-bf9cb4e0c291"><g id="uuid-11c8d5ce-3e1b-40d7-a546-ddfbfb7d905c"><path d="M110.63,32.81l-54.76,31.62c-2.19,1.27-3.54,3.6-3.54,6.12v1.36L2.48,43.12c-1.33-.77-1.98-1.77-1.98-2.78v-5.43c0-.99,.67-2,1.98-2.75L51.19,4.02c2.65-1.53,6.94-1.53,9.6,0l49.83,28.78Z" style="fill:#fff; stroke:#231f20; stroke-linecap:round; stroke-linejoin:round;"/></g></g><g id="uuid-85f8e5cb-a90e-4594-ba40-cf2c6227200d"><g id="uuid-b73b9423-41bc-422e-b308-9cfdda8b05d2"><path d="M195.87,84.48v5.43c0,1.51-1,3.04-3.01,4.2-.94,.53-2.34,.67-3.47,.95l.29,.17c2.01,1.16,3.01,2.69,3.01,4.21v5.43c0,1.53-1.02,3.04-3.01,4.19-1.79,1.03-4.07,1.61-6.41,1.72v5.43c0,1.53-1,3.05-3.01,4.21-4.01,2.31-10.53,2.31-14.54,0l-2.13-1.16v2.39c0,1.53-.99,3.04-3,4.2-4.02,2.32-10.52,2.32-14.55,0l-40.05-23.12-47.34-25.65-6.33-5.18v-1.36c0-2.52,1.34-4.85,3.54-6.12l54.76-31.62,48.83,28.18,33.4,19.29c2.01,1.16,3.01,2.67,3.01,4.2Z" style="fill:#fff; stroke:#231f20; stroke-linecap:round; stroke-linejoin:round;"/></g><g id="uuid-9fc466ae-dece-4286-bc51-82d69545b846"><path id="uuid-006ee35d-c1ce-44ac-848a-3e227c35caf6" d="M188.57,90.17c-3.51,.61-7.47,.11-10.24-1.49l-33.4-19.29" style="fill:#fff; stroke:#231f20; stroke-linecap:round; stroke-linejoin:round;"/></g></g><g id="uuid-9867fcb6-9cd3-4b39-be59-a4fb4b85a5c7"><g id="uuid-f1da8881-e9b7-467d-902c-7b8be2ef4ca0"><path d="M106,102.73c-.21,.16-.46,.3-.7,.44-.44,.26-.93,.5-1.46,.7-4.67,1.85-11.07,1.17-14.29-1.53l-30.89-25.27,8.99,5.15,38.35,20.5Z" style="fill:#fff; stroke:#231f20; stroke-linecap:round; stroke-linejoin:round;"/></g></g><g id="uuid-c6ec1c96-8d30-4af9-9713-60800b906680"><g id="uuid-d91362df-e186-4e34-a07f-93b0ceab097f"><polyline points="144.92 69.4 178.32 88.68 189.39 95.06" style="fill:none; stroke:#231f20; stroke-linecap:round; stroke-linejoin:round;"/></g><g id="uuid-211baf4b-7ce5-4cab-bc6d-cb0ea5003ca7"><path id="uuid-dcf77980-dcb1-47af-944c-810588ba6b1a" d="M130.38,77.79l44.76,25.84c2.87,1.65,6.99,2.13,10.57,1.43" style="fill:none; stroke:#231f20; stroke-linecap:round; stroke-linejoin:round;"/></g></g><g id="uuid-151cc7a4-9489-4a9e-a188-3abb6a7a94e1"><g id="uuid-060f3c11-f37c-4298-96fc-748fa9b8d7ac"><path d="M183.27,110.79c0-1.53-1-3.04-3-4.19l-5.13-2.96-44.76-25.85" style="fill:none; stroke:#231f20; stroke-linecap:round; stroke-linejoin:round;"/></g><g id="uuid-0e7e8f8a-1e38-4fef-b79f-11efc8de044b"><path id="uuid-165fe330-c2d1-4226-bf23-5499476e3e46" d="M169.12,116.3c-1.24-.29-2.4-.72-3.4-1.3l-5.13-2.96-44.76-25.84" style="fill:none; stroke:#231f20; stroke-linecap:round; stroke-linejoin:round;"/></g></g><g id="uuid-0811e8ff-d416-4071-955c-6ea0583d609e"><g id="uuid-5bc1596a-264d-4947-a92d-e850c9f4eb77"><path d="M163.59,119.27v-3.04c0-1.53-1-3.04-3-4.19l-44.76-25.85" style="fill:none; stroke:#231f20; stroke-linecap:round; stroke-linejoin:round;"/></g><g id="uuid-4f1fb757-7d9b-44f6-b854-cf03089f2d3b"><line x1="163.59" y1="119.27" x2="163.59" y2="116.23" style="fill:none; stroke:#231f20; stroke-linecap:round; stroke-linejoin:round;"/><path id="uuid-31fe288f-2a4c-4783-8dfb-fc7b297589fa" d="M152.1,122.13c-2.21-.15-4.35-.72-6.05-1.7l-40.05-23.13" style="fill:none; stroke:#231f20; stroke-linecap:round; stroke-linejoin:round;"/></g></g></g></g></g></svg>