<svg xmlns="http://www.w3.org/2000/svg" xmlns:xlink="http://www.w3.org/1999/xlink" version="1.1" x="0px" y="0px" viewBox="0 0 100 100" style="enable-background:new 0 0 100 100;" xml:space="preserve"><style type="text/css">
	.st0{fill:none;}
</style><g><path d="M50,57.4c-12.6,0-22.8-10.2-22.8-22.8c0-12.6,10.2-22.8,22.8-22.8s22.8,10.2,22.8,22.8C72.8,47.2,62.6,57.4,50,57.4z    M50,14.9c-10.9,0-19.8,8.9-19.8,19.8S39.1,54.4,50,54.4s19.8-8.9,19.8-19.8S60.9,14.9,50,14.9z"></path></g><g><g><path d="M82,91.4H18c-2.1,0-4.1-1-5.3-2.7c-1.2-1.7-1.5-4-0.8-6c4.3-12.1,14.3-21.6,26.7-25.2c0.7-0.2,1.5-0.1,2.2,0.2    c2.9,1.5,6,2.3,9.2,2.3s6.3-0.8,9.2-2.3c0.7-0.4,1.5-0.5,2.2-0.2c12.4,3.6,22.3,13.1,26.7,25.2v0c0.7,2,0.4,4.2-0.8,6    C86.1,90.4,84.2,91.4,82,91.4z M38.5,60.6c-11,3.5-19.9,12.1-23.8,23c-0.3,1-0.3,2,0.2,2.9c0.6,1.2,1.8,1.9,3.1,1.9l63.9,0    c1.1,0,2.5-0.7,3.1-1.6c0.6-0.9,0.8-2.1,0.4-3.1v0c-3.9-11-12.8-19.5-23.8-23.1c-0.6-0.2-1.2-0.1-1.7,0.1    c-6.1,2.9-13.5,2.9-19.6,0C39.7,60.5,39.1,60.5,38.5,60.6z"></path></g></g></svg>