<?xml version="1.0" encoding="UTF-8"?><svg id="uuid-e3584867-063a-4c72-b165-b5e90ef2ad83" xmlns="http://www.w3.org/2000/svg" viewBox="0 0 125.81 506.05"><g id="uuid-a66f29f0-c8ac-4d19-b9c2-1cc914dd034c"><g><g><path id="uuid-270dd77e-7077-4030-9fed-2a1e6f3c3697" d="M91.57,283.69c0-14.44-20.28-31.38-45.29-31.38-25.01,0-45.29,16.94-45.29,31.38v195.21c0,14.44,20.28,26.15,45.29,26.15s45.29-11.71,45.29-26.15v-195.21Z" style="fill:none; stroke:#231f20; stroke-width:5px;"/><path id="uuid-47bf66e9-f25d-4fd3-b4a1-a0dd193bf7e4" d="M21.91,164.58l-5.33-3.08c-1.77-1.02-2.86-3.21-2.86-6.33,0-6.24,4.38-13.82,9.78-16.94,2.7-1.56,5.15-1.71,6.92-.68l5.33,3.08" style="fill:none; stroke:#231f20; stroke-width:5px;"/><path id="uuid-6d33980b-2bc2-4ef5-8d28-b157711069cf" d="M21.91,164.58c-1.77-1.02-2.86-3.21-2.86-6.33,0-6.24,4.38-13.82,9.78-16.94,2.7-1.56,5.15-1.71,6.92-.68" style="fill:none; stroke:#231f20; stroke-width:5px;"/><path id="uuid-c41c26fc-0404-41b9-903a-de75288f8628" d="M35.74,140.63c1.77,1.02,2.86,3.21,2.86,6.33,0,6.24-4.38,13.82-9.78,16.94-2.7,1.56-5.15,1.71-6.92,.68" style="fill:none; stroke:#231f20; stroke-width:5px;"/><path id="uuid-ddc2c390-71f6-49dd-9b5e-67655b1ee4af" d="M26.09,157.35c-.7-.4-1.13-1.27-1.13-2.51,0-2.47,1.74-5.48,3.88-6.71,1.07-.62,2.04-.68,2.74-.27" style="fill:none; stroke:#231f20; stroke-width:5px;"/><path id="uuid-4428c4ec-7a84-45cf-ab87-985ccf5eea2f" d="M31.57,147.86l11.12,6.42c-.7-.41-1.67-.35-2.74,.27-2.14,1.24-3.88,4.24-3.88,6.71,0,1.24,.43,2.1,1.13,2.51l-11.12-6.42" style="fill:none; stroke:#231f20; stroke-width:5px;"/><path id="uuid-330fbf31-8c02-4dac-afaa-3d485c28777e" d="M42.69,154.28c.7,.4,1.13,1.27,1.13,2.51,0,2.47-1.74,5.48-3.88,6.71-1.07,.62-2.04,.68-2.74,.27s-1.13-1.27-1.13-2.51c0-2.47,1.74-5.48,3.88-6.71,1.07-.62,2.04-.68,2.74-.27Z" style="fill:none; stroke:#231f20; stroke-width:5px;"/><path id="uuid-6dfe27bb-66cb-4389-b858-a7b3fc278d22" d="M4.19,293.35c6.66,9.66,22.99,16.49,42.09,16.49,18.57,0,34.52-6.45,41.51-15.68" style="fill:none; stroke:#231f20; stroke-width:5px;"/><path id="uuid-d7042696-d91b-4d95-b077-d19fe2feb649" d="M35.55,251.83c0,3.42,4.81,6.2,10.74,6.2s10.74-2.78,10.74-6.2v11.41c0,3.42-4.81,6.2-10.74,6.2s-10.74-2.78-10.74-6.2v-11.41Z" style="fill:none; stroke:#231f20; stroke-width:5px;"/><ellipse id="uuid-96f2deaa-86f8-43d0-9682-abdd8631df4e" cx="46.29" cy="251.83" rx="10.74" ry="6.2" style="fill:none; stroke:#231f20; stroke-width:5px;"/><path id="uuid-8d219b6c-75ad-4386-84f5-90349411bc04" d="M73.01,226.57v25.39c0,3-2.73,6-8.12,7.68-6.17,1.92-12.88,1-18.47-2.23l-13.96-8.06c-1.17-.67-1.75-1.86-1.75-3.04v-44.22" style="fill:none; stroke:#231f20; stroke-width:5px;"/><path id="uuid-0b7549dd-499e-428d-bac0-d8e7de4040fb" d="M30.7,202.08v-32.42c0,1.18,.58,2.36,1.75,3.04l31.97,18.46c5.59,3.23,12.3,4.16,18.47,2.23,5.4-1.68,8.12-4.68,8.12-7.68v32.42c0,3-2.73,6-8.12,7.68-6.17,1.92-12.88,1-18.47-2.23l-11.29-6.52" style="fill:none; stroke:#231f20; stroke-width:5px;"/><path id="uuid-fbc25300-ea88-41e6-802a-be26437d54a8" d="M30.7,169.66c0-1.18,.59-2.35,1.75-3.02l10.18-5.88c3.53-2.04,7.87-2.04,11.39,0l32.62,18.83c2.92,1.69,4.37,3.9,4.37,6.12,0,3-2.73,6-8.12,7.68-6.17,1.92-12.88,1-18.47-2.23l-31.97-18.46c-1.17-.67-1.75-1.86-1.75-3.04Z" style="fill:none; stroke:#231f20; stroke-width:5px;"/><polygon id="uuid-129409ac-c40d-4ea1-b22f-8bd4893ad60e" points="90.45 197.45 94.6 222.23 88.34 225.84 81.33 221.8 81.34 199.43 87.6 195.81 90.45 197.45" style="fill:none; stroke:#231f20; stroke-width:5px;"/><path id="uuid-5810548f-3833-48e4-a734-173fc60b3d8a" d="M35.9,159.15c0,4.46,6.27,8.08,14,8.08s14-3.62,14-8.08v9.98c0,4.46-6.27,8.08-14,8.08s-14-3.62-14-8.08v-9.98Z" style="fill:none; stroke:#231f20; stroke-width:5px;"/><ellipse id="uuid-d9247168-2578-4978-9d33-3ccfab261b8f" cx="49.9" cy="159.15" rx="14" ry="8.08" style="fill:none; stroke:#231f20; stroke-width:5px;"/><path id="uuid-9f77e45a-547b-4061-8e51-1bd58d2c98c6" d="M40.37,157.95v-9.66c0,3.04,4.27,5.5,9.53,5.5s9.53-2.46,9.53-5.5v9.66" style="fill:none; stroke:#231f20; stroke-width:5px;"/><path id="uuid-34981ccb-5806-4421-8155-9641b5fabc5b" d="M59.43,157.95c0,3.04-4.27,5.5-9.53,5.5s-9.53-2.46-9.53-5.5" style="fill:none; stroke:#231f20; stroke-width:5px;"/><ellipse id="uuid-2f3fa786-cc34-4b6e-b16b-94de6e5d72b1" cx="49.9" cy="148.29" rx="9.53" ry="5.5" style="fill:none; stroke:#231f20; stroke-width:5px;"/><path id="uuid-3cb28019-25c2-4a34-ba38-3af78bc6d41b" d="M42.96,147.09v-7.04c0,2.21,3.11,4.01,6.94,4.01s6.94-1.8,6.94-4.01v7.04" style="fill:none; stroke:#231f20; stroke-width:5px;"/><path id="uuid-509d73f0-c302-4097-a4d6-600a61856997" d="M56.84,147.09c0,2.21-3.11,4.01-6.94,4.01s-6.94-1.8-6.94-4.01" style="fill:none; stroke:#231f20; stroke-width:5px;"/><ellipse id="uuid-7a6bbd89-57fd-4aec-b585-943d2c32eade" cx="49.9" cy="140.05" rx="6.94" ry="4.01" style="fill:none; stroke:#231f20; stroke-width:5px;"/><path id="uuid-eb97e37e-1e92-4193-85fd-db394309742a" d="M59.43,129.49v9.66c0,3.04-4.27,5.5-9.53,5.5s-9.53-2.46-9.53-5.5v-9.66" style="fill:none; stroke:#231f20; stroke-width:5px;"/><path id="uuid-5816396b-67ee-4fac-a2ee-a626abf02803" d="M59.43,129.49c0,3.04-4.27,5.5-9.53,5.5s-9.53-2.46-9.53-5.5" style="fill:none; stroke:#231f20; stroke-width:5px;"/><path id="uuid-69cea902-3bcf-4bef-a778-bfb1f1fdc6db" d="M40.37,129.49c0-3.04,4.27-5.5,9.53-5.5s9.53,2.46,9.53,5.5" style="fill:none; stroke:#231f20; stroke-width:5px;"/><path d="M42.96,127.76v-32.99c0-11.32,4.31-22.21,12.06-30.46l1.83-1.95L95.81,20.84c-1.81,1.92-1.01,5.61,1.79,8.23,2.79,2.63,6.53,3.2,8.33,1.27l-43.53,46.39c-3.57,3.8-5.55,8.82-5.55,14.03v37" style="fill:none; stroke:#231f20; stroke-width:5px;"/><path d="M56.85,127.76c0,2.22-3.11,4.01-6.95,4.01s-6.94-1.79-6.94-4.01" style="fill:none; stroke:#231f20; stroke-width:5px;"/><ellipse id="uuid-513a3ada-bff1-43e6-af46-2861159cce82" cx="100.87" cy="25.59" rx="4.01" ry="6.94" transform="translate(13.19 81.63) rotate(-46.82)" style="fill:none; stroke:#231f20; stroke-width:5px;"/><path id="uuid-17eb7e21-db5c-400c-b3e1-01d3f8af44cd" d="M106.9,2.37c-2.51,2.67-.79,8.36,3.84,12.7,4.63,4.34,10.41,5.7,12.92,3.02l-15.25,16.25c-2.51,2.67-8.29,1.32-12.92-3.02-4.63-4.34-6.35-10.03-3.84-12.7L106.9,2.37Z" style="fill:none; stroke:#231f20; stroke-width:5px;"/><path id="uuid-97093417-bd1b-4f00-ae73-2b644da545ed" d="M123.66,18.09c-2.51,2.67-8.29,1.32-12.92-3.02-4.63-4.34-6.35-10.03-3.84-12.7" style="fill:none; stroke:#231f20; stroke-width:5px;"/><path id="uuid-de658a9a-4b57-4ba2-be95-7891f6582281" d="M106.9,2.37c2.51-2.67,8.29-1.32,12.92,3.02,4.63,4.34,6.35,10.03,3.84,12.7" style="fill:none; stroke:#231f20; stroke-width:5px;"/><ellipse id="uuid-e578af33-7fb5-4b69-822c-44702fb206a2" cx="115.28" cy="10.23" rx="4.01" ry="6.95" transform="translate(28.93 87.29) rotate(-46.82)" style="fill:none; stroke:#231f20; stroke-width:5px;"/><polyline points="82.82 200.15 84.84 201.57 88.34 224.02" style="fill:none; stroke:#231f20; stroke-width:5px;"/><path d="M35.55,421.82c0,6.42-5.2,9.58-11.62,7.07-6.42-2.51-11.62-9.75-11.62-16.17s11.62-47.06,11.62-47.06c0,0,11.62,49.73,11.62,56.15Z" style="fill:none; stroke:#231f20; stroke-width:5px;"/><path d="M27.1,419.78c0,2.97-1.42,4.82-3.17,4.13-1.75-.68-3.17-3.64-3.17-6.61s3.17-22.61,3.17-22.61c0,0,3.17,22.12,3.17,25.09Z" style="fill:none; stroke:#231f20; stroke-width:5px;"/></g><g><path id="uuid-424bd480-d153-4aa8-8f22-f4bb73931658" d="M91.57,283.69c0-14.44-20.28-31.38-45.29-31.38-25.01,0-45.29,16.94-45.29,31.38v195.21c0,14.44,20.28,26.15,45.29,26.15s45.29-11.71,45.29-26.15v-195.21Z" style="fill:#fff; stroke:#231f20; stroke-linecap:round; stroke-linejoin:round; stroke-width:2px;"/><path id="uuid-9b7df618-0bc0-45fe-ba2a-626a067a4545" d="M21.91,164.58l-5.33-3.08c-1.77-1.02-2.86-3.21-2.86-6.33,0-6.24,4.38-13.82,9.78-16.94,2.7-1.56,5.15-1.71,6.92-.68l5.33,3.08" style="fill:#fff; stroke:#231f20; stroke-linecap:round; stroke-linejoin:round; stroke-width:2px;"/><path id="uuid-22d8955f-ae87-4403-958e-722b0cf3009b" d="M21.91,164.58c-1.77-1.02-2.86-3.21-2.86-6.33,0-6.24,4.38-13.82,9.78-16.94,2.7-1.56,5.15-1.71,6.92-.68" style="fill:none; stroke:#231f20; stroke-linecap:round; stroke-linejoin:round;"/><path id="uuid-1ab3a0dd-05f0-40c4-90dc-ce122764b81e" d="M35.74,140.63c1.77,1.02,2.86,3.21,2.86,6.33,0,6.24-4.38,13.82-9.78,16.94-2.7,1.56-5.15,1.71-6.92,.68" style="fill:#fff; stroke:#231f20; stroke-linecap:round; stroke-linejoin:round; stroke-width:2px;"/><path id="uuid-ca8c93b7-3fb0-4351-8faa-4cf886bd2403" d="M26.09,157.35c-.7-.4-1.13-1.27-1.13-2.51,0-2.47,1.74-5.48,3.88-6.71,1.07-.62,2.04-.68,2.74-.27" style="fill:none; stroke:#231f20; stroke-linecap:round; stroke-linejoin:round;"/><path id="uuid-d8f085da-f67e-4961-9969-dfc3c8433b74" d="M31.57,147.86l11.12,6.42c-.7-.41-1.67-.35-2.74,.27-2.14,1.24-3.88,4.24-3.88,6.71,0,1.24,.43,2.1,1.13,2.51l-11.12-6.42" style="fill:#fff; stroke:#231f20; stroke-linecap:round; stroke-linejoin:round; stroke-width:2px;"/><path id="uuid-57e6dd2d-8900-43f5-8d9d-02d02c6d41d7" d="M42.69,154.28c.7,.4,1.13,1.27,1.13,2.51,0,2.47-1.74,5.48-3.88,6.71-1.07,.62-2.04,.68-2.74,.27s-1.13-1.27-1.13-2.51c0-2.47,1.74-5.48,3.88-6.71,1.07-.62,2.04-.68,2.74-.27Z" style="fill:#fff; stroke:#231f20; stroke-linecap:round; stroke-linejoin:round; stroke-width:2px;"/><path id="uuid-c3c10321-6266-49af-9c56-554e7c7ee8e8" d="M4.19,293.35c6.66,9.66,22.99,16.49,42.09,16.49,18.57,0,34.52-6.45,41.51-15.68" style="fill:none; stroke:#231f20; stroke-linecap:round; stroke-linejoin:round;"/><path id="uuid-c6ccc5a1-2fc3-47c6-a458-482474d5fd91" d="M35.55,251.83c0,3.42,4.81,6.2,10.74,6.2s10.74-2.78,10.74-6.2v11.41c0,3.42-4.81,6.2-10.74,6.2s-10.74-2.78-10.74-6.2v-11.41Z" style="fill:#fff; stroke:#231f20; stroke-linecap:round; stroke-linejoin:round; stroke-width:2px;"/><ellipse id="uuid-62163abd-f58c-49a8-8965-8218661c67d6" cx="46.29" cy="251.83" rx="10.74" ry="6.2" style="fill:#fff; stroke:#231f20; stroke-linecap:round; stroke-linejoin:round; stroke-width:2px;"/><path id="uuid-58fb41b9-28c8-4245-9952-4958ea285051" d="M73.01,226.57v25.39c0,3-2.73,6-8.12,7.68-6.17,1.92-12.88,1-18.47-2.23l-13.96-8.06c-1.17-.67-1.75-1.86-1.75-3.04v-44.22" style="fill:#fff; stroke:#231f20; stroke-linecap:round; stroke-linejoin:round; stroke-width:2px;"/><path id="uuid-d3385f14-086d-417b-a150-82ff0867cb83" d="M30.7,202.08v-32.42c0,1.18,.58,2.36,1.75,3.04l31.97,18.46c5.59,3.23,12.3,4.16,18.47,2.23,5.4-1.68,8.12-4.68,8.12-7.68v32.42c0,3-2.73,6-8.12,7.68-6.17,1.92-12.88,1-18.47-2.23l-11.29-6.52" style="fill:#fff; stroke:#231f20; stroke-linecap:round; stroke-linejoin:round; stroke-width:2px;"/><path id="uuid-6fe4ec7b-83d4-4b0d-907b-beeffb47c26d" d="M30.7,169.66c0-1.18,.59-2.35,1.75-3.02l10.18-5.88c3.53-2.04,7.87-2.04,11.39,0l32.62,18.83c2.92,1.69,4.37,3.9,4.37,6.12,0,3-2.73,6-8.12,7.68-6.17,1.92-12.88,1-18.47-2.23l-31.97-18.46c-1.17-.67-1.75-1.86-1.75-3.04Z" style="fill:#fff; stroke:#231f20; stroke-linecap:round; stroke-linejoin:round; stroke-width:2px;"/><polygon id="uuid-6c0a02e9-7ea1-426f-ba2d-79cd00c82d15" points="90.45 197.45 94.6 222.23 88.34 225.84 81.33 221.8 81.34 199.43 87.6 195.81 90.45 197.45" style="fill:#fff; stroke:#231f20; stroke-linecap:round; stroke-linejoin:round; stroke-width:2px;"/><path id="uuid-dc13f274-650f-493a-a1d4-7a69b7f7adfc" d="M35.9,159.15c0,4.46,6.27,8.08,14,8.08s14-3.62,14-8.08v9.98c0,4.46-6.27,8.08-14,8.08s-14-3.62-14-8.08v-9.98Z" style="fill:#fff; stroke:#231f20; stroke-linecap:round; stroke-linejoin:round; stroke-width:2px;"/><ellipse id="uuid-a872e7e8-b77e-474a-8d42-424691a245c5" cx="49.9" cy="159.15" rx="14" ry="8.08" style="fill:#fff; stroke:#231f20; stroke-linecap:round; stroke-linejoin:round; stroke-width:2px;"/><path id="uuid-57078774-9018-48e8-a455-edcc2cadc738" d="M40.37,157.95v-9.66c0,3.04,4.27,5.5,9.53,5.5s9.53-2.46,9.53-5.5v9.66" style="fill:#fff; stroke:#231f20; stroke-linecap:round; stroke-linejoin:round; stroke-width:2px;"/><path id="uuid-278a130d-5dad-4425-b1a6-ff8350a44a41" d="M59.43,157.95c0,3.04-4.27,5.5-9.53,5.5s-9.53-2.46-9.53-5.5" style="fill:none; stroke:#231f20; stroke-linecap:round; stroke-linejoin:round;"/><ellipse id="uuid-cd6fb49b-4241-4a0a-97bf-a7e48ffd34ea" cx="49.9" cy="148.29" rx="9.53" ry="5.5" style="fill:#fff; stroke:#231f20; stroke-linecap:round; stroke-linejoin:round; stroke-width:2px;"/><path id="uuid-f2add03f-1e6f-4a1a-8055-3472c1474824" d="M42.96,147.09v-7.04c0,2.21,3.11,4.01,6.94,4.01s6.94-1.8,6.94-4.01v7.04" style="fill:#fff; stroke:#231f20; stroke-linecap:round; stroke-linejoin:round; stroke-width:2px;"/><path id="uuid-54107b94-25d2-495c-9abf-0fbb0089a06e" d="M56.84,147.09c0,2.21-3.11,4.01-6.94,4.01s-6.94-1.8-6.94-4.01" style="fill:none; stroke:#231f20; stroke-linecap:round; stroke-linejoin:round;"/><ellipse id="uuid-20ae3fb4-d5ef-4d53-90ff-8864d4fde2a5" cx="49.9" cy="140.05" rx="6.94" ry="4.01" style="fill:#fff; stroke:#231f20; stroke-linecap:round; stroke-linejoin:round; stroke-width:2px;"/><path id="uuid-816c83ec-424a-4106-90f9-ebe05b8f9fe0" d="M59.43,129.49v9.66c0,3.04-4.27,5.5-9.53,5.5s-9.53-2.46-9.53-5.5v-9.66" style="fill:#fff; stroke:#231f20; stroke-linecap:round; stroke-linejoin:round; stroke-width:2px;"/><path id="uuid-7fc00001-47d1-4638-98d5-87cb072b7a52" d="M59.43,129.49c0,3.04-4.27,5.5-9.53,5.5s-9.53-2.46-9.53-5.5" style="fill:#fff; stroke:#231f20; stroke-linecap:round; stroke-linejoin:round;"/><path id="uuid-cf850045-6118-4b12-835b-674c46812295" d="M40.37,129.49c0-3.04,4.27-5.5,9.53-5.5s9.53,2.46,9.53,5.5" style="fill:#fff; stroke:#231f20; stroke-linecap:round; stroke-linejoin:round; stroke-width:2px;"/><path d="M42.96,127.76v-32.99c0-11.32,4.31-22.21,12.06-30.46l1.83-1.95L95.81,20.84c-1.81,1.92-1.01,5.61,1.79,8.23,2.79,2.63,6.53,3.2,8.33,1.27l-43.53,46.39c-3.57,3.8-5.55,8.82-5.55,14.03v37" style="fill:#fff; stroke:#231f20; stroke-linecap:round; stroke-linejoin:round; stroke-width:2px;"/><path d="M56.85,127.76c0,2.22-3.11,4.01-6.95,4.01s-6.94-1.79-6.94-4.01" style="fill:none; stroke:#231f20; stroke-linecap:round; stroke-linejoin:round;"/><ellipse id="uuid-434f9da3-6f03-4f39-9de8-72f7ff66361b" cx="100.87" cy="25.59" rx="4.01" ry="6.94" transform="translate(13.19 81.63) rotate(-46.82)" style="fill:#fff; stroke:#231f20; stroke-linecap:round; stroke-linejoin:round; stroke-width:2px;"/><path id="uuid-0ba69ec7-4055-4606-95fd-5b35dcdf9c16" d="M106.9,2.37c-2.51,2.67-.79,8.36,3.84,12.7,4.63,4.34,10.41,5.7,12.92,3.02l-15.25,16.25c-2.51,2.67-8.29,1.32-12.92-3.02-4.63-4.34-6.35-10.03-3.84-12.7L106.9,2.37Z" style="fill:#fff; stroke:#231f20; stroke-linecap:round; stroke-linejoin:round; stroke-width:2px;"/><path id="uuid-30f2dee8-8424-4f5d-b123-fc5c425b2c37" d="M123.66,18.09c-2.51,2.67-8.29,1.32-12.92-3.02-4.63-4.34-6.35-10.03-3.84-12.7" style="fill:#fff; stroke:#231f20; stroke-linecap:round; stroke-linejoin:round;"/><path id="uuid-fd80e733-67e4-4805-917e-6136e8086c3c" d="M106.9,2.37c2.51-2.67,8.29-1.32,12.92,3.02,4.63,4.34,6.35,10.03,3.84,12.7" style="fill:#fff; stroke:#231f20; stroke-linecap:round; stroke-linejoin:round; stroke-width:2px;"/><ellipse id="uuid-eceefa9f-784b-475c-b1c3-8a1ab4b8ae75" cx="115.28" cy="10.23" rx="4.01" ry="6.95" transform="translate(28.93 87.29) rotate(-46.82)" style="fill:#fff; stroke:#231f20; stroke-linecap:round; stroke-linejoin:round;"/><polyline points="82.82 200.15 84.84 201.57 88.34 224.02" style="fill:none; stroke:#231f20; stroke-linecap:round; stroke-linejoin:round;"/><path d="M35.55,421.82c0,6.42-5.2,9.58-11.62,7.07-6.42-2.51-11.62-9.75-11.62-16.17s11.62-47.06,11.62-47.06c0,0,11.62,49.73,11.62,56.15Z" style="fill:#fff; stroke:#231f20; stroke-linecap:round; stroke-linejoin:round; stroke-width:2px;"/><path d="M27.1,419.78c0,2.97-1.42,4.82-3.17,4.13-1.75-.68-3.17-3.64-3.17-6.61s3.17-22.61,3.17-22.61c0,0,3.17,22.12,3.17,25.09Z" style="fill:#fff; stroke:#231f20; stroke-linecap:round; stroke-linejoin:round;"/></g></g></g></svg>