<?xml version="1.0" encoding="UTF-8"?><svg id="uuid-5d7913f1-4c3d-42c8-a25c-e97d9c4d1fa6" xmlns="http://www.w3.org/2000/svg" viewBox="0 0 40 32"><g id="uuid-c1509cf4-d9fa-4b20-b235-58b6bdd31072"><path d="M0,2C0,.9,.9,0,2,0H38c1.1,0,2,.9,2,2V30c0,1.1-.9,2-2,2H2c-1.1,0-2-.9-2-2V2Z" style="fill:#fff;"/><path d="M27.32,7.47c-.09-.09-.23-.09-.31,0l-5.91,7.86c-.07,.1-.11,.22-.12,.34l-.16,2.64c0,.08,.07,.15,.15,.15,.01,0,.03,0,.04,0l2.51-.88c.11-.04,.21-.11,.28-.2l5.9-7.84c.06-.11,.03-.24-.08-.3l-2.31-1.75Z"/><path d="M31.47,6.8l-2.31-1.73c-.1-.08-.25-.06-.34,.04,0,0,0,0,0,0l-1.17,1.55c-.09,.12-.07,.3,.05,.39h0s2.26,1.69,2.26,1.69c.12,.09,.3,.07,.39-.05,0,0,0,0,0,0l1.16-1.55c.08-.11,.06-.26-.05-.34,0,0,0,0,0,0Z"/><rect x="13.46" y="10.53" width="12.22" height="12.22" rx=".34" ry=".34" style="fill:none; stroke:#000; stroke-miterlimit:10; stroke-width:2px;"/></g></svg>