<?xml version="1.0" encoding="UTF-8"?><svg id="uuid-15ae0b00-937f-42e0-8fc6-7255bc99395b" xmlns="http://www.w3.org/2000/svg" viewBox="0 0 177.54 122"><g id="uuid-9e513f7c-328a-4b26-9d75-b828cad60828"><g><g><g><path id="uuid-bb1f5746-01d1-4c6d-8955-478e277d693a" d="M164.01,58.79l6.86,3.96c3.13,1.8,5.66,6.2,5.66,9.81,0,1.81-.63,3.07-1.66,3.66l-76.91,44.41c-1.03,.59-2.44,.5-4.01-.4L12.32,73.1c-6.26-3.61-11.32-12.39-11.32-19.61,0-3.61,1.27-6.15,3.32-7.33L81.23,1.75c2.05-1.18,4.88-1.01,8.01,.79l72.43,41.81c3.13,1.81,5.66,6.2,5.66,9.81,0,1.81-.63,3.08-1.66,3.67,0,0-1.66,.96-1.66,.96Z" style="fill:none; stroke:#231f20; stroke-width:5px;"/><path id="uuid-b2e7ce3d-fb52-4c75-83ef-79945365e225" d="M89.84,95.37c-.92-2.7-2.85-5.31-5.09-6.6L12.32,46.95" style="fill:none; stroke:#231f20; stroke-width:5px;"/><path id="uuid-0143efed-4079-41d8-9b40-e8c7361896c4" d="M164.01,58.79l-75.26,43.45c1.02-.59,1.66-1.86,1.66-3.67,0-1.03-.21-2.12-.57-3.2" style="fill:none; stroke:#231f20; stroke-width:5px;"/><path id="uuid-751454b8-a210-440a-9b77-12e05c3aedde" d="M84.75,101.84L23.64,66.56l70.32,40.6c2.17,1.25,4.05,3.75,5.01,6.37" style="fill:none; stroke:#231f20; stroke-width:5px;"/><path id="uuid-8d5161d8-f5e3-4c5c-95f9-043cfb63cadd" d="M12.32,46.95l72.43,41.81c2.24,1.29,4.17,3.9,5.09,6.6" style="fill:none; stroke:#231f20; stroke-width:5px;"/></g><g><path id="uuid-dafda111-d69a-4fb1-82d5-0f040a01a77a" d="M164.01,58.79l6.86,3.96c3.13,1.8,5.66,6.2,5.66,9.81,0,1.81-.63,3.07-1.66,3.66l-76.91,44.41c-1.03,.59-2.44,.5-4.01-.4L12.32,73.1c-6.26-3.61-11.32-12.39-11.32-19.61,0-3.61,1.27-6.15,3.32-7.33L81.23,1.75c2.05-1.18,4.88-1.01,8.01,.79l72.43,41.81c3.13,1.81,5.66,6.2,5.66,9.81,0,1.81-.63,3.08-1.66,3.67,0,0-1.66,.96-1.66,.96Z" style="fill:#fff; stroke:#231f20; stroke-linecap:round; stroke-linejoin:round; stroke-width:2px;"/><path id="uuid-2c066f29-93e9-4051-91a3-5ab9ccec1f55" d="M89.84,95.37c-.92-2.7-2.85-5.31-5.09-6.6L12.32,46.95" style="fill:none; stroke:#231f20; stroke-linecap:round; stroke-linejoin:round; stroke-width:2px;"/><path id="uuid-b264b83a-4303-4ad6-8b2b-b380ec70545d" d="M164.01,58.79l-75.26,43.45c1.02-.59,1.66-1.86,1.66-3.67,0-1.03-.21-2.12-.57-3.2" style="fill:none; stroke:#231f20; stroke-linecap:round; stroke-linejoin:round; stroke-width:2px;"/><path id="uuid-96c39fef-3e18-4746-a43b-fe5412f3285a" d="M84.75,101.84L23.64,66.56l70.32,40.6c2.17,1.25,4.05,3.75,5.01,6.37" style="fill:none; stroke:#231f20; stroke-linecap:round; stroke-linejoin:round; stroke-width:2px;"/><path id="uuid-3e9ee5a0-7609-4966-9955-91ca97e49e45" d="M12.32,46.95l72.43,41.81c2.24,1.29,4.17,3.9,5.09,6.6" style="fill:none; stroke:#231f20; stroke-linecap:round; stroke-linejoin:round; stroke-width:2px;"/></g></g><line x1="33.38" y1="41.64" x2="86.43" y2="10.73" style="fill:none; stroke:#231f20; stroke-linecap:round; stroke-linejoin:round;"/><line x1="88.77" y1="73.82" x2="141.81" y2="42.91" style="fill:none; stroke:#231f20; stroke-linecap:round; stroke-linejoin:round;"/></g></g></svg>