<?xml version="1.0" encoding="UTF-8"?><svg id="uuid-6873611b-c618-440a-8f15-280aed64b34e" xmlns="http://www.w3.org/2000/svg" viewBox="0 0 1121.12 166.82"><g id="uuid-4779d87f-cec0-4f9d-b06b-9c359d5a6389"><g id="uuid-f21d5d14-8f86-4fcc-b92a-485b8d53a063"><g><g id="uuid-d4cf5496-af32-4edf-970e-d6b1f5b24170"><polygon id="uuid-3d449ff0-39f6-4693-aafe-8285d62d8ff5" points="6.51 6.49 511.85 160.56 511.13 165.52 5.8 11.44 6.51 6.49" style="fill:none; stroke:#231f20; stroke-linecap:round; stroke-linejoin:round; stroke-width:5px;"/><polygon id="uuid-5e17d9c1-a293-462f-9a73-043cca1a8306" points="511.85 160.56 1114.61 155.08 1113.89 160.04 511.13 165.52 511.85 160.56" style="fill:none; stroke:#231f20; stroke-linecap:round; stroke-linejoin:round; stroke-width:5px;"/></g><g id="uuid-233246e7-bef1-4276-941d-3e6d7a1c86b0"><polygon id="uuid-ca554a94-7fa7-486e-b0d5-2b6e8d90d73e" points="6.51 6.49 609.27 1 1114.61 155.08 511.85 160.56 6.51 6.49" style="fill:none; stroke:#231f20; stroke-linecap:round; stroke-linejoin:round; stroke-width:5px;"/></g></g><g><g id="uuid-564e03df-6d70-4b10-9728-66ceaa6233ba"><polygon id="uuid-ff3d0e0a-4226-44f4-aebb-9ee1cf89d707" points="6.51 6.49 511.85 160.56 511.13 165.52 5.8 11.44 6.51 6.49" style="fill:#fff; stroke:#0f1011; stroke-miterlimit:10; stroke-width:2px;"/><polygon id="uuid-d21cfc37-1fcd-4626-8dde-687f2f2bcc98" points="511.85 160.56 1114.61 155.08 1113.89 160.04 511.13 165.52 511.85 160.56" style="fill:#fff; stroke:#0f1011; stroke-miterlimit:10; stroke-width:2px;"/></g><g id="uuid-10a6ef98-e10e-44b5-8e2c-25215f7d1f1f"><polygon id="uuid-4a7f7dab-5093-499e-8b3e-d03d1e97c041" points="6.51 6.49 609.27 1 1114.61 155.08 511.85 160.56 6.51 6.49" style="fill:#fff; stroke:#0f1011; stroke-miterlimit:10; stroke-width:2px;"/></g></g></g></g></svg>