<?xml version="1.0" encoding="UTF-8"?><svg id="uuid-5a1aa9dd-35a7-4c2f-acc8-d7e3599df072" xmlns="http://www.w3.org/2000/svg" viewBox="0 0 1056.56 271.66"><g id="uuid-e1ae907b-bc0b-4ab3-8797-184c5aca30bb"><g id="uuid-1917bec5-f238-4dc8-96ca-2dc51770716d"><g><g id="uuid-ac8e9cd9-0d35-4975-9f48-3fdc515737a4"><polygon id="uuid-07d01836-de58-4b05-8407-98b0f83d4a61" points="4.15 153.98 497.11 262.78 497.3 270.35 4.35 161.56 4.15 153.98" style="fill:none; stroke:#231f20; stroke-linecap:round; stroke-linejoin:round; stroke-width:5px;"/><polygon id="uuid-9f09321b-91dd-4ca0-84e8-200124e9ff48" points="497.11 262.78 1052.41 109.82 1052.6 117.4 497.3 270.35 497.11 262.78" style="fill:none; stroke:#231f20; stroke-linecap:round; stroke-linejoin:round; stroke-width:5px;"/></g><g id="uuid-7598b08d-1541-491c-a53c-2ec6716f40b6"><polygon id="uuid-72b124d7-455b-487f-93ce-85452c6027dd" points="4.15 153.98 559.46 1.03 1052.41 109.82 497.11 262.78 4.15 153.98" style="fill:none; stroke:#231f20; stroke-linecap:round; stroke-linejoin:round; stroke-width:5px;"/></g></g><g><g id="uuid-d0ada196-2cc9-489d-b095-e1e9d4e656cf"><polygon id="uuid-7cf72e51-d359-46c8-80c3-c651163606e6" points="4.15 153.98 497.11 262.78 497.3 270.35 4.35 161.56 4.15 153.98" style="fill:#fff; stroke:#0f1011; stroke-miterlimit:10; stroke-width:2px;"/><polygon id="uuid-0caec450-1272-4b27-bfc0-398ffb8d471e" points="497.11 262.78 1052.41 109.82 1052.6 117.4 497.3 270.35 497.11 262.78" style="fill:#fff; stroke:#0f1011; stroke-miterlimit:10; stroke-width:2px;"/></g><g id="uuid-2877acb1-13fd-4921-bad8-6cb429ca5810"><polygon id="uuid-c19fd937-7b1d-4d22-a61c-c9a28b5c48f3" points="4.15 153.98 559.46 1.03 1052.41 109.82 497.11 262.78 4.15 153.98" style="fill:#fff; stroke:#0f1011; stroke-miterlimit:10; stroke-width:2px;"/></g></g></g></g></svg>