<?xml version="1.0" encoding="UTF-8"?>
<svg id="Layer_1" data-name="Layer 1" xmlns="http://www.w3.org/2000/svg" width="100" height="100" viewBox="0 0 100 100">
  <defs>
    <style>
      .cls-1, .cls-2, .cls-3, .cls-4, .cls-5, .cls-6 {
        stroke: #231f20;
        stroke-linecap: round;
        stroke-linejoin: round;
      }

      .cls-1, .cls-2, .cls-4 {
        fill: none;
      }

      .cls-2, .cls-3 {
        stroke-width: .5px;
      }

      .cls-3, .cls-5, .cls-6 {
        fill: #fff;
      }

      .cls-4, .cls-5 {
        stroke-width: 2px;
      }

      .cls-7 {
        fill: #0f1011;
      }
    </style>
  </defs>
  <g>
    <path class="cls-4" d="M32.84,28.89v56.04c0,5.47,7.68,9.91,17.16,9.91s17.16-4.44,17.16-9.91V28.9c.03-2.01-.98-4.03-3.06-5.75h0l-8.5-7.07h0c-.23-.19-.48-.37-.78-.54-2.66-1.54-6.98-1.54-9.65,0-.29,.17-.55,.35-.78,.54h0l-8.5,7.07h0c-2.07,1.72-3.08,3.73-3.05,5.73h0Z"/>
    <path class="cls-4" d="M34.07,32.49c.84,1.21,2.1,2.34,3.8,3.32,6.7,3.87,17.57,3.87,24.27,0,1.71-.99,2.98-2.13,3.82-3.35"/>
    <path id="Axo_panel" data-name="Axo panel" class="cls-4" d="M42.67,9.4c0,1.08,.72,2.17,2.15,2.99,2.86,1.65,7.51,1.65,10.37,0,1.43-.83,2.15-1.91,2.15-2.99"/>
    <path id="Axo_base" data-name="Axo base" class="cls-4" d="M57.09,16.93c.16-.35,.24-.72,.24-1.08v-6.45c0-1.08-.72-2.17-2.15-2.99-2.86-1.65-7.51-1.65-10.37,0-1.43,.83-2.15,1.91-2.15,2.99v6.45c0,.36,.08,.73,.24,1.08"/>
    <path id="Axo_base-2" data-name="Axo base" class="cls-4" d="M42.91,16.93c.32,.7,.95,1.36,1.91,1.91,2.86,1.65,7.51,1.65,10.37,0,.95-.55,1.59-1.21,1.91-1.91"/>
    <path id="Axo_base-3" data-name="Axo base" class="cls-4" d="M55.96,11.87c-.23,.18-.49,.36-.77,.52-2.86,1.65-7.51,1.65-10.37,0-.46-.27-.85-.56-1.17-.88"/>
    <line class="cls-4" x1="43.46" y1="12.33" x2="43.46" y2="16.45"/>
    <line class="cls-4" x1="44.51" y1="13.36" x2="44.51" y2="17.48"/>
    <line class="cls-4" x1="46.03" y1="14.31" x2="46.03" y2="18.42"/>
    <line class="cls-4" x1="48.46" y1="14.87" x2="48.46" y2="18.99"/>
    <line class="cls-4" x1="56.54" y1="12.33" x2="56.54" y2="16.45"/>
    <line class="cls-4" x1="55.49" y1="13.36" x2="55.49" y2="17.48"/>
    <line class="cls-4" x1="53.97" y1="14.31" x2="53.97" y2="18.42"/>
    <line class="cls-4" x1="51.54" y1="14.87" x2="51.54" y2="18.99"/>
    <g>
      <rect class="cls-4" x="42.56" y="60.39" width="14.91" height="14.91" transform="translate(-33.33 55.24) rotate(-45)"/>
      <path class="cls-4" d="M48.8,72.43c0-.68,.53-1.23,1.21-1.23s1.23,.54,1.23,1.23-.54,1.21-1.23,1.21-1.21-.54-1.21-1.21Zm.11-10.04h2.21l-.41,7.63h-1.39l-.41-7.63Z"/>
    </g>
  </g>
  <g>
    <path class="cls-3" d="M32.84,28.89v56.04c0,5.47,7.68,9.91,17.16,9.91s17.16-4.44,17.16-9.91V28.9c.03-2.01-.98-4.03-3.06-5.75h0l-8.5-7.07h0c-.23-.19-.48-.37-.78-.54-2.66-1.54-6.98-1.54-9.65,0-.29,.17-.55,.35-.78,.54h0l-8.5,7.07h0c-2.07,1.72-3.08,3.73-3.05,5.73h0Z"/>
    <path class="cls-2" d="M34.07,32.49c.84,1.21,2.1,2.34,3.8,3.32,6.7,3.87,17.57,3.87,24.27,0,1.71-.99,2.98-2.13,3.82-3.35"/>
    <path id="Axo_panel-2" data-name="Axo panel" class="cls-5" d="M42.67,9.4c0,1.08,.72,2.17,2.15,2.99,2.86,1.65,7.51,1.65,10.37,0,1.43-.83,2.15-1.91,2.15-2.99"/>
    <path id="Axo_base-4" data-name="Axo base" class="cls-3" d="M57.09,16.93c.16-.35,.24-.72,.24-1.08v-6.45c0-1.08-.72-2.17-2.15-2.99-2.86-1.65-7.51-1.65-10.37,0-1.43,.83-2.15,1.91-2.15,2.99v6.45c0,.36,.08,.73,.24,1.08"/>
    <path id="Axo_base-5" data-name="Axo base" class="cls-6" d="M42.91,16.93c.32,.7,.95,1.36,1.91,1.91,2.86,1.65,7.51,1.65,10.37,0,.95-.55,1.59-1.21,1.91-1.91"/>
    <path id="Axo_base-6" data-name="Axo base" class="cls-2" d="M55.96,11.87c-.23,.18-.49,.36-.77,.52-2.86,1.65-7.51,1.65-10.37,0-.46-.27-.85-.56-1.17-.88"/>
    <line class="cls-2" x1="43.46" y1="12.33" x2="43.46" y2="16.45"/>
    <line class="cls-2" x1="44.51" y1="13.36" x2="44.51" y2="17.48"/>
    <line class="cls-2" x1="46.03" y1="14.31" x2="46.03" y2="18.42"/>
    <line class="cls-2" x1="48.46" y1="14.87" x2="48.46" y2="18.99"/>
    <line class="cls-2" x1="56.54" y1="12.33" x2="56.54" y2="16.45"/>
    <line class="cls-2" x1="55.49" y1="13.36" x2="55.49" y2="17.48"/>
    <line class="cls-2" x1="53.97" y1="14.31" x2="53.97" y2="18.42"/>
    <line class="cls-2" x1="51.54" y1="14.87" x2="51.54" y2="18.99"/>
    <g>
      <rect class="cls-1" x="42.56" y="60.39" width="14.91" height="14.91" transform="translate(-33.33 55.24) rotate(-45)"/>
      <path class="cls-7" d="M48.8,72.43c0-.68,.53-1.23,1.21-1.23s1.23,.54,1.23,1.23-.54,1.21-1.23,1.21-1.21-.54-1.21-1.21Zm.11-10.04h2.21l-.41,7.63h-1.39l-.41-7.63Z"/>
    </g>
  </g>
</svg>