<?xml version="1.0" encoding="UTF-8"?>
<svg id="Layer_1" data-name="Layer 1" xmlns="http://www.w3.org/2000/svg" width="100" height="100" viewBox="0 0 100 100">
  <defs>
    <style>
      .cls-1 {
        stroke: #231f20;
        stroke-width: 2px;
      }

      .cls-1, .cls-2 {
        fill: none;
      }

      .cls-2, .cls-3 {
        stroke: #000;
        stroke-linecap: round;
        stroke-linejoin: round;
        stroke-width: .5px;
      }

      .cls-3 {
        fill: #fff;
      }
    </style>
  </defs>
  <g>
    <path id="Axo_panel" data-name="Axo panel" class="cls-1" d="M32.53,67.59c0,.61,.4,1.21,1.2,1.68l1.69,.98c1.6,.92,4.2,.92,5.8,0l26.24-15.15c.8-.46,1.2-1.06,1.2-1.67v26.68c0,.6-.4,1.21-1.2,1.67l-26.24,15.15c-1.6,.92-4.2,.92-5.8,0l-1.69-.98c-.8-.46-1.2-1.07-1.2-1.68v-26.68Z"/>
    <path id="Axo_base" data-name="Axo base" class="cls-1" d="M32.53,67.59c0-.6,.4-1.21,1.2-1.67l26.24-15.15c1.6-.92-.04-3.37,1.57-2.44l5.93,3.42c.8,.46,1.2,1.07,1.2,1.68s-.4,1.21-1.2,1.67l-26.24,15.15c-1.6,.92-4.2,.92-5.8,0l-1.69-.98c-.8-.46-1.2-1.07-1.2-1.68Z"/>
    <path id="Axo_base-2" data-name="Axo base" class="cls-1" d="M70.03,47.64c0-.61-.4-1.21-1.2-1.68l-5.63-3.25c-1.6-.92-4.2-.92-5.8,0l-26.24,15.15c-.8,.46-1.2,1.06-1.2,1.67v9.17c0,.61,.4,1.21,1.2,1.68l5.63,3.25c1.6,.92,4.2,.92,5.8,0l26.24-15.15c.8-.46,1.2-1.06,1.2-1.67v-9.17Z"/>
    <line class="cls-1" x1="42.05" y1="78.52" x2="42.05" y2="96.09"/>
    <line class="cls-1" x1="45.46" y1="76.54" x2="45.46" y2="94.12"/>
    <line class="cls-1" x1="48.88" y1="74.57" x2="48.88" y2="92.14"/>
    <line class="cls-1" x1="52.29" y1="72.6" x2="52.29" y2="90.17"/>
    <line class="cls-1" x1="55.71" y1="70.63" x2="55.71" y2="88.2"/>
    <line class="cls-1" x1="59.12" y1="68.66" x2="59.12" y2="86.23"/>
    <line class="cls-1" x1="62.54" y1="66.69" x2="62.54" y2="84.26"/>
    <line class="cls-1" x1="65.95" y1="64.71" x2="65.95" y2="82.29"/>
    <path class="cls-1" d="M46.5,50.53c-.14,.07-.3,.12-.43,.2-.14,.08-.27,.16-.39,.24-.04,.03-.07,.06-.11,.09-.08,.06-.16,.11-.23,.17-.04,.04-.08,.07-.12,.11-.06,.05-.12,.11-.17,.16-.04,.04-.07,.08-.1,.12-.05,.05-.09,.11-.13,.16-.03,.04-.06,.09-.08,.13-.03,.05-.07,.11-.1,.17-.02,.05-.04,.09-.06,.14-.02,.06-.05,.11-.07,.17-.02,.05-.03,.1-.04,.14-.01,.05-.03,.11-.04,.17,0,.05-.01,.1-.02,.15,0,.06-.01,.11-.01,.17,0,0,0,.01,0,.02,0,.05,0,.1,.01,.14,0,.05,0,.1,.01,.14,0,.05,.02,.11,.04,.16,.01,.05,.02,.1,.03,.14,.02,.05,.04,.11,.06,.16,.02,.05,.03,.09,.06,.14,.03,.05,.06,.11,.09,.16,.03,.04,.05,.09,.08,.13,.04,.05,.08,.11,.12,.16,.03,.04,.06,.08,.1,.13,.05,.06,.11,.11,.16,.16,.04,.04,.07,.08,.11,.11,.06,.06,.14,.11,.21,.17,.04,.03,.07,.06,.11,.09,.12,.08,.24,.17,.37,.25,2.14,1.28,5.67,1.32,7.88,.08,.14-.08,.27-.16,.39-.24,.04-.03,.08-.06,.12-.09,.08-.06,.15-.11,.22-.17,.04-.04,.08-.07,.12-.11,.06-.05,.12-.11,.17-.16,.04-.04,.07-.08,.1-.12,.05-.05,.09-.11,.13-.16,.03-.04,.06-.09,.08-.13,.03-.05,.07-.11,.1-.17,.02-.05,.04-.09,.06-.14,.02-.06,.05-.11,.07-.17,.02-.05,.03-.09,.04-.14,.02-.06,.03-.11,.04-.17,0-.05,.01-.1,.02-.14,0-.06,.01-.11,.01-.17,0,0,0-.01,0-.02,0-.05,0-.1-.01-.14,0-.05,0-.1-.01-.14,0-.05-.02-.11-.04-.16-.01-.05-.02-.1-.03-.14-.02-.05-.04-.11-.06-.16-.02-.05-.03-.09-.06-.14-.03-.05-.06-.11-.09-.16-.03-.04-.05-.09-.08-.13-.04-.05-.08-.11-.12-.16-.03-.04-.06-.08-.1-.12-.05-.06-.11-.11-.16-.16-.04-.04-.07-.08-.11-.11-.07-.06-.14-.12-.21-.17-.04-.03-.07-.06-.11-.09-.12-.08-.24-.17-.37-.25-.17-.1-.35-.18-.53-.26"/>
    <path class="cls-1" d="M53.42,50.54s0,0,0-.01c-.01-.03-.02-.07-.03-.11-.03-.09-.06-.19-.09-.31,0-.02-.01-.05-.02-.07-.02-.07-.04-.16-.07-.27-.02-.09-.04-.18-.06-.28,0-.03-.01-.06-.02-.09-.03-.14-.06-.3-.08-.47,0,0,0,0,0,0-.03-.18-.06-.37-.08-.58-.02-.16-.04-.31-.05-.47,0-.05-.01-.09-.02-.14-.02-.17-.03-.34-.04-.51,0-.04,0-.07,0-.11-.01-.16-.02-.31-.03-.46,0-.05,0-.1,0-.15,0-.17-.01-.33-.02-.49,0-.02,0-.05,0-.07-.02-.75-.02-1.44-.01-1.98,.02-6.31,2.82-11.16,2.85-22.32,0-1.34,0-2.52-.03-3.56,0-.42-.02-.84-.03-1.28,0-.03,0-.05,0-.08,0-.1,0-.19-.01-.29-.07-1.99-.17-3.21-.23-3.78-.02-.22-.05-.48-.08-.77-.02-.17-.04-.34-.05-.51-.05-.46-.13-1-.21-1.46-.02-.1-.03-.2-.05-.3-.05-.26-.08-.47-.11-.59-.13-.64-.29-1.28-.48-1.87,0,0,0,0,0,0-.05-.17-.12-.36-.2-.55,0-.02-.01-.04-.02-.06-.02-.04-.03-.07-.04-.11-.02-.04-.04-.09-.05-.13-.12-.29-.25-.55-.38-.79-.02-.04-.04-.07-.06-.11-.03-.04-.05-.09-.08-.13,0,0,0,0,0,0-.16-.26-.3-.46-.4-.57,0,0-.01-.02-.02-.02,0,0-.01-.02-.02-.03-.09-.11-.21-.24-.35-.37-.04-.04-.09-.08-.13-.12-.02-.02-.04-.04-.07-.06-.08-.07-.18-.14-.28-.21-.04-.03-.07-.05-.11-.08-.09-.06-.18-.11-.28-.17-.02-.01-.04-.02-.06-.03-.02-.01-.05-.02-.07-.03-.04-.02-.08-.04-.13-.06-.05-.02-.13-.06-.24-.09,0,0,0,0,0,0-.09-.03-.21-.07-.35-.1-.04-.01-.09-.02-.13-.03-.09-.02-.19-.03-.29-.04-.04,0-.08-.01-.13-.02-.13-.01-.28-.02-.43-.01-.01,0-.03,0-.04,0,0,0,0,0,0,0-.18,0-.36,.02-.56,.06-.18,.04-.35,.08-.49,.13-.06,.02-.11,.05-.17,.07-.19,.08-.36,.16-.46,.21-.12,.07-.24,.15-.37,.24-.02,.02-.04,.03-.06,.05-.12,.09-.24,.19-.36,.3,0,0,0,0,0,0,0,0,0,0-.01,.01-.19,.18-.38,.39-.56,.65-.04,.05-.07,.1-.11,.16-.04,.06-.08,.12-.11,.18-.02,.03-.04,.05-.05,.08,0,.01-.02,.03-.02,.04-.18,.3-.35,.66-.52,1.07-.02,.04-.03,.07-.05,.11-.03,.08-.06,.16-.09,.25-.03,.08-.06,.16-.09,.25-.02,.07-.05,.15-.07,.23-.03,.1-.06,.2-.1,.31-.03,.1-.06,.2-.08,.3-.03,.1-.05,.19-.08,.29-.05,.22-.11,.44-.16,.67-.05,.21-.09,.44-.13,.66-.01,.07-.03,.14-.04,.21-.03,.16-.05,.32-.08,.48-.01,.09-.03,.17-.04,.26-.02,.15-.04,.31-.07,.46-.03,.24-.06,.49-.09,.73,0,.07-.02,.13-.02,.2-.02,.19-.04,.39-.06,.59,0,.05,0,.09-.01,.14-.02,.21-.04,.42-.06,.63,0,.04,0,.07,0,.11-.02,.22-.04,.45-.05,.67,0,.04,0,.07,0,.11-.02,.22-.03,.44-.04,.66,0,.07,0,.15-.01,.22-.01,.18-.02,.35-.03,.53,0,.18-.02,.36-.03,.54,0,.05,0,.11,0,.16-.07,1.59-.11,3.36-.11,5.34-.03,11.16,2.74,16.02,2.72,22.33,0,.69,0,1.6-.05,2.58,0,0,0,0,0,0,0,0,0,0,0,.01-.03,.58-.09,1.2-.17,1.83-.09,.65-.19,1.14-.29,1.53-.06,.25-.13,.46-.19,.63"/>
    <ellipse class="cls-1" cx="52.35" cy="10.64" rx="1.79" ry="3.39" transform="translate(-.82 5.46) rotate(-5.92)"/>
    <path id="Axo_panel-2" data-name="Axo panel" class="cls-1" d="M31.17,61.2l5.63,3.25c1.6,.92,4.2,.92,5.8,0l26.24-15.15"/>
  </g>
  <g>
    <path id="Axo_panel-3" data-name="Axo panel" class="cls-3" d="M32.53,67.59c0,.61,.4,1.21,1.2,1.68l1.69,.98c1.6,.92,4.2,.92,5.8,0l26.24-15.15c.8-.46,1.2-1.06,1.2-1.67v26.68c0,.6-.4,1.21-1.2,1.67l-26.24,15.15c-1.6,.92-4.2,.92-5.8,0l-1.69-.98c-.8-.46-1.2-1.07-1.2-1.68v-26.68Z"/>
    <path id="Axo_base-3" data-name="Axo base" class="cls-2" d="M32.53,67.59c0-.6,.4-1.21,1.2-1.67l26.24-15.15c1.6-.92-.04-3.37,1.57-2.44l5.93,3.42c.8,.46,1.2,1.07,1.2,1.68s-.4,1.21-1.2,1.67l-26.24,15.15c-1.6,.92-4.2,.92-5.8,0l-1.69-.98c-.8-.46-1.2-1.07-1.2-1.68Z"/>
    <path id="Axo_base-4" data-name="Axo base" class="cls-3" d="M70.03,47.64c0-.61-.4-1.21-1.2-1.68l-5.63-3.25c-1.6-.92-4.2-.92-5.8,0l-26.24,15.15c-.8,.46-1.2,1.06-1.2,1.67v9.17c0,.61,.4,1.21,1.2,1.68l5.63,3.25c1.6,.92,4.2,.92,5.8,0l26.24-15.15c.8-.46,1.2-1.06,1.2-1.67v-9.17Z"/>
    <line class="cls-2" x1="42.05" y1="78.52" x2="42.05" y2="96.09"/>
    <line class="cls-2" x1="45.46" y1="76.54" x2="45.46" y2="94.12"/>
    <line class="cls-2" x1="48.88" y1="74.57" x2="48.88" y2="92.14"/>
    <line class="cls-2" x1="52.29" y1="72.6" x2="52.29" y2="90.17"/>
    <line class="cls-2" x1="55.71" y1="70.63" x2="55.71" y2="88.2"/>
    <line class="cls-2" x1="59.12" y1="68.66" x2="59.12" y2="86.23"/>
    <line class="cls-2" x1="62.54" y1="66.69" x2="62.54" y2="84.26"/>
    <line class="cls-2" x1="65.95" y1="64.71" x2="65.95" y2="82.29"/>
    <path class="cls-3" d="M46.5,50.53c-.14,.07-.3,.12-.43,.2-.14,.08-.27,.16-.39,.24-.04,.03-.07,.06-.11,.09-.08,.06-.16,.11-.23,.17-.04,.04-.08,.07-.12,.11-.06,.05-.12,.11-.17,.16-.04,.04-.07,.08-.1,.12-.05,.05-.09,.11-.13,.16-.03,.04-.06,.09-.08,.13-.03,.05-.07,.11-.1,.17-.02,.05-.04,.09-.06,.14-.02,.06-.05,.11-.07,.17-.02,.05-.03,.1-.04,.14-.01,.05-.03,.11-.04,.17,0,.05-.01,.1-.02,.15,0,.06-.01,.11-.01,.17,0,0,0,.01,0,.02,0,.05,0,.1,.01,.14,0,.05,0,.1,.01,.14,0,.05,.02,.11,.04,.16,.01,.05,.02,.1,.03,.14,.02,.05,.04,.11,.06,.16,.02,.05,.03,.09,.06,.14,.03,.05,.06,.11,.09,.16,.03,.04,.05,.09,.08,.13,.04,.05,.08,.11,.12,.16,.03,.04,.06,.08,.1,.13,.05,.06,.11,.11,.16,.16,.04,.04,.07,.08,.11,.11,.06,.06,.14,.11,.21,.17,.04,.03,.07,.06,.11,.09,.12,.08,.24,.17,.37,.25,2.14,1.28,5.67,1.32,7.88,.08,.14-.08,.27-.16,.39-.24,.04-.03,.08-.06,.12-.09,.08-.06,.15-.11,.22-.17,.04-.04,.08-.07,.12-.11,.06-.05,.12-.11,.17-.16,.04-.04,.07-.08,.1-.12,.05-.05,.09-.11,.13-.16,.03-.04,.06-.09,.08-.13,.03-.05,.07-.11,.1-.17,.02-.05,.04-.09,.06-.14,.02-.06,.05-.11,.07-.17,.02-.05,.03-.09,.04-.14,.02-.06,.03-.11,.04-.17,0-.05,.01-.1,.02-.14,0-.06,.01-.11,.01-.17,0,0,0-.01,0-.02,0-.05,0-.1-.01-.14,0-.05,0-.1-.01-.14,0-.05-.02-.11-.04-.16-.01-.05-.02-.1-.03-.14-.02-.05-.04-.11-.06-.16-.02-.05-.03-.09-.06-.14-.03-.05-.06-.11-.09-.16-.03-.04-.05-.09-.08-.13-.04-.05-.08-.11-.12-.16-.03-.04-.06-.08-.1-.12-.05-.06-.11-.11-.16-.16-.04-.04-.07-.08-.11-.11-.07-.06-.14-.12-.21-.17-.04-.03-.07-.06-.11-.09-.12-.08-.24-.17-.37-.25-.17-.1-.35-.18-.53-.26"/>
    <path class="cls-3" d="M53.42,50.54s0,0,0-.01c-.01-.03-.02-.07-.03-.11-.03-.09-.06-.19-.09-.31,0-.02-.01-.05-.02-.07-.02-.07-.04-.16-.07-.27-.02-.09-.04-.18-.06-.28,0-.03-.01-.06-.02-.09-.03-.14-.06-.3-.08-.47,0,0,0,0,0,0-.03-.18-.06-.37-.08-.58-.02-.16-.04-.31-.05-.47,0-.05-.01-.09-.02-.14-.02-.17-.03-.34-.04-.51,0-.04,0-.07,0-.11-.01-.16-.02-.31-.03-.46,0-.05,0-.1,0-.15,0-.17-.01-.33-.02-.49,0-.02,0-.05,0-.07-.02-.75-.02-1.44-.01-1.98,.02-6.31,2.82-11.16,2.85-22.32,0-1.34,0-2.52-.03-3.56,0-.42-.02-.84-.03-1.28,0-.03,0-.05,0-.08,0-.1,0-.19-.01-.29-.07-1.99-.17-3.21-.23-3.78-.02-.22-.05-.48-.08-.77-.02-.17-.04-.34-.05-.51-.05-.46-.13-1-.21-1.46-.02-.1-.03-.2-.05-.3-.05-.26-.08-.47-.11-.59-.13-.64-.29-1.28-.48-1.87,0,0,0,0,0,0-.05-.17-.12-.36-.2-.55,0-.02-.01-.04-.02-.06-.02-.04-.03-.07-.04-.11-.02-.04-.04-.09-.05-.13-.12-.29-.25-.55-.38-.79-.02-.04-.04-.07-.06-.11-.03-.04-.05-.09-.08-.13,0,0,0,0,0,0-.16-.26-.3-.46-.4-.57,0,0-.01-.02-.02-.02,0,0-.01-.02-.02-.03-.09-.11-.21-.24-.35-.37-.04-.04-.09-.08-.13-.12-.02-.02-.04-.04-.07-.06-.08-.07-.18-.14-.28-.21-.04-.03-.07-.05-.11-.08-.09-.06-.18-.11-.28-.17-.02-.01-.04-.02-.06-.03-.02-.01-.05-.02-.07-.03-.04-.02-.08-.04-.13-.06-.05-.02-.13-.06-.24-.09,0,0,0,0,0,0-.09-.03-.21-.07-.35-.1-.04-.01-.09-.02-.13-.03-.09-.02-.19-.03-.29-.04-.04,0-.08-.01-.13-.02-.13-.01-.28-.02-.43-.01-.01,0-.03,0-.04,0,0,0,0,0,0,0-.18,0-.36,.02-.56,.06-.18,.04-.35,.08-.49,.13-.06,.02-.11,.05-.17,.07-.19,.08-.36,.16-.46,.21-.12,.07-.24,.15-.37,.24-.02,.02-.04,.03-.06,.05-.12,.09-.24,.19-.36,.3,0,0,0,0,0,0,0,0,0,0-.01,.01-.19,.18-.38,.39-.56,.65-.04,.05-.07,.1-.11,.16-.04,.06-.08,.12-.11,.18-.02,.03-.04,.05-.05,.08,0,.01-.02,.03-.02,.04-.18,.3-.35,.66-.52,1.07-.02,.04-.03,.07-.05,.11-.03,.08-.06,.16-.09,.25-.03,.08-.06,.16-.09,.25-.02,.07-.05,.15-.07,.23-.03,.1-.06,.2-.1,.31-.03,.1-.06,.2-.08,.3-.03,.1-.05,.19-.08,.29-.05,.22-.11,.44-.16,.67-.05,.21-.09,.44-.13,.66-.01,.07-.03,.14-.04,.21-.03,.16-.05,.32-.08,.48-.01,.09-.03,.17-.04,.26-.02,.15-.04,.31-.07,.46-.03,.24-.06,.49-.09,.73,0,.07-.02,.13-.02,.2-.02,.19-.04,.39-.06,.59,0,.05,0,.09-.01,.14-.02,.21-.04,.42-.06,.63,0,.04,0,.07,0,.11-.02,.22-.04,.45-.05,.67,0,.04,0,.07,0,.11-.02,.22-.03,.44-.04,.66,0,.07,0,.15-.01,.22-.01,.18-.02,.35-.03,.53,0,.18-.02,.36-.03,.54,0,.05,0,.11,0,.16-.07,1.59-.11,3.36-.11,5.34-.03,11.16,2.74,16.02,2.72,22.33,0,.69,0,1.6-.05,2.58,0,0,0,0,0,0,0,0,0,0,0,.01-.03,.58-.09,1.2-.17,1.83-.09,.65-.19,1.14-.29,1.53-.06,.25-.13,.46-.19,.63"/>
    <ellipse class="cls-3" cx="52.35" cy="10.64" rx="1.79" ry="3.39" transform="translate(-.82 5.46) rotate(-5.92)"/>
    <path id="Axo_panel-4" data-name="Axo panel" class="cls-2" d="M31.17,61.2l5.63,3.25c1.6,.92,4.2,.92,5.8,0l26.24-15.15"/>
  </g>
</svg>