<?xml version="1.0" encoding="UTF-8"?>
<svg id="Layer_1" data-name="Layer 1" xmlns="http://www.w3.org/2000/svg" width="100" height="100" viewBox="0 0 100 100">
  <defs>
    <style>
      .cls-1, .cls-2 {
        fill: none;
      }

      .cls-1, .cls-2, .cls-3 {
        stroke: #231f20;
      }

      .cls-1, .cls-3 {
        stroke-linecap: round;
        stroke-linejoin: round;
        stroke-width: .5px;
      }

      .cls-2 {
        stroke-width: 2px;
      }

      .cls-3 {
        fill: #fff;
      }
    </style>
  </defs>
  <g>
    <g>
      <path class="cls-2" d="M61,42.37l-21.97,12.68c-1.11,.64-1.8,1.83-1.8,3.11l-20.31-11.72c-.54-.31-.81-.72-.81-1.13v-2.07c0-.41,.27-.82,.81-1.13l19.85-11.46c1.08-.62,2.83-.62,3.91,0l20.31,11.73Z"/>
      <path class="cls-2" d="M80.89,53.85l-5.92,3.42-5.93,3.42-5.92,3.42-3.16,1.77,.09,1.23c0,.55-.32,1.09-.94,1.53-.09,.07-.18,.13-.28,.19-.18,.1-.38,.2-.59,.28-.3,.12-.62,.21-.94,.28-1.75,.37-3.78,.03-4.89-.9l-15.16-10.34c0-1.28,.69-2.47,1.8-3.11l21.97-12.68,19.89,11.49Z"/>
      <path class="cls-2" d="M95.73,63.42v2.07c0,.62-.41,1.24-1.23,1.71-.41,.24-.89,.42-1.41,.54l-4.52-2.61-13.61-7.86,5.92-3.42h0l13.61,7.86c.82,.47,1.23,1.1,1.23,1.71Z"/>
      <path class="cls-2" d="M94.43,69.52v2.07c0,.62-.41,1.24-1.23,1.71-.73,.42-1.66,.65-2.62,.7-.06-.57-.46-1.13-1.21-1.57l-2.09-1.21-18.24-10.53,5.93-3.42,13.61,7.86,4.52,2.61,.11,.06c.82,.47,1.23,1.09,1.23,1.71Z"/>
      <path class="cls-2" d="M90.59,74.15v2.07c0,.62-.41,1.24-1.22,1.71-1.64,.95-4.29,.95-5.93,0l-.86-.5v-1.07c0-.62-.41-1.24-1.23-1.71l-18.24-10.53,5.92-3.42,18.24,10.53,2.09,1.21c.75,.44,1.15,1,1.21,1.57,.01,.05,.01,.1,.01,.14Z"/>
      <path class="cls-2" d="M82.58,76.37v2.08c0,.62-.41,1.23-1.23,1.7-1.64,.95-4.29,.95-5.92,0l-18.14-10.75c.32-.06,.64-.16,.94-.28,.21-.09,.41-.18,.59-.28,.1-.06,.2-.12,.28-.19,.62-.44,.94-.98,.94-1.53,0-.51-.03-.87-.09-1.23l3.16-1.77,18.24,10.53c.82,.47,1.23,1.09,1.23,1.71Z"/>
      <path class="cls-2" d="M60.04,67.12l-.09-1.23c.06,.36,.09,.72,.09,1.23Z"/>
      <path id="Axo_panel" data-name="Axo panel" class="cls-2" d="M49.9,56.34l9.4,7.9c.1,.09,.47,.51,.64,1.59"/>
      <line id="Axo_panel-2" data-name="Axo panel" class="cls-2" x1="59.1" y1="68.65" x2="75.42" y2="78.07"/>
      <line id="Axo_base" data-name="Axo base" class="cls-2" x1="75.42" y1="78.07" x2="59.1" y2="68.65"/>
      <path class="cls-2" d="M41.1,58.16s11.34,8.2,11.45,8.2"/>
    </g>
    <g>
      <path class="cls-3" d="M61,42.37l-21.97,12.68c-1.11,.64-1.8,1.83-1.8,3.11l-20.31-11.72c-.54-.31-.81-.72-.81-1.13v-2.07c0-.41,.27-.82,.81-1.13l19.85-11.46c1.08-.62,2.83-.62,3.91,0l20.31,11.73Z"/>
      <path class="cls-3" d="M80.89,53.85l-5.92,3.42-5.93,3.42-5.92,3.42-3.16,1.77,.09,1.23c0,.55-.32,1.09-.94,1.53-.09,.07-.18,.13-.28,.19-.18,.1-.38,.2-.59,.28-.3,.12-.62,.21-.94,.28-1.75,.37-3.78,.03-4.89-.9l-15.16-10.34c0-1.28,.69-2.47,1.8-3.11l21.97-12.68,19.89,11.49Z"/>
      <path class="cls-3" d="M95.73,63.42v2.07c0,.62-.41,1.24-1.23,1.71-.41,.24-.89,.42-1.41,.54l-4.52-2.61-13.61-7.86,5.92-3.42h0l13.61,7.86c.82,.47,1.23,1.1,1.23,1.71Z"/>
      <path class="cls-3" d="M94.43,69.52v2.07c0,.62-.41,1.24-1.23,1.71-.73,.42-1.66,.65-2.62,.7-.06-.57-.46-1.13-1.21-1.57l-2.09-1.21-18.24-10.53,5.93-3.42,13.61,7.86,4.52,2.61,.11,.06c.82,.47,1.23,1.09,1.23,1.71Z"/>
      <path class="cls-3" d="M90.59,74.15v2.07c0,.62-.41,1.24-1.22,1.71-1.64,.95-4.29,.95-5.93,0l-.86-.5v-1.07c0-.62-.41-1.24-1.23-1.71l-18.24-10.53,5.92-3.42,18.24,10.53,2.09,1.21c.75,.44,1.15,1,1.21,1.57,.01,.05,.01,.1,.01,.14Z"/>
      <path class="cls-3" d="M82.58,76.37v2.08c0,.62-.41,1.23-1.23,1.7-1.64,.95-4.29,.95-5.92,0l-18.14-10.75c.32-.06,.64-.16,.94-.28,.21-.09,.41-.18,.59-.28,.1-.06,.2-.12,.28-.19,.62-.44,.94-.98,.94-1.53,0-.51-.03-.87-.09-1.23l3.16-1.77,18.24,10.53c.82,.47,1.23,1.09,1.23,1.71Z"/>
      <path class="cls-3" d="M60.04,67.12l-.09-1.23c.06,.36,.09,.72,.09,1.23Z"/>
      <path id="Axo_panel-3" data-name="Axo panel" class="cls-3" d="M49.9,56.34l9.4,7.9c.1,.09,.47,.51,.64,1.59"/>
      <line id="Axo_panel-4" data-name="Axo panel" class="cls-1" x1="59.1" y1="68.65" x2="75.42" y2="78.07"/>
      <line id="Axo_base-2" data-name="Axo base" class="cls-3" x1="75.42" y1="78.07" x2="59.1" y2="68.65"/>
      <path class="cls-3" d="M41.1,58.16s11.34,8.2,11.45,8.2"/>
    </g>
  </g>
  <g>
    <g>
      <g id="Axo_Extrusion" data-name="Axo Extrusion">
        <g id="Axo_cap" data-name="Axo cap">
          <path class="cls-2" d="M49.04,43.34l-22.32,12.88c-.89,.52-1.44,1.47-1.44,2.49v.55L4.97,47.54c-.54-.31-.81-.72-.81-1.13v-2.21c0-.4,.27-.81,.81-1.12l19.85-11.46c1.08-.62,2.83-.62,3.91,0l20.31,11.73Z"/>
        </g>
      </g>
      <g id="Axo_Extrusion-2" data-name="Axo Extrusion">
        <g id="Axo_Surface_" data-name="Axo Surface*">
          <path class="cls-2" d="M83.77,64.39v2.21c0,.62-.41,1.24-1.23,1.71-.38,.22-.95,.27-1.41,.39l.12,.07c.82,.47,1.23,1.1,1.23,1.72v2.21c0,.62-.41,1.24-1.23,1.71-.73,.42-1.66,.65-2.61,.7v2.21c0,.62-.41,1.24-1.23,1.72-1.63,.94-4.29,.94-5.92,0l-.87-.47v.97c0,.62-.4,1.24-1.22,1.71-1.64,.95-4.29,.95-5.93,0l-16.32-9.42-19.29-10.45-2.58-2.11v-.55c0-1.03,.55-1.98,1.44-2.49l22.32-12.88,19.9,11.49,13.61,7.86c.82,.47,1.23,1.09,1.23,1.71Z"/>
        </g>
        <g id="Axo_Surface" data-name="Axo Surface">
          <path id="Axo_panel-5" data-name="Axo panel" class="cls-2" d="M80.8,66.71c-1.43,.25-3.05,.05-4.17-.61l-13.61-7.86"/>
        </g>
      </g>
      <g id="Axo_Extrusion-3" data-name="Axo Extrusion">
        <g id="Axo_Surface_-2" data-name="Axo Surface*">
          <path class="cls-2" d="M47.15,71.83c-.09,.06-.19,.12-.29,.18-.18,.11-.38,.2-.6,.29-1.9,.76-4.51,.48-5.82-.62l-12.59-10.3,3.66,2.1,15.63,8.35Z"/>
        </g>
      </g>
      <g id="Axo_Extrusion-4" data-name="Axo Extrusion">
        <g id="Axo_Surface-2" data-name="Axo Surface">
          <polyline class="cls-2" points="63.01 58.25 76.62 66.11 81.13 68.71"/>
        </g>
        <g id="Axo_Surface_-3" data-name="Axo Surface*">
          <path id="Axo_panel-6" data-name="Axo panel" class="cls-2" d="M57.09,61.67l18.24,10.53c1.17,.67,2.85,.87,4.31,.58"/>
        </g>
      </g>
      <g id="Axo_Extrusion-5" data-name="Axo Extrusion">
        <g id="Axo_Surface_-4" data-name="Axo Surface*">
          <path class="cls-2" d="M78.64,75.11c0-.62-.41-1.24-1.22-1.71l-2.09-1.21-18.24-10.53"/>
        </g>
        <g id="Axo_Surface-3" data-name="Axo Surface">
          <path id="Axo_panel-7" data-name="Axo panel" class="cls-2" d="M72.87,77.36c-.5-.12-.98-.3-1.39-.53l-2.09-1.21-18.24-10.53"/>
        </g>
      </g>
      <g id="Axo_Extrusion-6" data-name="Axo Extrusion">
        <g id="Axo_Surface_-5" data-name="Axo Surface*">
          <path class="cls-2" d="M70.62,78.57v-1.24c0-.62-.41-1.24-1.22-1.71l-18.24-10.53"/>
        </g>
        <g id="Axo_Surface-4" data-name="Axo Surface">
          <line class="cls-2" x1="70.62" y1="78.57" x2="70.62" y2="77.33"/>
          <path id="Axo_panel-8" data-name="Axo panel" class="cls-2" d="M65.94,79.74c-.9-.06-1.77-.29-2.47-.69l-16.32-9.42"/>
        </g>
      </g>
    </g>
    <g>
      <g id="Axo_Extrusion-7" data-name="Axo Extrusion">
        <g id="Axo_cap-2" data-name="Axo cap">
          <path class="cls-3" d="M49.04,43.34l-22.32,12.88c-.89,.52-1.44,1.47-1.44,2.49v.55L4.97,47.54c-.54-.31-.81-.72-.81-1.13v-2.21c0-.4,.27-.81,.81-1.12l19.85-11.46c1.08-.62,2.83-.62,3.91,0l20.31,11.73Z"/>
        </g>
      </g>
      <g id="Axo_Extrusion-8" data-name="Axo Extrusion">
        <g id="Axo_Surface_-6" data-name="Axo Surface*">
          <path class="cls-3" d="M83.77,64.39v2.21c0,.62-.41,1.24-1.23,1.71-.38,.22-.95,.27-1.41,.39l.12,.07c.82,.47,1.23,1.1,1.23,1.72v2.21c0,.62-.41,1.24-1.23,1.71-.73,.42-1.66,.65-2.61,.7v2.21c0,.62-.41,1.24-1.23,1.72-1.63,.94-4.29,.94-5.92,0l-.87-.47v.97c0,.62-.4,1.24-1.22,1.71-1.64,.95-4.29,.95-5.93,0l-16.32-9.42-19.29-10.45-2.58-2.11v-.55c0-1.03,.55-1.98,1.44-2.49l22.32-12.88,19.9,11.49,13.61,7.86c.82,.47,1.23,1.09,1.23,1.71Z"/>
        </g>
        <g id="Axo_Surface-5" data-name="Axo Surface">
          <path id="Axo_panel-9" data-name="Axo panel" class="cls-3" d="M80.8,66.71c-1.43,.25-3.05,.05-4.17-.61l-13.61-7.86"/>
        </g>
      </g>
      <g id="Axo_Extrusion-9" data-name="Axo Extrusion">
        <g id="Axo_Surface_-7" data-name="Axo Surface*">
          <path class="cls-3" d="M47.15,71.83c-.09,.06-.19,.12-.29,.18-.18,.11-.38,.2-.6,.29-1.9,.76-4.51,.48-5.82-.62l-12.59-10.3,3.66,2.1,15.63,8.35Z"/>
        </g>
      </g>
      <g id="Axo_Extrusion-10" data-name="Axo Extrusion">
        <g id="Axo_Surface-6" data-name="Axo Surface">
          <polyline class="cls-1" points="63.01 58.25 76.62 66.11 81.13 68.71"/>
        </g>
        <g id="Axo_Surface_-8" data-name="Axo Surface*">
          <path id="Axo_panel-10" data-name="Axo panel" class="cls-1" d="M57.09,61.67l18.24,10.53c1.17,.67,2.85,.87,4.31,.58"/>
        </g>
      </g>
      <g id="Axo_Extrusion-11" data-name="Axo Extrusion">
        <g id="Axo_Surface_-9" data-name="Axo Surface*">
          <path class="cls-1" d="M78.64,75.11c0-.62-.41-1.24-1.22-1.71l-2.09-1.21-18.24-10.53"/>
        </g>
        <g id="Axo_Surface-7" data-name="Axo Surface">
          <path id="Axo_panel-11" data-name="Axo panel" class="cls-1" d="M72.87,77.36c-.5-.12-.98-.3-1.39-.53l-2.09-1.21-18.24-10.53"/>
        </g>
      </g>
      <g id="Axo_Extrusion-12" data-name="Axo Extrusion">
        <g id="Axo_Surface_-10" data-name="Axo Surface*">
          <path class="cls-1" d="M70.62,78.57v-1.24c0-.62-.41-1.24-1.22-1.71l-18.24-10.53"/>
        </g>
        <g id="Axo_Surface-8" data-name="Axo Surface">
          <line class="cls-1" x1="70.62" y1="78.57" x2="70.62" y2="77.33"/>
          <path id="Axo_panel-12" data-name="Axo panel" class="cls-1" d="M65.94,79.74c-.9-.06-1.77-.29-2.47-.69l-16.32-9.42"/>
        </g>
      </g>
    </g>
  </g>
</svg>