<?xml version="1.0" encoding="UTF-8"?>
<svg id="Layer_1" data-name="Layer 1" xmlns="http://www.w3.org/2000/svg" width="100" height="100" viewBox="0 0 100 100">
  <defs>
    <style>
      .cls-1, .cls-2 {
        stroke-width: .5px;
      }

      .cls-1, .cls-2, .cls-3 {
        stroke: #231f20;
        stroke-linecap: round;
        stroke-linejoin: round;
      }

      .cls-1, .cls-3 {
        fill: none;
      }

      .cls-2 {
        fill: #fff;
      }

      .cls-3 {
        stroke-width: 2px;
      }
    </style>
  </defs>
  <g>
    <path class="cls-3" d="M45.39,64.31v12.43s-23.61-22.59-27.9-25.07c-3.62-2.09-6.42-3.2-6.87-.06-.27,1.83-3,.99-3-2.17,0-7.08,7.91-2.37,20.77,5.06,4.19,2.42,8.59,4.96,11.87,6.85h.01c3.06,1.76,5.13,2.96,5.13,2.96Z"/>
    <path class="cls-3" d="M45.39,64.31v12.43s-23.61-22.59-27.9-25.07c-3.62-2.09-6.42-3.2-6.87-.06-.27,1.83-3,.99-3-2.17,0-7.08,7.91-2.37,20.77,5.06,4.19,2.42,8.59,4.96,11.87,6.85h.01c3.06,1.76,5.13,2.96,5.13,2.96Z"/>
    <path class="cls-3" d="M84.4,37.39c-1.03,2.5-2.58,4.77-4.46,6.81-7.25-6.78-17.01-15.74-19.62-17.25-3.63-2.09-6.44-3.2-6.88-.07-.26,1.84-3,1-3-2.16,0-7.08,7.92-2.37,20.77,5.05,4.81,2.77,9.87,5.69,13.2,7.62Z"/>
    <path class="cls-3" d="M88.21,39.59v11.5c0,6.12-1.77,10.73-3.44,13.21-2.03,3.05-4.84,4.04-6.57,1.17-1.72-2.88-2.36-5.32-4.12-4.08-1.77,1.23-2.81,6.81-4.36,11.01-1.54,4.2-3.71,7.21-12.56,9.02-8.84,1.81-11.77-1.55-11.77-4.69v-12.43c7.78-1.37,37.26-14.69,42.82-24.72Z"/>
    <path class="cls-3" d="M88.21,39.59c-5.56,10.03-35.03,23.35-42.82,24.72,0,0-2.08-1.2-5.13-2.96,.7-.1,27.49-4.02,39.68-17.15,1.89-2.04,3.43-4.31,4.46-6.81,2.32,1.34,3.81,2.2,3.81,2.2Z"/>
    <path class="cls-3" d="M40.26,61.35h-.01"/>
  </g>
  <g>
    <path class="cls-2" d="M45.39,64.31v12.43s-23.61-22.59-27.9-25.07c-3.62-2.09-6.42-3.2-6.87-.06-.27,1.83-3,.99-3-2.17,0-7.08,7.91-2.37,20.77,5.06,4.19,2.42,8.59,4.96,11.87,6.85h.01c3.06,1.76,5.13,2.96,5.13,2.96Z"/>
    <path class="cls-2" d="M45.39,64.31v12.43s-23.61-22.59-27.9-25.07c-3.62-2.09-6.42-3.2-6.87-.06-.27,1.83-3,.99-3-2.17,0-7.08,7.91-2.37,20.77,5.06,4.19,2.42,8.59,4.96,11.87,6.85h.01c3.06,1.76,5.13,2.96,5.13,2.96Z"/>
    <path class="cls-2" d="M84.4,37.39c-1.03,2.5-2.58,4.77-4.46,6.81-7.25-6.78-17.01-15.74-19.62-17.25-3.63-2.09-6.44-3.2-6.88-.07-.26,1.84-3,1-3-2.16,0-7.08,7.92-2.37,20.77,5.05,4.81,2.77,9.87,5.69,13.2,7.62Z"/>
    <path class="cls-2" d="M88.21,39.59v11.5c0,6.12-1.77,10.73-3.44,13.21-2.03,3.05-4.84,4.04-6.57,1.17-1.72-2.88-2.36-5.32-4.12-4.08-1.77,1.23-2.81,6.81-4.36,11.01-1.54,4.2-3.71,7.21-12.56,9.02-8.84,1.81-11.77-1.55-11.77-4.69v-12.43c7.78-1.37,37.26-14.69,42.82-24.72Z"/>
    <path class="cls-2" d="M88.21,39.59c-5.56,10.03-35.03,23.35-42.82,24.72,0,0-2.08-1.2-5.13-2.96,.7-.1,27.49-4.02,39.68-17.15,1.89-2.04,3.43-4.31,4.46-6.81,2.32,1.34,3.81,2.2,3.81,2.2Z"/>
    <path class="cls-1" d="M40.26,61.35h-.01"/>
  </g>
</svg>