<?xml version="1.0" encoding="UTF-8"?>
<svg id="Layer_1" data-name="Layer 1" xmlns="http://www.w3.org/2000/svg" width="100" height="100" viewBox="0 0 100 100">
  <defs>
    <style>
      .cls-1, .cls-2, .cls-3, .cls-4, .cls-5 {
        stroke: #231f20;
      }

      .cls-1, .cls-2, .cls-4, .cls-5 {
        stroke-linecap: round;
        stroke-linejoin: round;
      }

      .cls-1, .cls-4 {
        fill: #fff;
      }

      .cls-1, .cls-5 {
        stroke-width: .19px;
      }

      .cls-2, .cls-3, .cls-5 {
        fill: none;
      }

      .cls-2, .cls-4 {
        stroke-width: .5px;
      }

      .cls-3 {
        stroke-width: 1.96px;
      }
    </style>
  </defs>
  <g>
    <path id="Axo_base" data-name="Axo base" class="cls-3" d="M55.66,55.84c0-2.75-3.86-5.97-8.62-5.97s-8.62,3.22-8.62,5.97v37.15c0,2.75,3.86,4.98,8.62,4.98s8.62-2.23,8.62-4.98V55.84Z"/>
    <path id="Axo_panel" data-name="Axo panel" class="cls-3" d="M42.41,33.17l-1.01-.59c-.34-.19-.54-.61-.54-1.2,0-1.19,.83-2.63,1.86-3.22,.51-.3,.98-.32,1.32-.13l1.01,.59"/>
    <path id="Axo_base-2" data-name="Axo base" class="cls-3" d="M42.41,33.17c-.34-.19-.54-.61-.54-1.2,0-1.19,.83-2.63,1.86-3.22,.51-.3,.98-.32,1.32-.13"/>
    <path id="Axo_base-3" data-name="Axo base" class="cls-3" d="M45.04,28.61c.34,.19,.54,.61,.54,1.2,0,1.19-.83,2.63-1.86,3.22-.51,.3-.98,.32-1.32,.13"/>
    <path id="Axo_panel-2" data-name="Axo panel" class="cls-3" d="M43.2,31.79c-.13-.08-.22-.24-.22-.48,0-.47,.33-1.04,.74-1.28,.2-.12,.39-.13,.52-.05"/>
    <path id="Axo_panel-3" data-name="Axo panel" class="cls-3" d="M44.25,29.99l2.12,1.22c-.13-.08-.32-.07-.52,.05-.41,.24-.74,.81-.74,1.28,0,.24,.08,.4,.22,.48l-2.12-1.22"/>
    <path id="Axo_base-4" data-name="Axo base" class="cls-3" d="M46.36,31.21c.13,.08,.22,.24,.22,.48,0,.47-.33,1.04-.74,1.28-.2,.12-.39,.13-.52,.05s-.22-.24-.22-.48c0-.47,.33-1.04,.74-1.28,.2-.12,.39-.13,.52-.05Z"/>
    <path id="Axo_panel-4" data-name="Axo panel" class="cls-3" d="M39.04,57.67c1.27,1.84,4.38,3.14,8.01,3.14s6.57-1.23,7.9-2.98"/>
    <path id="Axo_panel-5" data-name="Axo panel" class="cls-3" d="M45,49.77c0,.65,.91,1.18,2.04,1.18s2.04-.53,2.04-1.18v2.17c0,.65-.91,1.18-2.04,1.18s-2.04-.53-2.04-1.18v-2.17Z"/>
    <ellipse id="Axo_base-5" data-name="Axo base" class="cls-3" cx="47.05" cy="49.77" rx="2.04" ry="1.18"/>
    <path id="Axo_panel-6" data-name="Axo panel" class="cls-3" d="M52.13,44.97v4.83c0,.57-.52,1.14-1.55,1.46-1.17,.37-2.45,.19-3.52-.43l-2.66-1.53c-.22-.13-.33-.35-.33-.58v-8.42"/>
    <path id="Axo_panel-7" data-name="Axo panel" class="cls-3" d="M44.08,40.31v-6.17c0,.22,.11,.45,.33,.58l6.08,3.51c1.06,.61,2.34,.79,3.52,.43,1.03-.32,1.55-.89,1.55-1.46v6.17c0,.57-.52,1.14-1.55,1.46-1.17,.37-2.45,.19-3.52-.43l-2.15-1.24"/>
    <path id="Axo_base-6" data-name="Axo base" class="cls-3" d="M44.08,34.14c0-.22,.11-.45,.33-.58l1.94-1.12c.67-.39,1.5-.39,2.17,0l6.21,3.58c.56,.32,.83,.74,.83,1.16,0,.57-.52,1.14-1.55,1.46-1.17,.37-2.45,.19-3.52-.43l-6.08-3.51c-.22-.13-.33-.35-.33-.58Z"/>
    <polygon id="Axo_base-7" data-name="Axo base" class="cls-3" points="55.45 39.42 56.24 44.14 55.05 44.83 53.72 44.06 53.72 39.8 54.91 39.11 55.45 39.42"/>
    <path id="Axo_panel-8" data-name="Axo panel" class="cls-3" d="M45.07,32.13c0,.85,1.19,1.54,2.66,1.54s2.66-.69,2.66-1.54v1.9c0,.85-1.19,1.54-2.66,1.54s-2.66-.69-2.66-1.54v-1.9Z"/>
    <ellipse id="Axo_base-8" data-name="Axo base" class="cls-3" cx="47.73" cy="32.13" rx="2.66" ry="1.54"/>
    <path id="Axo_panel-9" data-name="Axo panel" class="cls-3" d="M45.92,31.91v-1.84c0,.58,.81,1.05,1.81,1.05s1.81-.47,1.81-1.05v1.84"/>
    <path id="Axo_panel-10" data-name="Axo panel" class="cls-3" d="M49.55,31.91c0,.58-.81,1.05-1.81,1.05s-1.81-.47-1.81-1.05"/>
    <ellipse id="Axo_base-9" data-name="Axo base" class="cls-3" cx="47.73" cy="30.07" rx="1.81" ry="1.05"/>
    <path id="Axo_panel-11" data-name="Axo panel" class="cls-3" d="M46.41,29.84v-1.34c0,.42,.59,.76,1.32,.76s1.32-.34,1.32-.76v1.34"/>
    <path id="Axo_panel-12" data-name="Axo panel" class="cls-3" d="M49.06,29.84c0,.42-.59,.76-1.32,.76s-1.32-.34-1.32-.76"/>
    <ellipse id="Axo_base-10" data-name="Axo base" class="cls-3" cx="47.73" cy="28.5" rx="1.32" ry=".76"/>
    <path id="Axo_panel-13" data-name="Axo panel" class="cls-3" d="M49.55,26.49v1.84c0,.58-.81,1.05-1.81,1.05s-1.81-.47-1.81-1.05v-1.84"/>
    <path id="Axo_base-11" data-name="Axo base" class="cls-3" d="M49.55,26.49c0,.58-.81,1.05-1.81,1.05s-1.81-.47-1.81-1.05"/>
    <path id="Axo_base-12" data-name="Axo base" class="cls-3" d="M45.92,26.49c0-.58,.81-1.05,1.81-1.05s1.81,.47,1.81,1.05"/>
    <path class="cls-3" d="M46.41,26.16v-6.28c0-2.15,.82-4.23,2.29-5.8l.35-.37,7.41-7.9c-.34,.37-.19,1.07,.34,1.57,.53,.5,1.24,.61,1.59,.24l-8.28,8.83c-.68,.72-1.06,1.68-1.06,2.67v7.04"/>
    <path class="cls-3" d="M49.06,26.16c0,.42-.59,.76-1.32,.76s-1.32-.34-1.32-.76"/>
    <ellipse id="Axo_base-13" data-name="Axo base" class="cls-3" cx="57.43" cy="6.72" rx=".76" ry="1.32" transform="translate(13.23 44) rotate(-46.82)"/>
    <path id="Axo_panel-14" data-name="Axo panel" class="cls-3" d="M58.58,2.3c-.48,.51-.15,1.59,.73,2.42s1.98,1.08,2.46,.58l-2.9,3.09c-.48,.51-1.58,.25-2.46-.58s-1.21-1.91-.73-2.42l2.9-3.09Z"/>
    <path id="Axo_base-14" data-name="Axo base" class="cls-3" d="M61.77,5.29c-.48,.51-1.58,.25-2.46-.58s-1.21-1.91-.73-2.42"/>
    <path id="Axo_base-15" data-name="Axo base" class="cls-3" d="M58.58,2.3c.48-.51,1.58-.25,2.46,.58s1.21,1.91,.73,2.42"/>
    <ellipse id="Axo_base-16" data-name="Axo base" class="cls-3" cx="60.18" cy="3.79" rx=".76" ry="1.32" transform="translate(16.23 45.08) rotate(-46.82)"/>
    <polyline class="cls-3" points="54 39.94 54.38 40.21 55.05 44.48"/>
    <path class="cls-3" d="M45,82.12c0,1.22-.99,1.82-2.21,1.35s-2.21-1.86-2.21-3.08,2.21-8.96,2.21-8.96c0,0,2.21,9.46,2.21,10.69Z"/>
    <path class="cls-3" d="M43.39,81.74c0,.56-.27,.92-.6,.79s-.6-.69-.6-1.26,.6-4.3,.6-4.3c0,0,.6,4.21,.6,4.77Z"/>
  </g>
  <g>
    <path id="Axo_base-17" data-name="Axo base" class="cls-4" d="M55.66,55.84c0-2.75-3.86-5.97-8.62-5.97s-8.62,3.22-8.62,5.97v37.15c0,2.75,3.86,4.98,8.62,4.98s8.62-2.23,8.62-4.98V55.84Z"/>
    <path id="Axo_panel-15" data-name="Axo panel" class="cls-4" d="M42.41,33.17l-1.01-.59c-.34-.19-.54-.61-.54-1.2,0-1.19,.83-2.63,1.86-3.22,.51-.3,.98-.32,1.32-.13l1.01,.59"/>
    <path id="Axo_base-18" data-name="Axo base" class="cls-5" d="M42.41,33.17c-.34-.19-.54-.61-.54-1.2,0-1.19,.83-2.63,1.86-3.22,.51-.3,.98-.32,1.32-.13"/>
    <path id="Axo_base-19" data-name="Axo base" class="cls-4" d="M45.04,28.61c.34,.19,.54,.61,.54,1.2,0,1.19-.83,2.63-1.86,3.22-.51,.3-.98,.32-1.32,.13"/>
    <path id="Axo_panel-16" data-name="Axo panel" class="cls-5" d="M43.2,31.79c-.13-.08-.22-.24-.22-.48,0-.47,.33-1.04,.74-1.28,.2-.12,.39-.13,.52-.05"/>
    <path id="Axo_panel-17" data-name="Axo panel" class="cls-4" d="M44.25,29.99l2.12,1.22c-.13-.08-.32-.07-.52,.05-.41,.24-.74,.81-.74,1.28,0,.24,.08,.4,.22,.48l-2.12-1.22"/>
    <path id="Axo_base-20" data-name="Axo base" class="cls-4" d="M46.36,31.21c.13,.08,.22,.24,.22,.48,0,.47-.33,1.04-.74,1.28-.2,.12-.39,.13-.52,.05s-.22-.24-.22-.48c0-.47,.33-1.04,.74-1.28,.2-.12,.39-.13,.52-.05Z"/>
    <path id="Axo_panel-18" data-name="Axo panel" class="cls-2" d="M39.04,57.67c1.27,1.84,4.38,3.14,8.01,3.14s6.57-1.23,7.9-2.98"/>
    <path id="Axo_panel-19" data-name="Axo panel" class="cls-4" d="M45,49.77c0,.65,.91,1.18,2.04,1.18s2.04-.53,2.04-1.18v2.17c0,.65-.91,1.18-2.04,1.18s-2.04-.53-2.04-1.18v-2.17Z"/>
    <ellipse id="Axo_base-21" data-name="Axo base" class="cls-4" cx="47.05" cy="49.77" rx="2.04" ry="1.18"/>
    <path id="Axo_panel-20" data-name="Axo panel" class="cls-4" d="M52.13,44.97v4.83c0,.57-.52,1.14-1.55,1.46-1.17,.37-2.45,.19-3.52-.43l-2.66-1.53c-.22-.13-.33-.35-.33-.58v-8.42"/>
    <path id="Axo_panel-21" data-name="Axo panel" class="cls-4" d="M44.08,40.31v-6.17c0,.22,.11,.45,.33,.58l6.08,3.51c1.06,.61,2.34,.79,3.52,.43,1.03-.32,1.55-.89,1.55-1.46v6.17c0,.57-.52,1.14-1.55,1.46-1.17,.37-2.45,.19-3.52-.43l-2.15-1.24"/>
    <path id="Axo_base-22" data-name="Axo base" class="cls-4" d="M44.08,34.14c0-.22,.11-.45,.33-.58l1.94-1.12c.67-.39,1.5-.39,2.17,0l6.21,3.58c.56,.32,.83,.74,.83,1.16,0,.57-.52,1.14-1.55,1.46-1.17,.37-2.45,.19-3.52-.43l-6.08-3.51c-.22-.13-.33-.35-.33-.58Z"/>
    <polygon id="Axo_base-23" data-name="Axo base" class="cls-4" points="55.45 39.42 56.24 44.14 55.05 44.83 53.72 44.06 53.72 39.8 54.91 39.11 55.45 39.42"/>
    <path id="Axo_panel-22" data-name="Axo panel" class="cls-4" d="M45.07,32.13c0,.85,1.19,1.54,2.66,1.54s2.66-.69,2.66-1.54v1.9c0,.85-1.19,1.54-2.66,1.54s-2.66-.69-2.66-1.54v-1.9Z"/>
    <ellipse id="Axo_base-24" data-name="Axo base" class="cls-4" cx="47.73" cy="32.13" rx="2.66" ry="1.54"/>
    <path id="Axo_panel-23" data-name="Axo panel" class="cls-4" d="M45.92,31.91v-1.84c0,.58,.81,1.05,1.81,1.05s1.81-.47,1.81-1.05v1.84"/>
    <path id="Axo_panel-24" data-name="Axo panel" class="cls-5" d="M49.55,31.91c0,.58-.81,1.05-1.81,1.05s-1.81-.47-1.81-1.05"/>
    <ellipse id="Axo_base-25" data-name="Axo base" class="cls-4" cx="47.73" cy="30.07" rx="1.81" ry="1.05"/>
    <path id="Axo_panel-25" data-name="Axo panel" class="cls-4" d="M46.41,29.84v-1.34c0,.42,.59,.76,1.32,.76s1.32-.34,1.32-.76v1.34"/>
    <path id="Axo_panel-26" data-name="Axo panel" class="cls-5" d="M49.06,29.84c0,.42-.59,.76-1.32,.76s-1.32-.34-1.32-.76"/>
    <ellipse id="Axo_base-26" data-name="Axo base" class="cls-4" cx="47.73" cy="28.5" rx="1.32" ry=".76"/>
    <path id="Axo_panel-27" data-name="Axo panel" class="cls-4" d="M49.55,26.49v1.84c0,.58-.81,1.05-1.81,1.05s-1.81-.47-1.81-1.05v-1.84"/>
    <path id="Axo_base-27" data-name="Axo base" class="cls-1" d="M49.55,26.49c0,.58-.81,1.05-1.81,1.05s-1.81-.47-1.81-1.05"/>
    <path id="Axo_base-28" data-name="Axo base" class="cls-4" d="M45.92,26.49c0-.58,.81-1.05,1.81-1.05s1.81,.47,1.81,1.05"/>
    <path class="cls-4" d="M46.41,26.16v-6.28c0-2.15,.82-4.23,2.29-5.8l.35-.37,7.41-7.9c-.34,.37-.19,1.07,.34,1.57,.53,.5,1.24,.61,1.59,.24l-8.28,8.83c-.68,.72-1.06,1.68-1.06,2.67v7.04"/>
    <path class="cls-5" d="M49.06,26.16c0,.42-.59,.76-1.32,.76s-1.32-.34-1.32-.76"/>
    <ellipse id="Axo_base-29" data-name="Axo base" class="cls-4" cx="57.43" cy="6.72" rx=".76" ry="1.32" transform="translate(13.23 44) rotate(-46.82)"/>
    <path id="Axo_panel-28" data-name="Axo panel" class="cls-4" d="M58.58,2.3c-.48,.51-.15,1.59,.73,2.42s1.98,1.08,2.46,.58l-2.9,3.09c-.48,.51-1.58,.25-2.46-.58s-1.21-1.91-.73-2.42l2.9-3.09Z"/>
    <path id="Axo_base-30" data-name="Axo base" class="cls-1" d="M61.77,5.29c-.48,.51-1.58,.25-2.46-.58s-1.21-1.91-.73-2.42"/>
    <path id="Axo_base-31" data-name="Axo base" class="cls-4" d="M58.58,2.3c.48-.51,1.58-.25,2.46,.58s1.21,1.91,.73,2.42"/>
    <ellipse id="Axo_base-32" data-name="Axo base" class="cls-1" cx="60.18" cy="3.79" rx=".76" ry="1.32" transform="translate(16.23 45.08) rotate(-46.82)"/>
    <polyline class="cls-5" points="54 39.94 54.38 40.21 55.05 44.48"/>
    <path class="cls-4" d="M45,82.12c0,1.22-.99,1.82-2.21,1.35s-2.21-1.86-2.21-3.08,2.21-8.96,2.21-8.96c0,0,2.21,9.46,2.21,10.69Z"/>
    <path class="cls-1" d="M43.39,81.74c0,.56-.27,.92-.6,.79s-.6-.69-.6-1.26,.6-4.3,.6-4.3c0,0,.6,4.21,.6,4.77Z"/>
  </g>
</svg>