<?xml version="1.0" encoding="UTF-8"?>
<svg id="Layer_1" data-name="Layer 1" xmlns="http://www.w3.org/2000/svg" width="100" height="100" viewBox="0 0 100 100">
  <defs>
    <style>
      .cls-1, .cls-2 {
        fill: none;
      }

      .cls-1, .cls-2, .cls-3, .cls-4 {
        stroke: #231f20;
      }

      .cls-1, .cls-3 {
        stroke-width: .5px;
      }

      .cls-1, .cls-3, .cls-4 {
        stroke-linecap: round;
        stroke-linejoin: round;
      }

      .cls-2 {
        stroke-width: 2px;
      }

      .cls-3, .cls-4 {
        fill: #fff;
      }

      .cls-4 {
        stroke-width: .22px;
      }
    </style>
  </defs>
  <g>
    <path id="Axo_base" data-name="Axo base" class="cls-2" d="M43.38,55.44c2.87,1.66,8.57-.43,11.44-5.4,2.87-4.97,1.83-10.95-1.04-12.61L14.95,15.02c-2.87-1.66-7.53,1.03-10.4,6s-2.87,10.35,0,12.01l38.82,22.41Z"/>
    <path id="Axo_panel" data-name="Axo panel" class="cls-2" d="M51.49,36.95c-2.68,.21-5.92,2.68-8.11,6.48s-2.68,7.61-1.65,10.06"/>
    <path id="Axo_panel-2" data-name="Axo panel" class="cls-2" d="M56.14,47.96c-.68-.39-1.78,.24-2.47,1.42s-.68,2.45,0,2.85l-2.27-1.31c-.68-.39-.68-1.67,0-2.85s1.78-1.82,2.47-1.42l2.27,1.31Z"/>
    <ellipse id="Axo_base-2" data-name="Axo base" class="cls-2" cx="54.91" cy="50.09" rx="2.47" ry="1.42" transform="translate(-15.93 72.6) rotate(-60)"/>
    <path class="cls-2" d="M17.71,31.03c-1.28-.74-2.5-.07-2.74,1.5s.6,3.43,1.88,4.17,10.69,3.09,10.69,3.09c0,0-8.56-8.02-9.83-8.76Z"/>
    <g>
      <polyline class="cls-2" points="65.85 67.6 62.07 66.22 61.67 65.19"/>
      <g id="Axo_cap" data-name="Axo cap">
        <g id="Axo_Extrusion" data-name="Axo Extrusion">
          <g id="Axo_Surface_" data-name="Axo Surface*">
            <path id="Axo_panel-3" data-name="Axo panel" class="cls-2" d="M59.93,59.78c0,.78,.27,1.32,.71,1.57l-6.78-3.91c-.44-.25-.71-.8-.71-1.57v-5.4c0-.93,.5-1.8,1.31-2.27l2.34-1.35c.27-.15,.57-.14,.8,0l6.78,3.91"/>
          </g>
        </g>
      </g>
      <g id="Axo_Extrusion-2" data-name="Axo Extrusion">
        <g id="Axo_Surface_-2" data-name="Axo Surface*">
          <path id="Axo_panel-4" data-name="Axo panel" class="cls-2" d="M64.38,50.76l8.45,4.88c-.23-.13-.53-.15-.8,0l-2.34,1.35c-.81,.47-1.31,1.33-1.31,2.27v8.65c0,.78,.27,1.32,.71,1.57l-8.45-4.88c-.44-.25-.71-.8-.71-1.57v-4.63"/>
        </g>
        <g id="Axo_cap-2" data-name="Axo cap">
          <path id="Axo_base-3" data-name="Axo base" class="cls-2" d="M72.83,55.64c.23,.14,.4,.39,.4,.7v8.48c0,1.48-.59,2.92-1.68,3.93-.95,.88-1.86,1.08-2.46,.73-.44-.25-.71-.8-.71-1.57v-8.65c0-.93,.5-1.8,1.31-2.27l2.34-1.35c.27-.15,.57-.14,.8,0Z"/>
        </g>
      </g>
    </g>
    <ellipse id="Axo_base-4" data-name="Axo base" class="cls-2" cx="93.55" cy="86.65" rx="2.64" ry="1.52" transform="translate(-21.07 30.78) rotate(-16.82)"/>
    <path id="Axo_panel-5" data-name="Axo panel" class="cls-2" d="M91.03,87.42c.24,.81,1.57,1.12,2.97,.69s2.33-1.42,2.08-2.22l1.48,4.9c.24,.81-.69,1.8-2.08,2.22s-2.72,.11-2.97-.69l-1.48-4.9Z"/>
    <path id="Axo_base-5" data-name="Axo base" class="cls-2" d="M74.72,60.58c-.16,.09-.38,.08-.63-.06-.49-.28-.89-.97-.89-1.54,0-.28,.1-.48,.26-.58s.38-.08,.63,.06c.49,.28,.89,.97,.89,1.54,0,.28-.1,.48-.26,.58Z"/>
    <path id="Axo_panel-6" data-name="Axo panel" class="cls-2" d="M74.53,58.67c-.89-.51-2.33,.32-3.21,1.86s-.89,3.2,0,3.71l-1.99-1.15c-.89-.51-.89-2.17,0-3.71s2.33-2.37,3.21-1.86l1.99,1.15Z"/>
    <ellipse id="Axo_base-6" data-name="Axo base" class="cls-2" cx="72.93" cy="61.45" rx="3.21" ry="1.86" transform="translate(-16.76 93.88) rotate(-60)"/>
    <path id="Axo_panel-7" data-name="Axo panel" class="cls-2" d="M74.26,59.69l1.92,1.11c-.6-.35-1.58,.22-2.19,1.26s-.6,2.18,0,2.53l-1.92-1.11"/>
    <path id="Axo_panel-8" data-name="Axo panel" class="cls-2" d="M72.07,63.49c-.6-.35-.6-1.48,0-2.53s1.58-1.61,2.19-1.26"/>
    <ellipse id="Axo_base-7" data-name="Axo base" class="cls-2" cx="75.09" cy="62.7" rx="2.19" ry="1.26" transform="translate(-16.76 96.38) rotate(-60)"/>
    <path id="Axo_panel-9" data-name="Axo panel" class="cls-2" d="M76.12,61.46l1.4,.81c-.44-.25-1.15,.16-1.59,.92s-.44,1.59,0,1.84l-1.4-.81"/>
    <path id="Axo_panel-10" data-name="Axo panel" class="cls-2" d="M74.53,64.22c-.44-.25-.44-1.08,0-1.84s1.15-1.17,1.59-.92"/>
    <ellipse id="Axo_base-8" data-name="Axo base" class="cls-2" cx="76.72" cy="63.64" rx="1.59" ry=".92" transform="translate(-16.76 98.27) rotate(-60)"/>
    <path id="Axo_panel-11" data-name="Axo panel" class="cls-2" d="M77.73,66.75l-1.92-1.11c-.6-.35-.6-1.48,0-2.53s1.58-1.61,2.19-1.26l1.92,1.11"/>
    <path id="Axo_base-9" data-name="Axo base" class="cls-2" d="M77.73,66.75c-.6-.35-.6-1.48,0-2.53s1.58-1.61,2.19-1.26"/>
    <path id="Axo_base-10" data-name="Axo base" class="cls-2" d="M79.92,62.96c.6,.35,.6,1.48,0,2.53s-1.58,1.61-2.19,1.26"/>
    <path class="cls-2" d="M79.97,63.68l6.56,3.79c2.25,1.3,3.92,3.41,4.68,5.89l.18,.59,3.66,12.11,.08,.28v.03c-.01,.45-.54,.95-1.28,1.17-.8,.24-1.56,.08-1.76-.34,0,.07,.01,.13,.03,.2l-4.23-13.98c-.35-1.15-1.12-2.11-2.15-2.71l-7.36-4.25"/>
    <path class="cls-2" d="M95.16,86.46s-.02-.07-.04-.1v-.03l.04,.12Z"/>
    <path class="cls-2" d="M78.37,66.44c-.44-.25-.44-1.08,0-1.84s1.15-1.17,1.59-.92"/>
    <path class="cls-2" d="M17.15,32.95c-.59-.34-1.12-.27-1.19,.16s.36,1.05,.95,1.39,4.86,1.97,4.86,1.97c0,0-4.04-3.17-4.63-3.51Z"/>
    <path class="cls-2" d="M95.12,86.34l-.08-.28s.05,.09,.06,.14c.01,.05,.02,.1,.02,.15Z"/>
    <path id="Axo_panel-12" data-name="Axo panel" class="cls-2" d="M73.17,58.34c0,.19-.12,.37-.37,.51-.49,.28-1.29,.28-1.78,0-.25-.14-.37-.33-.37-.51"/>
    <path id="Axo_panel-13" data-name="Axo panel" class="cls-2" d="M70.65,58.34v-2.95c0,.19,.12,.37,.37,.51,.49,.28,1.29,.28,1.78,0,.25-.14,.37-.33,.37-.51v2.95"/>
    <path id="Axo_panel-14" data-name="Axo panel" class="cls-2" d="M75.09,54.31v1.41c0,.47-.31,.94-.93,1.3-1.24,.72-3.25,.72-4.49,0-.62-.36-.93-.83-.93-1.3v-1.41"/>
    <path id="Axo_base-11" data-name="Axo base" class="cls-2" d="M75.09,54.31c0,.47-.31,.94-.93,1.3-1.24,.72-3.25,.72-4.49,0-.62-.36-.93-.83-.93-1.3"/>
    <path id="Axo_base-12" data-name="Axo base" class="cls-2" d="M68.74,54.31c0-.47,.31-.94,.93-1.3,1.24-.72,3.25-.72,4.49,0,.62,.36,.93,.83,.93,1.3"/>
  </g>
  <g>
    <path id="Axo_base-13" data-name="Axo base" class="cls-3" d="M43.38,55.44c2.87,1.66,8.57-.43,11.44-5.4,2.87-4.97,1.83-10.95-1.04-12.61L14.95,15.02c-2.87-1.66-7.53,1.03-10.4,6s-2.87,10.35,0,12.01l38.82,22.41Z"/>
    <path id="Axo_panel-15" data-name="Axo panel" class="cls-1" d="M51.49,36.95c-2.68,.21-5.92,2.68-8.11,6.48s-2.68,7.61-1.65,10.06"/>
    <path id="Axo_panel-16" data-name="Axo panel" class="cls-3" d="M56.14,47.96c-.68-.39-1.78,.24-2.47,1.42s-.68,2.45,0,2.85l-2.27-1.31c-.68-.39-.68-1.67,0-2.85s1.78-1.82,2.47-1.42l2.27,1.31Z"/>
    <ellipse id="Axo_base-14" data-name="Axo base" class="cls-3" cx="54.91" cy="50.09" rx="2.47" ry="1.42" transform="translate(-15.93 72.6) rotate(-60)"/>
    <path class="cls-3" d="M17.71,31.03c-1.28-.74-2.5-.07-2.74,1.5s.6,3.43,1.88,4.17,10.69,3.09,10.69,3.09c0,0-8.56-8.02-9.83-8.76Z"/>
    <g>
      <polyline class="cls-3" points="65.85 67.6 62.07 66.22 61.67 65.19"/>
      <g id="Axo_cap-3" data-name="Axo cap">
        <g id="Axo_Extrusion-3" data-name="Axo Extrusion">
          <g id="Axo_Surface_-3" data-name="Axo Surface*">
            <path id="Axo_panel-17" data-name="Axo panel" class="cls-3" d="M59.93,59.78c0,.78,.27,1.32,.71,1.57l-6.78-3.91c-.44-.25-.71-.8-.71-1.57v-5.4c0-.93,.5-1.8,1.31-2.27l2.34-1.35c.27-.15,.57-.14,.8,0l6.78,3.91"/>
          </g>
        </g>
      </g>
      <g id="Axo_Extrusion-4" data-name="Axo Extrusion">
        <g id="Axo_Surface_-4" data-name="Axo Surface*">
          <path id="Axo_panel-18" data-name="Axo panel" class="cls-3" d="M64.38,50.76l8.45,4.88c-.23-.13-.53-.15-.8,0l-2.34,1.35c-.81,.47-1.31,1.33-1.31,2.27v8.65c0,.78,.27,1.32,.71,1.57l-8.45-4.88c-.44-.25-.71-.8-.71-1.57v-4.63"/>
        </g>
        <g id="Axo_cap-4" data-name="Axo cap">
          <path id="Axo_base-15" data-name="Axo base" class="cls-3" d="M72.83,55.64c.23,.14,.4,.39,.4,.7v8.48c0,1.48-.59,2.92-1.68,3.93-.95,.88-1.86,1.08-2.46,.73-.44-.25-.71-.8-.71-1.57v-8.65c0-.93,.5-1.8,1.31-2.27l2.34-1.35c.27-.15,.57-.14,.8,0Z"/>
        </g>
      </g>
    </g>
    <ellipse id="Axo_base-16" data-name="Axo base" class="cls-3" cx="93.55" cy="86.65" rx="2.64" ry="1.52" transform="translate(-21.07 30.78) rotate(-16.82)"/>
    <path id="Axo_panel-19" data-name="Axo panel" class="cls-3" d="M91.03,87.42c.24,.81,1.57,1.12,2.97,.69s2.33-1.42,2.08-2.22l1.48,4.9c.24,.81-.69,1.8-2.08,2.22s-2.72,.11-2.97-.69l-1.48-4.9Z"/>
    <path id="Axo_base-17" data-name="Axo base" class="cls-3" d="M74.72,60.58c-.16,.09-.38,.08-.63-.06-.49-.28-.89-.97-.89-1.54,0-.28,.1-.48,.26-.58s.38-.08,.63,.06c.49,.28,.89,.97,.89,1.54,0,.28-.1,.48-.26,.58Z"/>
    <path id="Axo_panel-20" data-name="Axo panel" class="cls-3" d="M74.53,58.67c-.89-.51-2.33,.32-3.21,1.86s-.89,3.2,0,3.71l-1.99-1.15c-.89-.51-.89-2.17,0-3.71s2.33-2.37,3.21-1.86l1.99,1.15Z"/>
    <ellipse id="Axo_base-18" data-name="Axo base" class="cls-3" cx="72.93" cy="61.45" rx="3.21" ry="1.86" transform="translate(-16.76 93.88) rotate(-60)"/>
    <path id="Axo_panel-21" data-name="Axo panel" class="cls-3" d="M74.26,59.69l1.92,1.11c-.6-.35-1.58,.22-2.19,1.26s-.6,2.18,0,2.53l-1.92-1.11"/>
    <path id="Axo_panel-22" data-name="Axo panel" class="cls-1" d="M72.07,63.49c-.6-.35-.6-1.48,0-2.53s1.58-1.61,2.19-1.26"/>
    <ellipse id="Axo_base-19" data-name="Axo base" class="cls-3" cx="75.09" cy="62.7" rx="2.19" ry="1.26" transform="translate(-16.76 96.38) rotate(-60)"/>
    <path id="Axo_panel-23" data-name="Axo panel" class="cls-3" d="M76.12,61.46l1.4,.81c-.44-.25-1.15,.16-1.59,.92s-.44,1.59,0,1.84l-1.4-.81"/>
    <path id="Axo_panel-24" data-name="Axo panel" class="cls-1" d="M74.53,64.22c-.44-.25-.44-1.08,0-1.84s1.15-1.17,1.59-.92"/>
    <ellipse id="Axo_base-20" data-name="Axo base" class="cls-3" cx="76.72" cy="63.64" rx="1.59" ry=".92" transform="translate(-16.76 98.27) rotate(-60)"/>
    <path id="Axo_panel-25" data-name="Axo panel" class="cls-3" d="M77.73,66.75l-1.92-1.11c-.6-.35-.6-1.48,0-2.53s1.58-1.61,2.19-1.26l1.92,1.11"/>
    <path id="Axo_base-21" data-name="Axo base" class="cls-4" d="M77.73,66.75c-.6-.35-.6-1.48,0-2.53s1.58-1.61,2.19-1.26"/>
    <path id="Axo_base-22" data-name="Axo base" class="cls-3" d="M79.92,62.96c.6,.35,.6,1.48,0,2.53s-1.58,1.61-2.19,1.26"/>
    <path class="cls-3" d="M79.97,63.68l6.56,3.79c2.25,1.3,3.92,3.41,4.68,5.89l.18,.59,3.66,12.11,.08,.28v.03c-.01,.45-.54,.95-1.28,1.17-.8,.24-1.56,.08-1.76-.34,0,.07,.01,.13,.03,.2l-4.23-13.98c-.35-1.15-1.12-2.11-2.15-2.71l-7.36-4.25"/>
    <path class="cls-3" d="M95.16,86.46s-.02-.07-.04-.1v-.03l.04,.12Z"/>
    <path class="cls-1" d="M78.37,66.44c-.44-.25-.44-1.08,0-1.84s1.15-1.17,1.59-.92"/>
    <path class="cls-4" d="M17.15,32.95c-.59-.34-1.12-.27-1.19,.16s.36,1.05,.95,1.39,4.86,1.97,4.86,1.97c0,0-4.04-3.17-4.63-3.51Z"/>
    <path class="cls-4" d="M95.12,86.34l-.08-.28s.05,.09,.06,.14c.01,.05,.02,.1,.02,.15Z"/>
    <path id="Axo_panel-26" data-name="Axo panel" class="cls-4" d="M73.17,58.34c0,.19-.12,.37-.37,.51-.49,.28-1.29,.28-1.78,0-.25-.14-.37-.33-.37-.51"/>
    <path id="Axo_panel-27" data-name="Axo panel" class="cls-3" d="M70.65,58.34v-2.95c0,.19,.12,.37,.37,.51,.49,.28,1.29,.28,1.78,0,.25-.14,.37-.33,.37-.51v2.95"/>
    <path id="Axo_panel-28" data-name="Axo panel" class="cls-3" d="M75.09,54.31v1.41c0,.47-.31,.94-.93,1.3-1.24,.72-3.25,.72-4.49,0-.62-.36-.93-.83-.93-1.3v-1.41"/>
    <path id="Axo_base-23" data-name="Axo base" class="cls-1" d="M75.09,54.31c0,.47-.31,.94-.93,1.3-1.24,.72-3.25,.72-4.49,0-.62-.36-.93-.83-.93-1.3"/>
    <path id="Axo_base-24" data-name="Axo base" class="cls-3" d="M68.74,54.31c0-.47,.31-.94,.93-1.3,1.24-.72,3.25-.72,4.49,0,.62,.36,.93,.83,.93,1.3"/>
  </g>
</svg>