<?xml version="1.0" encoding="UTF-8"?>
<svg id="Layer_1" data-name="Layer 1" xmlns="http://www.w3.org/2000/svg" width="100" height="100" viewBox="0 0 100 100">
  <defs>
    <style>
      .cls-1, .cls-2 {
        stroke-linecap: round;
        stroke-linejoin: round;
        stroke-width: .5px;
      }

      .cls-1, .cls-2, .cls-3 {
        stroke: #000;
      }

      .cls-1, .cls-3 {
        fill: none;
      }

      .cls-2 {
        fill: #fff;
      }

      .cls-3 {
        stroke-width: 2px;
      }
    </style>
  </defs>
  <g>
    <g>
      <path class="cls-3" d="M49.78,45.8s-7.3-2.21-11.05-4.14c-4.6-2.37-7.68-6.19-15.59-10.79-3.73-2.09-8.13-4.97-13.09-4.51-.46,.04-.96,.25-1.35,.52-.39,.25-.74,.66-.97,1.08,0,0,0,0,0,0-.23,.39-.34,.96-.36,1.38,0,.27,.03,.54,.1,.81,0,0,0,.01,0,.02,.08,.34,.25,.75,.44,1.07,1.62,2.57,4.17,4.88,6.65,6.54,6.67,4.5,15.46,7.04,19.53,9.6,3.59,2.27,7.16,6.04,7.26,6.16"/>
      <ellipse class="cls-3" cx="14.59" cy="29.02" rx="1.48" ry="3.69" transform="translate(-17.47 34.22) rotate(-72.53)"/>
      <path class="cls-3" d="M48.99,49.92l-6.42,3.71c-.78,.45-1.41,.09-1.41-.82v-.68c0-.9,.63-2,1.41-2.45l6.42-3.71c.78-.45,1.41-.09,1.41,.82v.68c0,.9-.63,2-1.41,2.45Z"/>
      <path class="cls-3" d="M66.82,77.48c-9.5-5.49-22.39-22.85-24.37-26.16l6.64-3.83c5.72,1.14,35.8,8.59,45.3,14.07l-27.57,15.92Z"/>
    </g>
    <g>
      <path class="cls-2" d="M49.78,45.8s-7.3-2.21-11.05-4.14c-4.6-2.37-7.68-6.19-15.59-10.79-3.73-2.09-8.13-4.97-13.09-4.51-.46,.04-.96,.25-1.35,.52-.39,.25-.74,.66-.97,1.08,0,0,0,0,0,0-.23,.39-.34,.96-.36,1.38,0,.27,.03,.54,.1,.81,0,0,0,.01,0,.02,.08,.34,.25,.75,.44,1.07,1.62,2.57,4.17,4.88,6.65,6.54,6.67,4.5,15.46,7.04,19.53,9.6,3.59,2.27,7.16,6.04,7.26,6.16"/>
      <ellipse class="cls-2" cx="14.59" cy="29.02" rx="1.48" ry="3.69" transform="translate(-17.47 34.22) rotate(-72.53)"/>
      <path class="cls-2" d="M48.99,49.92l-6.42,3.71c-.78,.45-1.41,.09-1.41-.82v-.68c0-.9,.63-2,1.41-2.45l6.42-3.71c.78-.45,1.41-.09,1.41,.82v.68c0,.9-.63,2-1.41,2.45Z"/>
      <path class="cls-2" d="M66.82,77.48c-9.5-5.49-22.39-22.85-24.37-26.16l6.64-3.83c5.72,1.14,35.8,8.59,45.3,14.07l-27.57,15.92Z"/>
    </g>
  </g>
  <line id="Axo_Line" data-name="Axo Line" class="cls-1" x1="66.88" y1="74.75" x2="90.49" y2="61.12"/>
</svg>