<?xml version="1.0" encoding="utf-8"?>
<!-- Generator: Adobe Illustrator 26.5.0, SVG Export Plug-In . SVG Version: 6.00 Build 0)  -->
<svg version="1.1" xmlns="http://www.w3.org/2000/svg" xmlns:xlink="http://www.w3.org/1999/xlink" x="0px" y="0px"
	 viewBox="0 0 1121.1 166.8" style="enable-background:new 0 0 1121.1 166.8;" xml:space="preserve">
<style type="text/css">
	.st0{fill:none;stroke:#000000;stroke-width:5.72;stroke-linecap:round;stroke-linejoin:round;}
	.st1{fill:#FFFFFF;}
	.st2{fill:none;stroke:#000000;stroke-width:0.57;stroke-linecap:round;stroke-linejoin:round;}
	.st3{fill:none;stroke:#000000;stroke-width:2.29;stroke-linecap:round;stroke-linejoin:round;}
</style>
<g id="uuid-6873611b-c618-440a-8f15-280aed64b34e">
</g>
<g id="Layer_1">
	<g id="Axo_Extrusion">
		<g>
			<g id="Axo_Surface_">
				<polygon id="Axo_panel" class="st0" points="5,5 376.6,153.3 376.6,163 5,14.7 				"/>
				<rect id="Axo_panel-2" x="376.6" y="153.3" class="st0" width="723.4" height="9.7"/>
			</g>
			<g id="Axo_cap">
				<polygon id="Axo_base" class="st0" points="5,5 728.4,5 1100,153.3 376.6,153.3 				"/>
			</g>
		</g>
		<g>
			<g id="Axo_Surface_-2">
				<polygon id="Axo_panel-3" class="st1" points="5,5 376.6,153.3 376.6,163 5,14.7 				"/>
				<rect id="Axo_panel-4" x="376.6" y="153.3" class="st1" width="723.4" height="9.7"/>
			</g>
			<g id="Axo_cap-2">
				<polygon id="Axo_base-2" class="st1" points="5,5 728.4,5 1100,153.3 376.6,153.3 				"/>
			</g>
		</g>
		<g>
			<g id="Axo_Surface_-3">
				<polygon id="Axo_panel-5" class="st2" points="5,5 376.6,153.3 376.6,163 5,14.7 				"/>
				<rect id="Axo_panel-6" x="376.6" y="153.3" class="st2" width="723.4" height="9.7"/>
			</g>
			<g id="Axo_cap-3">
				<polygon id="Axo_base-3" class="st2" points="5,5 728.4,5 1100,153.3 376.6,153.3 				"/>
			</g>
		</g>
		<g>
			<g id="Axo_Surface_-4">
				<polygon id="Axo_panel-7" class="st3" points="5,5 376.6,153.3 376.6,163 5,14.7 				"/>
				<rect id="Axo_panel-8" x="376.6" y="153.3" class="st3" width="723.4" height="9.7"/>
			</g>
			<g id="Axo_cap-4">
				<polygon id="Axo_base-4" class="st3" points="5,5 728.4,5 1100,153.3 376.6,153.3 				"/>
			</g>
		</g>
	</g>
</g>
</svg>
