<?xml version="1.0" encoding="UTF-8"?><svg xmlns="http://www.w3.org/2000/svg" viewBox="0 0 523.46 425.82"><g style="isolation:isolate;"><g id="uuid-dd6d818c-51db-4a3b-8874-f0a0a0bf1464"><g id="uuid-a62cf0e5-3dff-437e-9b57-e6a0acd1a5ff"><g><g><g><path id="uuid-56d6716f-d09d-44f5-9d21-1930f904cd5d" d="M197.56,154.55c13.55,5,36.46-8.15,45.13-31.61,8.66-23.46-.21-48.35-13.75-53.35L45.81,1.96C32.26-3.04,14.25,11.93,5.59,35.39-3.07,58.85,.89,81.93,14.43,86.93l183.13,67.62Z" style="fill:none; stroke:#231f20; stroke-width:5px;"/><path id="uuid-b5b835da-3e96-4e84-8632-e6c2d1ffafcf" d="M333.42,130.45l4.73-3.93c1.57-1.31,4.01-1.57,6.93-.49,5.85,2.16,11.45,8.89,12.5,15.04,.53,3.07-.18,5.42-1.75,6.72l-4.73,3.93" style="fill:none; stroke:#231f20; stroke-width:5px;"/><path id="uuid-088fac8a-5a3e-4520-a5bc-2e41ba2bcffa" d="M333.42,130.45c1.57-1.31,4.01-1.57,6.93-.49,5.85,2.16,11.45,8.89,12.5,15.04,.53,3.07-.18,5.42-1.75,6.72" style="fill:none; stroke:#231f20; stroke-width:5px;"/><path id="uuid-7444fad0-8e5f-40c3-96a6-d8b64fe489cc" d="M351.1,151.72c-1.57,1.31-4.01,1.57-6.93,.49-5.85-2.16-11.45-8.89-12.5-15.04-.53-3.07,.18-5.42,1.75-6.72" style="fill:none; stroke:#231f20; stroke-width:5px;"/><path id="uuid-dd279d69-2d57-4058-935e-ac5e60e733da" d="M338.76,136.87c.62-.52,1.59-.62,2.75-.2,2.32,.86,4.54,3.53,4.96,5.96,.21,1.22-.07,2.15-.7,2.67" style="fill:none; stroke:#231f20; stroke-width:5px;"/><path id="uuid-9a4eba3f-3336-4be9-8486-ed5bc3a9d4f9" d="M345.76,145.3l-9.87,8.21c.62-.52,.9-1.45,.7-2.67-.42-2.44-2.64-5.11-4.96-5.96-1.16-.43-2.12-.32-2.75,.2l9.87-8.21" style="fill:none; stroke:#231f20; stroke-width:5px;"/><path id="uuid-8d2179ce-21b8-4c73-bd2f-02e0d68cf34b" d="M335.89,153.51c-.62,.52-1.59,.62-2.75,.2-2.32-.86-4.54-3.53-4.96-5.96-.21-1.22,.07-2.15,.7-2.67s1.59-.62,2.75-.2c2.32,.86,4.54,3.53,4.96,5.96,.21,1.22-.07,2.15-.7,2.67Z" style="fill:none; stroke:#231f20; stroke-width:5px;"/><path id="uuid-d4a9a681-7c9f-4fa0-8d3e-fae97c76cc69" d="M218.76,69.23c-11.37,2.9-23.43,15.86-30.05,33.78-6.43,17.42-5.91,34.62,.33,44.38" style="fill:none; stroke:#231f20; stroke-width:5px;"/><path id="uuid-17d12fa2-8d1d-4864-8f87-8b923b044e1c" d="M246.85,113.03c-3.21-1.19-7.48,2.36-9.53,7.92s-1.12,11.03,2.1,12.22l-10.7-3.95c-3.21-1.19-4.15-6.66-2.1-12.22,2.05-5.56,6.32-9.11,9.53-7.92l10.7,3.95Z" style="fill:none; stroke:#231f20; stroke-width:5px;"/><ellipse id="uuid-d5d704b5-6bfe-47cd-afaf-8525831be9b2" cx="243.13" cy="123.1" rx="10.74" ry="6.2" transform="translate(43.44 308.54) rotate(-69.73)" style="fill:none; stroke:#231f20; stroke-width:5px;"/><path id="uuid-a8ec26d1-9331-4c20-b10f-b8081c2ef605" d="M257.57,156.92l-23.81-8.79c-2.82-1.04-4.69-4.64-4.39-10.28,.33-6.45,3.53-12.43,8.49-16.55l12.4-10.31c1.04-.86,2.35-1,3.45-.59l41.48,15.32" style="fill:none; stroke:#231f20; stroke-width:5px;"/><path id="uuid-711c6c78-2577-4a13-b9c3-20ae6522eac4" d="M295.2,125.71l30.41,11.23c-1.11-.41-2.42-.27-3.45,.59l-28.39,23.6c-4.97,4.13-8.16,10.1-8.49,16.55-.29,5.64,1.58,9.24,4.39,10.28l-30.41-11.23c-2.82-1.04-4.69-4.64-4.39-10.28,.33-6.45,3.53-12.43,8.49-16.55l10.02-8.33" style="fill:none; stroke:#231f20; stroke-width:5px;"/><path id="uuid-f5f73a67-2a18-4bf2-869b-9b4681dc5f5d" d="M325.61,136.94c1.1,.41,2,1.36,2.23,2.69l1.99,11.59c.69,4.01-.82,8.09-3.95,10.69l-28.96,24.07c-2.6,2.16-5.18,2.75-7.25,1.99-2.82-1.04-4.69-4.64-4.39-10.28,.33-6.45,3.53-12.43,8.49-16.55l28.39-23.6c1.04-.86,2.35-1,3.45-.59Z" style="fill:none; stroke:#231f20; stroke-width:5px;"/><polygon id="uuid-5245e144-57e3-4771-bfcb-15d7576e9635" points="278.84 183.36 254.17 178.68 252.94 171.54 259.16 166.38 280.15 174.13 281.37 181.26 278.84 183.36" style="fill:none; stroke:#231f20; stroke-width:5px;"/><path id="uuid-f6d89880-d0bf-48f5-b0f2-86b197345068" d="M333.67,145.46c-4.19-1.55-9.75,3.08-12.43,10.33-2.68,7.25-1.45,14.38,2.73,15.93l-9.36-3.46c-4.19-1.55-5.41-8.68-2.73-15.93,2.68-7.25,8.24-11.88,12.43-10.33l9.36,3.46Z" style="fill:none; stroke:#231f20; stroke-width:5px;"/><ellipse id="uuid-681f06ab-dc53-42f4-a12b-af8c10635b0e" cx="328.82" cy="158.59" rx="14" ry="8.08" transform="translate(66.15 412.13) rotate(-69.73)" style="fill:none; stroke:#231f20; stroke-width:5px;"/><path id="uuid-48af290a-e430-4c1b-aa36-53e8d4d05efc" d="M333.25,150.06l9.06,3.35c-2.85-1.05-6.64,2.1-8.47,7.04-1.82,4.94-.99,9.8,1.86,10.85l-9.06-3.35" style="fill:none; stroke:#231f20; stroke-width:5px;"/><path id="uuid-f14a392f-4299-4cc7-a9f8-61b1e630e5bb" d="M326.65,167.95c-2.85-1.05-3.69-5.91-1.86-10.85s5.61-8.09,8.47-7.04" style="fill:none; stroke:#231f20; stroke-width:5px;"/><ellipse id="uuid-87a5243d-9f6d-4320-b2f5-5af8a60b3c9e" cx="339.01" cy="162.35" rx="9.53" ry="5.5" transform="translate(69.29 424.14) rotate(-69.73)" style="fill:none; stroke:#231f20; stroke-width:5px;"/><path id="uuid-99b196cb-ee00-495b-a667-b97ae8a4e8f4" d="M342.54,156.25l6.6,2.44c-2.08-.77-4.84,1.53-6.17,5.13s-.72,7.14,1.36,7.9l-6.6-2.44" style="fill:none; stroke:#231f20; stroke-width:5px;"/><path id="uuid-96d15ec3-5159-40c1-acfc-77f73f7c9879" d="M337.73,169.28c-2.08-.77-2.68-4.31-1.36-7.9s4.09-5.89,6.17-5.13" style="fill:none; stroke:#231f20; stroke-width:5px;"/><ellipse id="uuid-4333635b-9722-41da-88c1-f72dfc870a61" cx="346.74" cy="165.2" rx="6.94" ry="4.01" transform="translate(71.66 433.25) rotate(-69.73)" style="fill:none; stroke:#231f20; stroke-width:5px;"/><path id="uuid-cf276be2-f5f9-44cb-b7f4-4dee240ea355" d="M353.34,177.81l-9.06-3.35c-2.85-1.05-3.69-5.91-1.86-10.85,1.82-4.94,5.61-8.09,8.47-7.04l9.06,3.35" style="fill:none; stroke:#231f20; stroke-width:5px;"/><path id="uuid-6ece38cd-5eeb-40c1-b354-6731a4a66aba" d="M353.34,177.81c-2.85-1.05-3.69-5.91-1.86-10.85s5.61-8.09,8.47-7.04" style="fill:none; stroke:#231f20; stroke-width:5px;"/><path id="uuid-a7ae4d6a-f4fb-4d2f-849b-08382a7398e3" d="M359.95,159.92c2.85,1.05,3.69,5.91,1.86,10.85-1.82,4.94-5.61,8.09-8.47,7.04" style="fill:none; stroke:#231f20; stroke-width:5px;"/><path d="M360.67,162.95l30.95,11.43c10.62,3.92,19.34,11.74,24.4,21.86l1.2,2.4,25.45,50.93c-1.17-2.36-4.91-2.89-8.34-1.17-3.43,1.71-5.26,5.02-4.08,7.37l-28.44-56.9c-2.33-4.66-6.35-8.26-11.24-10.07l-34.71-12.81" style="fill:none; stroke:#231f20; stroke-width:5px;"/><path d="M355.86,175.98c-2.08-.77-2.68-4.31-1.35-7.91s4.08-5.89,6.17-5.12" style="fill:none; stroke:#231f20; stroke-width:5px;"/><ellipse id="uuid-599338f6-0d2f-4ddc-bedd-b86d1d967e96" cx="436.46" cy="252.67" rx="6.94" ry="4.01" transform="translate(-66.91 221.77) rotate(-26.55)" style="fill:none; stroke:#231f20; stroke-width:5px;"/><path id="uuid-6eb4f0d1-40ac-4a2d-9c66-58eb75dbccce" d="M456.15,266.37c-1.64-3.28-7.57-3.63-13.24-.8-5.68,2.84-8.95,7.79-7.31,11.07l-9.96-19.94c-1.64-3.28,1.64-8.23,7.31-11.07s11.6-2.48,13.24,.8l9.96,19.94Z" style="fill:none; stroke:#231f20; stroke-width:5px;"/><path id="uuid-c4f27447-8d80-4971-8091-10bb0c9f802e" d="M435.6,276.64c-1.64-3.28,1.64-8.23,7.31-11.07,5.68-2.84,11.6-2.48,13.24,.8" style="fill:none; stroke:#231f20; stroke-width:5px;"/><path id="uuid-ba3a6933-9cc0-4221-bbc6-642751e200b7" d="M456.15,266.37c1.64,3.28-1.64,8.23-7.31,11.07-5.68,2.84-11.6,2.48-13.24-.8" style="fill:none; stroke:#231f20; stroke-width:5px;"/><ellipse id="uuid-89ad91b6-333a-45b0-9254-226383a2bacc" cx="445.88" cy="271.5" rx="6.95" ry="4.01" transform="translate(-74.34 227.97) rotate(-26.55)" style="fill:none; stroke:#231f20; stroke-width:5px;"/><polyline points="278.96 175.27 276.93 176.67 254.66 172.18" style="fill:none; stroke:#231f20; stroke-width:5px;"/><path d="M87.38,54.14c-6.02-2.22-7.19-8.2-2.61-13.35,4.58-5.15,13.17-7.52,19.19-5.3,6.02,2.22,40.12,27.2,40.12,27.2,0,0-50.68-6.33-56.7-8.55Z" style="fill:none; stroke:#231f20; stroke-width:5px;"/><path d="M92.22,46.92c-2.78-1.03-4.03-3-2.78-4.4,1.25-1.4,4.52-1.71,7.3-.68,2.78,1.03,20.11,10.8,20.11,10.8,0,0-21.85-4.69-24.63-5.72Z" style="fill:none; stroke:#231f20; stroke-width:5px;"/></g><g><path id="uuid-17d23b33-7351-4e17-9607-ad0ef9815fe5" d="M197.56,154.55c13.55,5,36.46-8.15,45.13-31.61,8.66-23.46-.21-48.35-13.75-53.35L45.81,1.96C32.26-3.04,14.25,11.93,5.59,35.39-3.07,58.85,.89,81.93,14.43,86.93l183.13,67.62Z" style="fill:#fff; stroke:#231f20; stroke-linecap:round; stroke-linejoin:round; stroke-width:2px;"/><path id="uuid-f0861c84-9756-404d-99c5-61344be1d1ca" d="M333.42,130.45l4.73-3.93c1.57-1.31,4.01-1.57,6.93-.49,5.85,2.16,11.45,8.89,12.5,15.04,.53,3.07-.18,5.42-1.75,6.72l-4.73,3.93" style="fill:#fff; stroke:#231f20; stroke-linecap:round; stroke-linejoin:round; stroke-width:2px;"/><path id="uuid-be91f09a-fc4a-4fbb-b1a5-5f82a134ada3" d="M333.42,130.45c1.57-1.31,4.01-1.57,6.93-.49,5.85,2.16,11.45,8.89,12.5,15.04,.53,3.07-.18,5.42-1.75,6.72" style="fill:none; stroke:#231f20; stroke-linecap:round; stroke-linejoin:round;"/><path id="uuid-0f477188-b8b3-41f6-b7c4-26f1abd705e4" d="M351.1,151.72c-1.57,1.31-4.01,1.57-6.93,.49-5.85-2.16-11.45-8.89-12.5-15.04-.53-3.07,.18-5.42,1.75-6.72" style="fill:#fff; stroke:#231f20; stroke-linecap:round; stroke-linejoin:round; stroke-width:2px;"/><path id="uuid-81c5d2a1-6c46-4aff-aec9-e4969f06f24d" d="M338.76,136.87c.62-.52,1.59-.62,2.75-.2,2.32,.86,4.54,3.53,4.96,5.96,.21,1.22-.07,2.15-.7,2.67" style="fill:none; stroke:#231f20; stroke-linecap:round; stroke-linejoin:round;"/><path id="uuid-6ac7f472-38f6-4e14-8f2c-53295a15b5a6" d="M345.76,145.3l-9.87,8.21c.62-.52,.9-1.45,.7-2.67-.42-2.44-2.64-5.11-4.96-5.96-1.16-.43-2.12-.32-2.75,.2l9.87-8.21" style="fill:#fff; stroke:#231f20; stroke-linecap:round; stroke-linejoin:round; stroke-width:2px;"/><path id="uuid-1e1eba72-8f52-4af7-9bd8-5091fddadb08" d="M335.89,153.51c-.62,.52-1.59,.62-2.75,.2-2.32-.86-4.54-3.53-4.96-5.96-.21-1.22,.07-2.15,.7-2.67s1.59-.62,2.75-.2c2.32,.86,4.54,3.53,4.96,5.96,.21,1.22-.07,2.15-.7,2.67Z" style="fill:#fff; stroke:#231f20; stroke-linecap:round; stroke-linejoin:round; stroke-width:2px;"/><path id="uuid-b3a29da0-e23a-4340-b00c-307ed8802abf" d="M218.76,69.23c-11.37,2.9-23.43,15.86-30.05,33.78-6.43,17.42-5.91,34.62,.33,44.38" style="fill:none; stroke:#231f20; stroke-linecap:round; stroke-linejoin:round;"/><path id="uuid-d0c7e25d-12bb-40f0-b792-992db58cdd13" d="M246.85,113.03c-3.21-1.19-7.48,2.36-9.53,7.92s-1.12,11.03,2.1,12.22l-10.7-3.95c-3.21-1.19-4.15-6.66-2.1-12.22,2.05-5.56,6.32-9.11,9.53-7.92l10.7,3.95Z" style="fill:#fff; stroke:#231f20; stroke-linecap:round; stroke-linejoin:round; stroke-width:2px;"/><ellipse id="uuid-e413b8de-c32a-4fb0-ba00-335fb0433a8b" cx="243.13" cy="123.1" rx="10.74" ry="6.2" transform="translate(43.44 308.54) rotate(-69.73)" style="fill:#fff; stroke:#231f20; stroke-linecap:round; stroke-linejoin:round; stroke-width:2px;"/><path id="uuid-8d9e9451-cb22-497e-9495-8d9466665d2f" d="M257.57,156.92l-23.81-8.79c-2.82-1.04-4.69-4.64-4.39-10.28,.33-6.45,3.53-12.43,8.49-16.55l12.4-10.31c1.04-.86,2.35-1,3.45-.59l41.48,15.32" style="fill:#fff; stroke:#231f20; stroke-linecap:round; stroke-linejoin:round; stroke-width:2px;"/><path id="uuid-185bc369-c72d-434c-8e44-b8bdb78d4e64" d="M295.2,125.71l30.41,11.23c-1.11-.41-2.42-.27-3.45,.59l-28.39,23.6c-4.97,4.13-8.16,10.1-8.49,16.55-.29,5.64,1.58,9.24,4.39,10.28l-30.41-11.23c-2.82-1.04-4.69-4.64-4.39-10.28,.33-6.45,3.53-12.43,8.49-16.55l10.02-8.33" style="fill:#fff; stroke:#231f20; stroke-linecap:round; stroke-linejoin:round; stroke-width:2px;"/><path id="uuid-732ae21d-16af-4cfc-8834-8d3e154351ca" d="M325.61,136.94c1.1,.41,2,1.36,2.23,2.69l1.99,11.59c.69,4.01-.82,8.09-3.95,10.69l-28.96,24.07c-2.6,2.16-5.18,2.75-7.25,1.99-2.82-1.04-4.69-4.64-4.39-10.28,.33-6.45,3.53-12.43,8.49-16.55l28.39-23.6c1.04-.86,2.35-1,3.45-.59Z" style="fill:#fff; stroke:#231f20; stroke-linecap:round; stroke-linejoin:round; stroke-width:2px;"/><polygon id="uuid-a78fa313-bae8-444f-babc-a9319841f0ec" points="278.84 183.36 254.17 178.68 252.94 171.54 259.16 166.38 280.15 174.13 281.37 181.26 278.84 183.36" style="fill:#fff; stroke:#231f20; stroke-linecap:round; stroke-linejoin:round; stroke-width:2px;"/><path id="uuid-90b3ea53-e73f-4072-b087-9c47dac345ec" d="M333.67,145.46c-4.19-1.55-9.75,3.08-12.43,10.33-2.68,7.25-1.45,14.38,2.73,15.93l-9.36-3.46c-4.19-1.55-5.41-8.68-2.73-15.93,2.68-7.25,8.24-11.88,12.43-10.33l9.36,3.46Z" style="fill:#fff; stroke:#231f20; stroke-linecap:round; stroke-linejoin:round; stroke-width:2px;"/><ellipse id="uuid-2643257b-8fc0-4d83-9c51-85079a9b12e1" cx="328.82" cy="158.59" rx="14" ry="8.08" transform="translate(66.15 412.13) rotate(-69.73)" style="fill:#fff; stroke:#231f20; stroke-linecap:round; stroke-linejoin:round; stroke-width:2px;"/><path id="uuid-e88ac571-31a9-4cdf-bf73-a52d6166fbc9" d="M333.25,150.06l9.06,3.35c-2.85-1.05-6.64,2.1-8.47,7.04-1.82,4.94-.99,9.8,1.86,10.85l-9.06-3.35" style="fill:#fff; stroke:#231f20; stroke-linecap:round; stroke-linejoin:round; stroke-width:2px;"/><path id="uuid-21e6fbdc-769c-4f63-9351-f5724c1bc237" d="M326.65,167.95c-2.85-1.05-3.69-5.91-1.86-10.85s5.61-8.09,8.47-7.04" style="fill:none; stroke:#231f20; stroke-linecap:round; stroke-linejoin:round;"/><ellipse id="uuid-3a048403-a165-4795-8352-3e7bffce88cb" cx="339.01" cy="162.35" rx="9.53" ry="5.5" transform="translate(69.29 424.14) rotate(-69.73)" style="fill:#fff; stroke:#231f20; stroke-linecap:round; stroke-linejoin:round; stroke-width:2px;"/><path id="uuid-fe8673cf-1ff4-48c4-86fe-4d8ab9e19d9a" d="M342.54,156.25l6.6,2.44c-2.08-.77-4.84,1.53-6.17,5.13s-.72,7.14,1.36,7.9l-6.6-2.44" style="fill:#fff; stroke:#231f20; stroke-linecap:round; stroke-linejoin:round; stroke-width:2px;"/><path id="uuid-8a63c3b4-b8f7-41fe-972b-ef7507004732" d="M337.73,169.28c-2.08-.77-2.68-4.31-1.36-7.9s4.09-5.89,6.17-5.13" style="fill:none; stroke:#231f20; stroke-linecap:round; stroke-linejoin:round;"/><ellipse id="uuid-4d69088b-62a2-4be4-af38-48fdfe6ff200" cx="346.74" cy="165.2" rx="6.94" ry="4.01" transform="translate(71.66 433.25) rotate(-69.73)" style="fill:#fff; stroke:#231f20; stroke-linecap:round; stroke-linejoin:round; stroke-width:2px;"/><path id="uuid-dacbe130-9579-49ed-853f-33cdd1decae3" d="M353.34,177.81l-9.06-3.35c-2.85-1.05-3.69-5.91-1.86-10.85,1.82-4.94,5.61-8.09,8.47-7.04l9.06,3.35" style="fill:#fff; stroke:#231f20; stroke-linecap:round; stroke-linejoin:round; stroke-width:2px;"/><path id="uuid-9960b50e-4d96-4999-b9db-9bb260459db3" d="M353.34,177.81c-2.85-1.05-3.69-5.91-1.86-10.85s5.61-8.09,8.47-7.04" style="fill:#fff; stroke:#231f20; stroke-linecap:round; stroke-linejoin:round;"/><path id="uuid-c216b6be-d6b7-4766-a479-82b22cd984f0" d="M359.95,159.92c2.85,1.05,3.69,5.91,1.86,10.85-1.82,4.94-5.61,8.09-8.47,7.04" style="fill:#fff; stroke:#231f20; stroke-linecap:round; stroke-linejoin:round; stroke-width:2px;"/><path d="M360.67,162.95l30.95,11.43c10.62,3.92,19.34,11.74,24.4,21.86l1.2,2.4,25.45,50.93c-1.17-2.36-4.91-2.89-8.34-1.17-3.43,1.71-5.26,5.02-4.08,7.37l-28.44-56.9c-2.33-4.66-6.35-8.26-11.24-10.07l-34.71-12.81" style="fill:#fff; stroke:#231f20; stroke-linecap:round; stroke-linejoin:round; stroke-width:2px;"/><path d="M355.86,175.98c-2.08-.77-2.68-4.31-1.35-7.91s4.08-5.89,6.17-5.12" style="fill:none; stroke:#231f20; stroke-linecap:round; stroke-linejoin:round;"/><ellipse id="uuid-a061ab44-8f8f-441f-8427-ec20f2896a3d" cx="436.46" cy="252.67" rx="6.94" ry="4.01" transform="translate(-66.91 221.77) rotate(-26.55)" style="fill:#fff; stroke:#231f20; stroke-linecap:round; stroke-linejoin:round; stroke-width:2px;"/><path id="uuid-3bcd95b3-04b7-48ab-9e1c-830d5ef21e2f" d="M456.15,266.37c-1.64-3.28-7.57-3.63-13.24-.8-5.68,2.84-8.95,7.79-7.31,11.07l-9.96-19.94c-1.64-3.28,1.64-8.23,7.31-11.07s11.6-2.48,13.24,.8l9.96,19.94Z" style="fill:#fff; stroke:#231f20; stroke-linecap:round; stroke-linejoin:round; stroke-width:2px;"/><path id="uuid-d6849257-dd6a-448b-a1f1-b9665c214de5" d="M435.6,276.64c-1.64-3.28,1.64-8.23,7.31-11.07,5.68-2.84,11.6-2.48,13.24,.8" style="fill:#fff; stroke:#231f20; stroke-linecap:round; stroke-linejoin:round;"/><path id="uuid-4aec89ee-56e6-4840-b9c9-bdee76454e68" d="M456.15,266.37c1.64,3.28-1.64,8.23-7.31,11.07-5.68,2.84-11.6,2.48-13.24-.8" style="fill:#fff; stroke:#231f20; stroke-linecap:round; stroke-linejoin:round; stroke-width:2px;"/><ellipse id="uuid-0568c9d4-4cb2-44c4-ad4a-b9909facfaed" cx="445.88" cy="271.5" rx="6.95" ry="4.01" transform="translate(-74.34 227.97) rotate(-26.55)" style="fill:#fff; stroke:#231f20; stroke-linecap:round; stroke-linejoin:round;"/><polyline points="278.96 175.27 276.93 176.67 254.66 172.18" style="fill:none; stroke:#231f20; stroke-linecap:round; stroke-linejoin:round;"/><path d="M87.38,54.14c-6.02-2.22-7.19-8.2-2.61-13.35,4.58-5.15,13.17-7.52,19.19-5.3,6.02,2.22,40.12,27.2,40.12,27.2,0,0-50.68-6.33-56.7-8.55Z" style="fill:#fff; stroke:#231f20; stroke-linecap:round; stroke-linejoin:round; stroke-width:2px;"/><path d="M92.22,46.92c-2.78-1.03-4.03-3-2.78-4.4,1.25-1.4,4.52-1.71,7.3-.68,2.78,1.03,20.11,10.8,20.11,10.8,0,0-21.85-4.69-24.63-5.72Z" style="fill:#fff; stroke:#231f20; stroke-linecap:round; stroke-linejoin:round;"/></g></g><g style="mix-blend-mode:multiply;"><path d="M521.45,425.56c-5.79,2.87-20.86-18.03-35.76-42.22s-29.63-51.66-34.72-61.94c-10.19-20.55-20.61-36.14-3.32-44.71,17.29-8.57,23.39,9.16,33.58,29.71,5.94,11.98,22.55,48.52,33.09,78.07,7.54,21.14,11.97,38.7,7.14,41.09Z" style="fill:#51c8ff; opacity:0;"/><path d="M447.68,276.75c17.22-8.54,23.27,9.06,33.38,29.46,5.04,10.18,17.85,38.22,27.99,64.48,1.71,4.42,3.34,8.79,4.84,13.02,7.47,20.99,11.85,38.41,7.05,40.8-5.76,2.86-20.74-17.88-35.54-41.89s-29.42-51.27-34.47-61.47c-10.11-20.4-20.46-35.87-3.24-44.4Z" style="fill:#51c8ff; opacity:.05;"/><path d="M447.71,276.81c17.15-8.5,23.14,8.97,33.18,29.21,5.01,10.1,17.72,37.94,27.77,64.01,1.69,4.39,3.31,8.73,4.8,12.93,7.41,20.83,11.74,38.12,6.95,40.5-5.74,2.85-20.62-17.73-35.31-41.55-14.69-23.82-29.21-50.88-34.23-61-10.04-20.24-20.31-35.59-3.16-44.09Z" style="fill:#51c8ff; opacity:.1;"/><path d="M447.74,276.87c17.08-8.47,23.02,8.88,32.98,28.97,4.97,10.03,17.58,37.66,27.55,63.54,1.68,4.36,3.28,8.67,4.76,12.83,7.34,20.67,11.63,37.84,6.86,40.2-5.72,2.83-20.49-17.58-35.09-41.22s-29-50.49-33.98-60.54c-9.96-20.09-20.17-35.32-3.09-43.79Z" style="fill:#51c8ff; opacity:.14;"/><path d="M447.77,276.93c17.01-8.43,22.9,8.78,32.78,28.72,4.93,9.95,17.45,37.38,27.33,63.07,1.66,4.33,3.25,8.6,4.72,12.74,7.27,20.51,11.51,37.55,6.77,39.9-5.69,2.82-20.37-17.43-34.86-40.88-14.49-23.45-28.79-50.1-33.73-60.07-9.88-19.94-20.02-35.05-3.01-43.48Z" style="fill:#51c8ff; opacity:.19;"/><path d="M447.8,276.99c16.94-8.4,22.78,8.69,32.58,28.47,4.9,9.87,17.31,37.1,27.11,62.59,1.65,4.29,3.23,8.54,4.68,12.65,7.21,20.35,11.4,37.26,6.67,39.6-5.67,2.81-20.25-17.28-34.63-40.54-14.39-23.27-28.58-49.71-33.48-59.6-9.81-19.78-19.87-34.77-2.93-43.17Z" style="fill:#51c8ff; opacity:.24;"/><path d="M447.83,277.06c16.87-8.36,22.65,8.59,32.39,28.22,4.86,9.8,17.18,36.82,26.89,62.12,1.64,4.26,3.2,8.48,4.64,12.55,7.14,20.2,11.29,36.97,6.58,39.31-5.65,2.8-20.13-17.13-34.41-40.21-14.28-23.08-28.37-49.32-33.23-59.13-9.73-19.63-19.73-34.5-2.86-42.86Z" style="fill:#51c8ff; opacity:.29;"/><path d="M447.86,277.12c16.8-8.33,22.53,8.5,32.19,27.98,4.82,9.72,17.04,36.54,26.67,61.65,1.62,4.23,3.17,8.41,4.6,12.46,7.08,20.04,11.17,36.68,6.49,39.01-5.63,2.79-20-16.98-34.18-39.87-14.18-22.9-28.16-48.93-32.99-58.67-9.66-19.48-19.58-34.23-2.78-42.56Z" style="fill:#51c8ff; opacity:.33;"/><path d="M447.89,277.18c16.73-8.3,22.41,8.41,31.99,27.73,4.78,9.65,16.91,36.26,26.45,61.18,1.61,4.2,3.14,8.35,4.56,12.37,7.01,19.88,11.06,36.4,6.39,38.71-5.6,2.78-19.88-16.83-33.96-39.54s-27.95-48.54-32.74-58.2c-9.58-19.32-19.43-33.95-2.7-42.25Z" style="fill:#51c8ff; opacity:.38;"/><path d="M447.92,277.24c16.66-8.26,22.29,8.31,31.79,27.48,4.75,9.57,16.77,35.98,26.24,60.71,1.59,4.17,3.12,8.29,4.52,12.27,6.94,19.72,10.95,36.11,6.3,38.41-5.58,2.77-19.76-16.68-33.73-39.2s-27.74-48.14-32.49-57.73c-9.5-19.17-19.29-33.68-2.62-41.94Z" style="fill:#51c8ff; opacity:.43;"/><path d="M447.95,277.3c16.59-8.23,22.17,8.22,31.59,27.23,4.71,9.5,16.64,35.7,26.02,60.24,1.58,4.14,3.09,8.23,4.48,12.18,6.88,19.56,10.83,35.82,6.21,38.11-5.56,2.75-19.64-16.52-33.51-38.87-13.87-22.34-27.53-47.75-32.24-57.26-9.43-19.02-19.14-33.41-2.55-41.63Z" style="fill:#51c8ff; opacity:.48;"/><path d="M447.98,277.36c16.53-8.19,22.04,8.12,31.39,26.99,4.67,9.42,16.5,35.42,25.8,59.76,1.57,4.1,3.06,8.16,4.44,12.09,6.81,19.41,10.72,35.53,6.11,37.82-5.53,2.74-19.51-16.37-33.28-38.53-13.77-22.16-27.32-47.36-31.99-56.79-9.35-18.86-19-33.13-2.47-41.33Z" style="fill:#51c8ff; opacity:.52;"/><path d="M448.01,277.42c16.46-8.16,21.92,8.03,31.2,26.74,4.63,9.35,16.37,35.14,25.58,59.29,1.55,4.07,3.03,8.1,4.4,11.99,6.74,19.25,10.61,35.24,6.02,37.52-5.51,2.73-19.39-16.22-33.05-38.2-13.66-21.98-27.11-46.97-31.75-56.33-9.28-18.71-18.85-32.86-2.39-41.02Z" style="fill:#51c8ff; opacity:.57;"/><path d="M448.04,277.48c16.39-8.12,21.8,7.93,31,26.49,4.6,9.27,16.23,34.85,25.36,58.82,1.54,4.04,3.01,8.04,4.36,11.9,6.68,19.09,10.49,34.96,5.93,37.22-5.49,2.72-19.27-16.07-32.83-37.86-13.56-21.79-26.9-46.58-31.5-55.86-9.2-18.56-18.7-32.59-2.32-40.71Z" style="fill:#51c8ff; opacity:.62;"/><path d="M448.07,277.54c16.32-8.09,21.68,7.84,30.8,26.24,4.56,9.19,16.1,34.57,25.14,58.35,1.53,4.01,2.98,7.97,4.32,11.81,6.61,18.93,10.38,34.67,5.83,36.92-5.46,2.71-19.15-15.92-32.6-37.53-13.46-21.61-26.69-46.19-31.25-55.39-9.12-18.4-18.56-32.31-2.24-40.4Z" style="fill:#51c8ff; opacity:.67;"/><path d="M448.1,277.6c16.25-8.05,21.55,7.75,30.6,26,4.52,9.12,15.96,34.29,24.92,57.88,1.51,3.98,2.95,7.91,4.28,11.71,6.54,18.77,10.27,34.38,5.74,36.63-5.44,2.7-19.02-15.77-32.38-37.19s-26.48-45.8-31-54.92c-9.05-18.25-18.41-32.04-2.16-40.09Z" style="fill:#51c8ff; opacity:.71;"/><path d="M448.13,277.66c16.18-8.02,21.43,7.65,30.4,25.75,4.48,9.04,15.83,34.01,24.7,57.4,1.5,3.95,2.92,7.85,4.24,11.62,6.48,18.62,10.15,34.09,5.65,36.33-5.42,2.69-18.9-15.62-32.15-36.86s-26.27-45.41-30.76-54.46c-8.97-18.1-18.26-31.77-2.09-39.79Z" style="fill:#51c8ff; opacity:.76;"/><path d="M448.16,277.72c16.11-7.99,21.31,7.56,30.2,25.5,4.45,8.97,15.69,33.73,24.49,56.93,1.48,3.91,2.9,7.78,4.2,11.52,6.41,18.46,10.04,33.81,5.55,36.03-5.39,2.67-18.78-15.47-31.93-36.52-13.15-21.05-26.06-45.02-30.51-53.99-8.9-17.94-18.12-31.49-2.01-39.48Z" style="fill:#51c8ff; opacity:.81;"/><path d="M448.19,277.79c16.04-7.95,21.19,7.46,30.01,25.25,4.41,8.89,15.56,33.45,24.27,56.46,1.47,3.88,2.87,7.72,4.16,11.43,6.34,18.3,9.93,33.52,5.46,35.73-5.37,2.66-18.65-15.32-31.7-36.19s-25.85-44.63-30.26-53.52c-8.82-17.79-17.97-31.22-1.93-39.17Z" style="fill:#51c8ff; opacity:.86;"/><path d="M448.22,277.85c15.97-7.92,21.06,7.37,29.81,25.01,4.37,8.82,15.42,33.17,24.05,55.99,1.46,3.85,2.84,7.66,4.12,11.34,6.28,18.14,9.81,33.23,5.37,35.43-5.35,2.65-18.53-15.17-31.47-35.85-12.94-20.68-25.64-44.24-30.01-53.05-8.74-17.64-17.83-30.95-1.86-38.86Z" style="fill:#51c8ff; opacity:.9;"/><path d="M448.25,277.91c15.9-7.88,20.94,7.27,29.61,24.76,4.33,8.74,15.29,32.89,23.83,55.52,1.44,3.82,2.81,7.59,4.08,11.24,6.21,17.99,9.7,32.94,5.27,35.14-5.32,2.64-18.41-15.02-31.25-35.51-12.84-20.5-25.43-43.84-29.76-52.59-8.67-17.48-17.68-30.67-1.78-38.56Z" style="fill:#51c8ff; opacity:.95;"/><path d="M510.52,403.51c-5.3,2.63-18.29-14.86-31.02-35.18-12.74-20.31-25.22-43.45-29.52-52.12-8.59-17.33-17.53-30.4-1.7-38.25,15.83-7.85,20.82,7.18,29.41,24.51,4.3,8.67,15.15,32.61,23.61,55.05s14.52,43.36,9.22,45.99Z" style="fill:#51c8ff;"/><path d="M509.87,402.22c-10.56,5.24-51.37-69.26-59.88-86.41-8.5-17.15-17.35-30.09-1.72-37.84,15.63-7.75,20.57,7.12,29.07,24.28s43.09,94.74,32.52,99.97Z" style="fill:#54cbff;"/><path d="M509.23,400.92c-10.52,5.22-50.8-68.55-59.21-85.53-8.41-16.97-17.16-29.78-1.74-37.42,15.42-7.65,20.32,7.07,28.73,24.04s42.74,93.69,32.22,98.91Z" style="fill:#56cdff;"/><path d="M508.59,399.62c-10.49,5.2-50.23-67.85-58.55-84.64-8.32-16.79-16.97-29.46-1.75-37.01,15.22-7.55,20.07,7.01,28.39,23.8,8.32,16.79,42.4,92.65,31.91,97.85Z" style="fill:#59d0ff;"/><path d="M507.94,398.32c-10.45,5.18-49.66-67.14-57.89-83.75-8.24-16.61-16.79-29.15-1.77-36.6,15.02-7.44,19.82,6.95,28.05,23.57,8.24,16.61,42.06,91.6,31.61,96.78Z" style="fill:#5bd2ff;"/><path d="M507.3,397.02c-10.41,5.16-49.08-66.43-57.23-82.87-8.15-16.43-16.6-28.84-1.79-36.18,14.81-7.34,19.57,6.9,27.71,23.33,8.15,16.43,41.72,90.56,31.3,95.72Z" style="fill:#5ed5ff;"/><path d="M506.65,395.72c-10.37,5.14-48.51-65.73-56.57-81.98-8.06-16.25-16.41-28.53-1.81-35.77s19.32,6.84,27.38,23.09c8.06,16.25,41.37,89.51,31,94.66Z" style="fill:#60d7fe;"/><path d="M506.01,394.42c-10.34,5.12-47.94-65.02-55.91-81.1-7.97-16.08-16.23-28.22-1.82-35.36,14.4-7.14,19.07,6.78,27.04,22.86,7.97,16.08,41.03,88.47,30.69,93.59Z" style="fill:#63dafe;"/><path d="M505.37,393.12c-10.3,5.11-47.36-64.31-55.24-80.21-7.88-15.9-16.04-27.9-1.84-34.94,14.2-7.04,18.82,6.73,26.7,22.62,7.88,15.9,40.69,87.43,30.39,92.53Z" style="fill:#66dcfe;"/><path d="M504.72,391.82c-10.26,5.09-46.79-63.61-54.58-79.32-7.79-15.72-15.86-27.59-1.86-34.53,14-6.94,18.57,6.67,26.36,22.38,7.79,15.72,40.34,86.38,30.09,91.47Z" style="fill:#68dffe;"/><path d="M504.08,390.52c-10.22,5.07-46.22-62.9-53.92-78.44-7.7-15.54-15.67-27.28-1.88-34.12,13.79-6.84,18.31,6.61,26.02,22.15,7.7,15.54,40,85.34,29.78,90.4Z" style="fill:#6be1fe;"/><path d="M503.43,389.22c-10.18,5.05-45.65-62.19-53.26-77.55-7.61-15.36-15.48-26.97-1.89-33.7s18.06,6.55,25.68,21.91c7.61,15.36,39.66,84.29,29.48,89.34Z" style="fill:#6de4fe;"/><path d="M502.79,387.92c-10.15,5.03-45.07-61.49-52.6-76.66-7.52-15.18-15.3-26.65-1.91-33.29,13.38-6.64,17.81,6.5,25.34,21.68,7.52,15.18,39.32,83.25,29.17,88.28Z" style="fill:#70e6fe;"/><path d="M502.14,386.62c-10.11,5.01-44.5-60.78-51.94-75.78-7.44-15-15.11-26.34-1.93-32.88s17.56,6.44,25,21.44c7.44,15,38.97,82.2,28.87,87.22Z" style="fill:#72e9fe;"/><path d="M501.5,385.32c-10.07,4.99-43.93-60.07-51.28-74.89-7.35-14.82-14.92-26.03-1.95-32.46,12.98-6.43,17.31,6.38,24.66,21.2,7.35,14.82,38.63,81.16,28.56,86.15Z" style="fill:#75ebfe;"/><path d="M500.86,384.02c-10.03,4.97-43.36-59.37-50.61-74.01-7.26-14.64-14.74-25.72-1.96-32.05s17.06,6.33,24.32,20.97c7.26,14.64,38.29,80.12,28.26,85.09Z" style="fill:#78eefe;"/><path d="M500.21,382.73c-9.99,4.95-42.78-58.66-49.95-73.12-7.17-14.46-14.55-25.41-1.98-31.64,12.57-6.23,16.81,6.27,23.98,20.73,7.17,14.46,37.95,79.07,27.95,84.03Z" style="fill:#7af0fd;"/><path d="M499.57,381.43c-9.96,4.94-42.21-57.95-49.29-72.23-7.08-14.28-14.36-25.09-2-31.22,12.37-6.13,16.56,6.21,23.64,20.49,7.08,14.28,37.6,78.03,27.65,82.96Z" style="fill:#7df3fd;"/><path d="M498.92,380.13c-9.92,4.92-41.64-57.25-48.63-71.35-6.99-14.1-14.18-24.78-2.02-30.81,12.16-6.03,16.31,6.16,23.3,20.26,6.99,14.1,37.26,76.98,27.34,81.9Z" style="fill:#7ff5fd;"/><path d="M498.28,378.83c-9.88,4.9-41.06-56.54-47.97-70.46-6.9-13.92-13.99-24.47-2.03-30.4,11.96-5.93,16.06,6.1,22.96,20.02,6.9,13.92,36.92,75.94,27.04,80.84Z" style="fill:#82f8fd;"/><path d="M497.64,377.53c-9.84,4.88-40.49-55.83-47.31-69.58-6.81-13.74-13.8-24.16-2.05-29.98,11.75-5.83,15.81,6.04,22.62,19.79,6.81,13.74,36.58,74.89,26.73,79.77Z" style="fill:#84fafd;"/><path d="M496.99,376.23c-9.81,4.86-39.92-55.13-46.64-68.69-6.72-13.56-13.62-23.85-2.07-29.57,11.55-5.73,15.56,5.99,22.28,19.55,6.72,13.56,36.23,73.85,26.43,78.71Z" style="fill:#87fdfd;"/><path d="M495.55,373.32c-9.65,4.78-38.88-53.42-45.41-66.58-6.53-13.16-13.23-23.13-1.86-28.77,11.37-5.64,15.24,5.74,21.77,18.9,6.53,13.16,35.15,71.67,25.5,76.45Z" style="fill:#85fbfd;"/><path d="M494.11,370.41c-9.49,4.7-37.85-51.71-44.17-64.48-6.33-12.76-12.85-22.41-1.65-27.96,11.2-5.55,14.93,5.49,21.25,18.25,6.33,12.76,34.06,69.49,24.57,74.19Z" style="fill:#84f9fd;"/><path d="M492.66,367.49c-9.33,4.62-36.81-50.01-42.94-62.37-6.13-12.36-12.47-21.69-1.45-27.16,11.02-5.46,14.61,5.24,20.74,17.59,6.13,12.36,32.97,67.31,23.64,71.93Z" style="fill:#82f6fd;"/><path d="M491.22,364.58c-9.17,4.55-35.77-48.3-41.7-60.26-5.93-11.96-12.09-20.98-1.24-26.36s14.3,4.99,20.23,16.94c5.93,11.96,31.88,65.13,22.71,69.67Z" style="fill:#81f4fd;"/><path d="M489.78,361.67c-9.01,4.47-34.74-46.6-40.46-58.15-5.73-11.55-11.7-20.26-1.03-25.55s13.98,4.74,19.71,16.29c5.73,11.55,30.79,62.95,21.79,67.41Z" style="fill:#7ff2fd;"/><path d="M488.33,358.76c-8.85,4.39-33.7-44.89-39.23-56.05-5.53-11.15-11.32-19.54-.83-24.75s13.67,4.49,19.2,15.64,29.71,60.77,20.86,65.15Z" style="fill:#7ef0fe;"/><path d="M486.89,355.85c-8.69,4.31-32.66-43.19-37.99-53.94-5.33-10.75-10.94-18.83-.62-23.94,10.32-5.12,13.35,4.24,18.68,14.99,5.33,10.75,28.62,58.58,19.93,62.89Z" style="fill:#7ceefe;"/><path d="M485.45,352.94c-8.53,4.23-31.62-41.48-36.75-51.83-5.13-10.35-10.56-18.11-.41-23.14,10.14-5.03,13.04,3.99,18.17,14.34,5.13,10.35,27.53,56.4,19,60.63Z" style="fill:#7bebfe;"/><path d="M484,350.03c-8.37,4.15-30.59-39.78-35.52-49.72-4.93-9.95-10.17-17.39-.2-22.34,9.97-4.94,12.72,3.74,17.65,13.69s26.44,54.22,18.07,58.37Z" style="fill:#79e9fe;"/><path d="M482.56,347.12c-8.21,4.07-29.55-38.07-34.28-47.62-4.73-9.55-9.79-16.68,0-21.53,9.79-4.86,12.41,3.49,17.14,13.03s25.35,52.04,17.14,56.11Z" style="fill:#78e7fe;"/><path d="M481.12,344.21c-8.05,3.99-28.51-36.37-33.05-45.51-4.53-9.14-9.41-15.96,.21-20.73s12.09,3.24,16.62,12.38c4.53,9.14,24.27,49.86,16.21,53.85Z" style="fill:#76e5fe;"/><path d="M479.67,341.29c-7.9,3.91-27.48-34.66-31.81-43.4s-9.03-15.24,.42-19.92c9.44-4.68,11.78,2.99,16.11,11.73,4.33,8.74,23.18,47.68,15.28,51.59Z" style="fill:#75e3fe;"/><path d="M478.23,338.38c-7.74,3.84-26.44-32.95-30.57-41.29-4.13-8.34-8.64-14.53,.62-19.12,9.27-4.59,11.46,2.74,15.6,11.08s22.09,45.5,14.35,49.33Z" style="fill:#73e1fe;"/><path d="M476.79,335.47c-7.58,3.76-25.4-31.25-29.34-39.19-3.94-7.94-8.26-13.81,.83-18.32,9.09-4.51,11.15,2.49,15.08,10.43s21,43.32,13.43,47.08Z" style="fill:#72defe;"/><path d="M475.34,332.56c-7.42,3.68-24.37-29.54-28.1-37.08s-7.88-13.09,1.04-17.51,10.83,2.24,14.57,9.78,19.91,41.14,12.5,44.82Z" style="fill:#70dcfe;"/><path d="M473.9,329.65c-7.26,3.6-23.33-27.84-26.87-34.97s-7.5-12.38,1.24-16.71,10.52,1.99,14.05,9.13c3.54,7.13,18.83,38.96,11.57,42.56Z" style="fill:#6fdaff;"/><path d="M472.46,326.74c-7.1,3.52-22.29-26.13-25.63-32.86-3.34-6.73-7.11-11.66,1.45-15.91,8.56-4.25,10.2,1.74,13.54,8.47s17.74,36.78,10.64,40.3Z" style="fill:#6dd8ff;"/><path d="M471.01,323.83c-6.94,3.44-21.26-24.43-24.39-30.76-3.14-6.33-6.73-10.94,1.66-15.1,8.39-4.16,9.89,1.49,13.02,7.82s16.65,34.6,9.71,38.04Z" style="fill:#6cd6ff;"/><path d="M469.57,320.92c-6.78,3.36-20.22-22.72-23.16-28.65-2.94-5.93-6.35-10.23,1.87-14.3,8.21-4.07,9.57,1.24,12.51,7.17,2.94,5.93,15.56,32.41,8.78,35.78Z" style="fill:#6ad3ff;"/><path d="M468.13,318c-6.62,3.28-19.18-21.02-21.92-26.54-2.74-5.53-5.96-9.51,2.07-13.49,8.04-3.98,9.26,.99,12,6.52,2.74,5.53,14.47,30.23,7.85,33.52Z" style="fill:#69d1ff;"/><path d="M466.68,315.09c-6.46,3.2-18.14-19.31-20.69-24.44s-5.58-8.79,2.28-12.69c7.86-3.9,8.94,.74,11.48,5.87s13.39,28.05,6.92,31.26Z" style="fill:#67cfff;"/></g></g></g></g></g></svg>